<?xml version="1.0" encoding="utf-8"?>
<!-- Generator: Adobe Illustrator 17.1.0, SVG Export Plug-In . SVG Version: 6.00 Build 0)  -->
<!DOCTYPE svg PUBLIC "-//W3C//DTD SVG 1.1//EN" "http://www.w3.org/Graphics/SVG/1.1/DTD/svg11.dtd">
<svg version="1.1" id="Layer_1" xmlns="http://www.w3.org/2000/svg" xmlns:xlink="http://www.w3.org/1999/xlink" x="0px" y="0px"
	 viewBox="0 0 144 144" enable-background="new 0 0 144 144" xml:space="preserve">
<g>
	<g>
		<g>
			<g>
				<path fill="#29B6F6" d="M40.2,12C24.6,12,12,24.6,12,40.2c0,8,3.3,15.2,8.7,20.4c0.4-0.5,0.7-1,1-1.4c0.7-0.9,1.2-1.5,1.6-2
					c0.4-0.5,0.7-0.8,0.7-0.8l0.1-0.1c1.1-1.2,2.3-2,3.7-2.4c0-0.1,0.1-0.2,0.1-0.2l0,0c0,0,0-0.1,0-0.1c6-5.9,2.1-11.7-0.7-14.5
					L22.5,35c-0.7-0.5-1.1-1.3-1.2-2.2c-0.3-1.9,1.1-3.7,3-4c0.5-0.1,1,0,1.4,0.1c0-0.1,0-0.2,0.1-0.3c1.4-5.2,5.7-9.3,11.3-10.1
					c0.8-0.1,1.5-0.1,2.3-0.1c0,0,0,0,0,0h8.3c0,0,4.3,0.5,4.9-1.9c0,0,1.4,4.8-6.2,4.1c2.6,1.7,4.6,4.2,5.6,7.2
					c0.1,0.4,0.3,0.8,0.4,1.3c0.6-0.2,1.2-0.3,1.9-0.3c1.9,0.3,3.3,2.1,3,4c-0.1,0.9-0.6,1.7-1.3,2.3l-5.8,4.9c0,0,0,0,0,0
					c-0.7,0.6-1.4,1.2-1.9,1.7c-2,2.3-3.7,6.7,3.7,12.6c1.8,0.1,3.6,1,5,2.5c0.3,0.3,0.6,0.7,0.9,1.1l0.1,0.1c0,0,0.2,0.3,0.6,0.9
					c0.3,0.5,0.7,1.1,1.2,1.9c5.4-5.1,8.8-12.4,8.8-20.5C68.5,24.6,55.8,12,40.2,12z"/>
				<path fill="#29B6F6" d="M34.8,58.4c-2.7-0.9-5.1-2.5-6.9-4.6c0,0,0,0,0,0c0,0,0,0,0,0C29.7,55.8,32.1,57.4,34.8,58.4z"/>
				<path fill="#E0F7FA" d="M57.9,57.9l-0.1-0.1c-0.3-0.4-0.5-0.7-0.9-1.1c-1.4-1.5-3.2-2.4-5-2.5c0,0,0,0,0,0v0l-0.1,0
					c-2.8,3-7,5-11.8,5.1c-1.9,0-3.6-0.4-5.3-0.9c-2.7-0.9-5.1-2.5-6.9-4.6c0,0,0,0,0,0l0,0c0,0.1-0.1,0.2-0.1,0.2
					c-1.4,0.4-2.6,1.2-3.7,2.4l-0.1,0.1c0,0-0.2,0.3-0.7,0.8c-0.4,0.5-1,1.1-1.6,2c-0.3,0.4-0.7,0.9-1,1.4c5.1,4.9,12,7.9,19.5,7.9
					c7.5,0,14.3-2.9,19.4-7.7c-0.5-0.8-0.9-1.5-1.2-1.9C58.1,58.2,57.9,57.9,57.9,57.9z"/>
				<path fill="#FFE0B2" d="M34.8,58.4c1.6,0.6,3.4,0.9,5.3,0.9c4.7-0.1,8.9-2.1,11.8-5.1l0.1,0v0c0,0,0,0,0,0
					c-7.4-5.8-5.7-10.3-3.7-12.6c0.6-0.5,1.2-1.1,1.9-1.7c0,0,0,0,0,0l5.8-4.9c0.7-0.5,1.1-1.3,1.3-2.3c0.3-1.9-1.1-3.7-3-4
					c-0.7-0.1-1.3,0-1.9,0.3c-0.1-0.4-0.2-0.9-0.4-1.3c-11.9,1.6-16.7-1.1-18.7-3.7c-0.7,1.2-2.8,3.7-7.5,4.5c0,0.1,0,0.2-0.1,0.3
					c-0.4-0.1-0.9-0.2-1.4-0.1c-1.9,0.3-3.3,2.1-3,4c0.1,0.9,0.6,1.7,1.2,2.2l4.8,4.1C30.1,42,34,47.8,28,53.7c0,0,0,0.1,0,0.1
					c0,0,0,0,0,0C29.7,55.8,32.1,57.4,34.8,58.4z"/>
				<path fill="#444444" d="M33.2,24.1c2,2.6,6.8,5.3,18.7,3.7c-1-3-3-5.6-5.6-7.2c7.6,0.7,6.2-4.1,6.2-4.1
					c-0.6,2.4-4.9,1.9-4.9,1.9h-8.3c0,0,0,0,0,0c-0.8,0-1.5,0-2.3,0.1c-5.6,0.8-10,4.9-11.3,10.1C30.4,27.8,32.5,25.2,33.2,24.1z"/>
			</g>
			<g>
				<path fill="#8792D0" d="M104.5,88.4c-0.5,0.3-1,0.6-1.6,0.9C103.5,89.1,104.1,88.8,104.5,88.4z"/>
				<path fill="#8792D0" d="M97.8,90.6c0,0-0.1,0-0.1,0C97.7,90.6,97.8,90.6,97.8,90.6z"/>
				<path fill="#8792D0" d="M94.4,90.7L94.4,90.7c-0.1,0-0.3,0-0.4,0C94.1,90.7,94.2,90.7,94.4,90.7z"/>
				<path fill="#8792D0" d="M110.3,102.1c0.3-0.3,0.5-0.6,0.7-0.8C110.8,101.5,110.6,101.8,110.3,102.1z"/>
				<path fill="#8792D0" d="M103.8,76c-15.6,0-28.2,12.6-28.2,28.2c0,9.9,5.1,18.6,12.8,23.6c0,0,0,0,0,0c0.2-0.8,0.4-1.7,0.6-2.5
					c0.4-1.9,0.9-3.7,1.2-5.5c0.1-0.6,0.2-1.2,0.4-1.8c0.8-4.1,1.4-8,1.5-11c0.2-8.6-2.9-8.9-2.9-8.9l-0.9,0c0-1.9,0.2-3.9,0.4-5.4
					c0.1-0.8,0.3-1.6,0.5-2.4c1.6-5.5,6.3-9.3,11.7-9.4l0,0c0,0,22.4-3.6,18.7,24.9l-11.2,0.4c-0.7,2.7-0.7,6.5,1.8,11.4
					c1.1,2.2,2.6,4.5,4.8,7.1c0.4,0.5,0.9,1,1.4,1.5c0.1,0.1,0.1,0.2,0.2,0.2c0.6,0.7,1.2,1.4,1.8,2.1c8.3-4.9,13.8-13.9,13.8-24.3
					C132,88.6,119.4,76,103.8,76z"/>
				<path fill="#8792D0" d="M108.3,106.1c0.2-0.7,0.4-1.3,0.7-1.8C108.7,104.8,108.5,105.4,108.3,106.1z"/>
				<path fill="#8792D0" d="M93.6,90.7L93.6,90.7L93.6,90.7c0.1,0,0.2,0,0.4,0l0,0l0,0C93.8,90.7,93.7,90.7,93.6,90.7z"/>
				<path fill="#8792D0" d="M95,94.8c-0.1,0-0.1,0-0.2,0c-0.4,0-0.7,0.3-0.7,0.7c0,0.1,0,0.1,0,0.2C94.3,95.2,94.6,94.9,95,94.8z"/>
				<path fill="#8792D0" d="M99.3,90.4c0.1,0,0.3,0,0.4-0.1C99.5,90.4,99.4,90.4,99.3,90.4L99.3,90.4z"/>
				<path fill="#E65100" d="M89.2,124.7h25.6c-2.2-2.6-3.7-5-4.8-7.1c-2.6,2.5-6.1,4.1-10,4.2c0.1,0,0.3,0,0.4,0h-0.7h-0.1
					c0.1,0,0.3,0,0.4,0c-2.6-0.1-6.6-0.8-9.9-2c-0.4,1.8-0.8,3.7-1.2,5.5c0.1-0.2,0.1-0.4,0.2-0.7H89.2z"/>
				<path fill="#E65100" d="M88.3,127.9L88.3,127.9C88.3,127.9,88.3,127.9,88.3,127.9C88.3,127.9,88.3,127.9,88.3,127.9z"/>
				<path fill="#FFE0B2" d="M99.8,121.8h0.7c-0.1,0-0.3,0-0.4,0c-0.1,0-0.3,0-0.4,0H99.8z"/>
				<path fill="#EE8100" d="M116.2,126.1c-0.4-0.5-1-1-1.4-1.5H89.2h-0.1c-0.1,0.2-0.1,0.4-0.2,0.7c-0.2,0.8-0.4,1.7-0.6,2.5
					c0,0,0,0,0,0c4.4,2.9,9.7,4.6,15.4,4.6c5.3,0,10.2-1.4,14.4-4c-0.6-0.7-1.1-1.4-1.8-2.1C116.4,126.3,116.3,126.2,116.2,126.1z"
					/>
				<path fill="#FFE0B2" d="M110.1,117.5c-2.5-4.9-2.5-8.7-1.8-11.4l0,0c0.2-0.7,0.4-1.3,0.7-1.8c0,0,0,0,0,0
					c0.1-0.2,0.2-0.3,0.2-0.5c0,0,0,0,0,0c0.1-0.1,0.2-0.3,0.2-0.4c0,0,0,0,0,0c0.1-0.1,0.2-0.3,0.3-0.4c0,0,0,0,0,0
					c0.2-0.3,0.4-0.5,0.5-0.7c0.3-0.3,0.5-0.6,0.7-0.8c0,0,0,0,0,0c0.1-0.1,0.1-0.1,0.2-0.2c0,0,0,0,0,0c0,0,0.1-0.1,0.1-0.1
					c0,0,0,0,0,0c0,0,0.1-0.1,0.1-0.1c0,0,0,0,0,0c0,0,0,0,0.1-0.1c0,0,0,0,0,0c0,0,0,0,0,0c0.7-0.7,1.5-1.3,2.1-1.8
					c0.4-0.3,0.8-0.5,1.1-0.7c0.8-0.5,1.4-0.7,1.5-0.8c0,0,0,0,0,0c0.6-0.5,1-1.3,1.1-2.2c0.2-1.9-1-3.7-2.8-4l-4.7,6.3l-3.5-11
					c-0.1,0.1-0.1,0.2-0.2,0.3c0,0,0,0.1-0.1,0.1c0,0.1-0.1,0.1-0.1,0.2c0,0-0.1,0.1-0.1,0.1c0,0.1-0.1,0.1-0.2,0.2
					c0,0-0.1,0.1-0.1,0.1c-0.1,0.1-0.1,0.1-0.2,0.2c0,0-0.1,0.1-0.1,0.1c-0.1,0.1-0.1,0.1-0.2,0.2c0,0-0.1,0.1-0.1,0.1
					c-0.1,0.1-0.1,0.1-0.2,0.2c0,0-0.1,0-0.1,0.1c-0.1,0.1-0.2,0.1-0.3,0.2c0,0,0,0-0.1,0c-0.5,0.3-1,0.6-1.6,0.9c0,0,0,0-0.1,0
					c-0.1,0.1-0.3,0.1-0.4,0.2c0,0-0.1,0-0.1,0c-0.1,0.1-0.3,0.1-0.4,0.2c0,0-0.1,0-0.1,0c-0.1,0.1-0.3,0.1-0.4,0.1c0,0-0.1,0-0.1,0
					c-0.2,0-0.3,0.1-0.5,0.1c0,0,0,0-0.1,0c-0.2,0.1-0.4,0.1-0.6,0.1c-0.1,0-0.3,0.1-0.4,0.1l0,0c0,0-0.1,0-0.1,0l0,0
					c-0.1,0-0.3,0-0.4,0.1l0,0c0,0-0.1,0-0.1,0c0,0-0.1,0-0.1,0c-0.1,0-0.3,0-0.4,0.1l0,0c0,0-0.1,0-0.1,0c0,0-0.1,0-0.1,0
					c-0.1,0-0.3,0-0.4,0c-0.1,0-0.2,0-0.2,0c0,0-0.1,0-0.1,0c0,0-0.1,0-0.1,0c-0.1,0-0.1,0-0.2,0c-0.1,0-0.2,0-0.2,0
					c-0.1,0-0.3,0-0.4,0h0c0,0-0.1,0-0.1,0c0,0-0.1,0-0.1,0c-0.2,0-0.5,0-0.7,0c0,0,0,0,0,0c-0.1,0-0.2,0-0.3,0c-0.1,0-0.2,0-0.4,0
					h0c0,0-0.1,0-0.1,0c-0.1,0-0.2,0-0.3,0c-0.1,0-0.2,0-0.4,0h0h0c-0.1,0-0.3,0-0.4,0l0,0c-0.1,0-0.2,0-0.4,0l0,0
					c-0.1,0-0.3,0-0.4,0l0,0c-0.1,0-0.2,0-0.4,0c0,0-0.1,0-0.1,0c-0.1,0-0.3,0-0.4,0l0,0c-0.1,0-0.2,0-0.4,0c-0.2,0-0.3,0-0.5-0.1
					c-0.1,0-0.2,0-0.4,0l0,0c-0.1,0-0.2,0-0.3,0c-0.1,0-0.2,0-0.3,0c-0.1,0-0.2,0-0.3,0c-0.3,0-0.6-0.1-1-0.1
					c-0.2,0.8-0.4,1.5-0.5,2.4c-0.2,1.6-0.4,3.6-0.4,5.4l0.9,0c0,0,3.1,0.3,2.9,8.9c-0.1,3.1-0.7,6.9-1.5,11
					c-0.1,0.6-0.2,1.2-0.4,1.8c3.3,1.2,7.3,1.9,9.9,2C104,121.7,107.5,120.1,110.1,117.5z"/>
				<path fill="#444444" d="M95.2,94.8c-0.1,0-0.1,0-0.2,0c-0.4,0.1-0.7,0.4-0.8,0.9c0,0.1,0,0.1,0,0.2c0,0.6,0.4,1.1,1,1.1
					c0.6,0,1-0.5,1-1.1C96.2,95.3,95.8,94.8,95.2,94.8z"/>
				<path fill="#5D4037" d="M90.4,90.4c0.1,0,0.2,0,0.3,0c0.1,0,0.2,0,0.3,0l0,0c0.1,0,0.2,0,0.4,0c0.2,0,0.4,0,0.5,0.1
					c0.1,0,0.2,0,0.4,0l0,0c0.1,0,0.3,0,0.4,0c0,0,0.1,0,0.1,0c0.1,0,0.3,0,0.4,0l0,0c0.2,0,0.3,0,0.4,0l0,0c0.1,0,0.2,0,0.4,0l0,0
					c0.1,0,0.3,0,0.4,0h0c0.1,0,0.2,0,0.4,0c0.1,0,0.2,0,0.3,0c0,0,0.1,0,0.1,0h0c0.1,0,0.2,0,0.4,0c0.1,0,0.2,0,0.3,0c0,0,0,0,0,0
					c0.2,0,0.5,0,0.7,0c0,0,0.1,0,0.1,0c0,0,0.1,0,0.1,0h0c0.1,0,0.3,0,0.4,0c0.1,0,0.2,0,0.2,0c0.1,0,0.1,0,0.2,0c0,0,0.1,0,0.1,0
					c0,0,0.1,0,0.1,0c0.1,0,0.2,0,0.2,0c0.1,0,0.3,0,0.4,0c0,0,0.1,0,0.1,0c0,0,0.1,0,0.1,0l0,0c0.1,0,0.3,0,0.4-0.1
					c0,0,0.1,0,0.1,0c0,0,0.1,0,0.1,0l0,0l0,0c0.1,0,0.3,0,0.4-0.1l0,0c0,0,0.1,0,0.1,0l0,0c0.1,0,0.3-0.1,0.4-0.1
					c0.2,0,0.4-0.1,0.6-0.1c0,0,0,0,0.1,0c0.2,0,0.3-0.1,0.5-0.1c0,0,0.1,0,0.1,0c0.2,0,0.3-0.1,0.4-0.1c0,0,0.1,0,0.1,0
					c0.1-0.1,0.3-0.1,0.4-0.2c0,0,0.1,0,0.1,0c0.1-0.1,0.3-0.1,0.4-0.2c0,0,0,0,0.1,0c0.6-0.3,1.1-0.6,1.6-0.9c0,0,0,0,0.1,0
					c0.1-0.1,0.2-0.1,0.3-0.2c0,0,0.1,0,0.1-0.1c0.1-0.1,0.1-0.1,0.2-0.2c0,0,0.1-0.1,0.1-0.1c0.1-0.1,0.1-0.1,0.2-0.2
					c0,0,0.1-0.1,0.1-0.1c0.1-0.1,0.1-0.1,0.2-0.2c0,0,0.1-0.1,0.1-0.1c0.1-0.1,0.1-0.1,0.2-0.2c0,0,0.1-0.1,0.1-0.1
					c0.1-0.1,0.1-0.1,0.1-0.2c0,0,0-0.1,0.1-0.1c0.1-0.1,0.1-0.2,0.2-0.3l3.5,11l4.7-6.3c1.8,0.3,3,2.1,2.8,4
					c-0.1,0.9-0.5,1.7-1.1,2.2c0,0,0,0,0,0c-0.1,0-0.7,0.3-1.5,0.8c-0.3,0.2-0.7,0.4-1.1,0.7c-0.7,0.5-1.4,1.1-2.1,1.8c0,0,0,0,0,0
					c0,0,0,0,0,0c0,0,0,0-0.1,0.1c0,0,0,0,0,0c0,0-0.1,0-0.1,0.1c0,0,0,0,0,0c0,0-0.1,0.1-0.1,0.1c0,0,0,0,0,0
					c-0.1,0-0.1,0.1-0.2,0.2c0,0,0,0,0,0c-0.2,0.2-0.4,0.5-0.7,0.8c-0.2,0.2-0.4,0.5-0.5,0.7c0,0,0,0,0,0c-0.1,0.1-0.2,0.3-0.3,0.4
					c0,0,0,0,0,0c-0.1,0.1-0.2,0.3-0.2,0.4c0,0,0,0,0,0c-0.1,0.2-0.2,0.3-0.2,0.5c0,0,0,0,0,0c-0.3,0.5-0.5,1.1-0.7,1.8l0,0
					l11.2-0.4c3.7-28.5-18.7-24.9-18.7-24.9l0,0c-5.3,0.1-10,3.9-11.7,9.4c0.3,0,0.6,0.1,1,0.1C90.2,90.4,90.3,90.4,90.4,90.4z"/>
			</g>
			<g>
				<path fill="#E53973" d="M112.8,35.4C112.8,35.4,112.9,35.4,112.8,35.4C112.9,35.4,112.9,35.4,112.8,35.4L112.8,35.4L112.8,35.4z
					"/>
				<path fill="#E53973" d="M104.2,11.5C88.6,11.5,76,24.2,76,39.8c0,10.4,5.7,19.6,14.1,24.4c0-0.1,0.1-0.3,0.1-0.4
					c0.1-0.3,0.1-0.6,0.2-0.9c0,0,0,0,0,0c0.1-0.6,1.7-9.4,1.8-12.4c0.1-3.2-0.3-5.2-0.8-6.5h-3.9l1.1-4.5c0.1-1,0.2-2.1,0.3-2.9
					c0.1-0.8,0.1-1,0.3-1.7c0,0,0,0,0,0c-1.3-2.1-2-4.5-2-7.1c0-7.5,6.1-13.6,13.6-13.6c2.9,0,5.7,0.9,7.9,2.5l11.4,8.1h0
					c5.1,2.5,8.7,7.7,8.7,13.8c0,8.4-6.8,15.3-15.3,15.3c-2,0-4-0.4-5.7-1.1c0.1,2.2,0.7,4.7,2.3,7.6C111,62,112.3,64,114,66
					c0,0,0.1,0.1,0.1,0.1c0,0,0,0,0,0c10.7-4,18.3-14.3,18.3-26.4C132.5,24.2,119.8,11.5,104.2,11.5z"/>
				<path fill="#444444" d="M106.1,30.7c0.6,1.1,2.5,3.9,6.7,4.6c0,0,0,0,0,0c0.4-0.1,0.8-0.2,1.3-0.1c1.7,0.3,2.9,2,2.7,3.9
					c-0.1,0.9-0.5,1.6-1.1,2.1l0,0c0,0,0,0,0,0c-0.1,0-0.7,0.3-1.5,0.7c-0.3,0.2-0.7,0.4-1.1,0.7c-0.7,0.5-1.4,1-2.1,1.8
					c-1.8,1.8-3.4,4.5-3.3,8.2c1.8,0.7,3.7,1.1,5.7,1.1c8.4,0,15.3-6.8,15.3-15.3c0-6.1-3.5-11.3-8.7-13.8h0l-11.4-8.1
					c-2.2-1.6-5-2.5-7.9-2.5c-7.5,0-13.6,6.1-13.6,13.6c0,2.6,0.7,5,2,7.1C99.8,36.5,104.3,33.3,106.1,30.7z"/>
				<path fill="#444444" d="M112.8,35.4C112.9,35.4,112.9,35.4,112.8,35.4C112.9,35.4,112.8,35.4,112.8,35.4L112.8,35.4z"/>
				<path fill="#8D6E63" d="M99.9,65.3c7-0.6,10.2-5.1,10.2-5.1c-1.5-2.9-2.2-5.4-2.3-7.6c-0.1-3.7,1.5-6.4,3.3-8.2
					c0.7-0.7,1.4-1.3,2.1-1.8c0.4-0.3,0.7-0.5,1.1-0.7c0.8-0.5,1.3-0.7,1.5-0.7c0,0,0,0,0,0l0,0c0.6-0.5,1-1.3,1.1-2.1
					c0.2-1.9-1-3.6-2.7-3.9c-0.4-0.1-0.9,0-1.3,0.1c0,0,0,0,0,0c0,0,0,0,0,0c-4.2-0.8-6.1-3.5-6.7-4.6c-1.8,2.5-6.3,5.7-16.9,4.1
					c0,0,0,0,0,0c-0.2,0.7-0.2,0.9-0.3,1.7c-0.1,0.9-0.2,1.9-0.3,2.9L87.5,44h3.9c0.5,1.3,0.9,3.3,0.8,6.5c-0.1,3-1.7,11.8-1.8,12.4
					c0,0,0,0,0,0c-0.1,0.3-0.1,0.6-0.2,0.9C94,65.2,97.3,65.6,99.9,65.3z M95.5,40.3c-0.6,0-1-0.4-1-1s0.4-1,1-1c0.6,0,1,0.4,1,1
					S96.1,40.3,95.5,40.3z"/>
				<path fill="#8D6E63" d="M112.8,35.4L112.8,35.4C112.8,35.4,112.8,35.3,112.8,35.4z"/>
				<path fill="#FFCC80" d="M114,66c0,0.1,0.1,0.1,0.1,0.2c0,0,0,0,0,0c0,0,0,0,0,0C114.1,66.1,114.1,66.1,114,66z"/>
				<circle fill="#444444" cx="95.5" cy="39.3" r="1"/>
				<path fill="#0097A7" d="M110.1,60.3c0,0-3.2,4.5-10.2,5.1c-2.7,0.2-5.9-0.1-9.7-1.5c0,0.1-0.1,0.3-0.1,0.4
					c4.2,2.4,9,3.8,14.1,3.8c3.5,0,6.8-0.6,9.9-1.8c0-0.1-0.1-0.1-0.1-0.2C112.3,64,111,62,110.1,60.3z"/>
			</g>
			<g>
				<path fill="#CC3366" d="M39.8,75.5c-15.6,0-28.2,12.6-28.2,28.2c0,11,6.3,20.6,15.6,25.2c0.2-0.2,0.3-0.4,0.5-0.6c0,0,0,0,0,0
					c0.1-0.1,0.2-0.3,0.3-0.4c0.1-0.1,0.2-0.2,0.3-0.3c0.3-0.3,0.5-0.6,0.8-0.9c0,0,0,0,0,0c0,0,0.1-0.1,0.1-0.1
					c0.2-0.2,0.3-0.4,0.5-0.6c0.1-0.2,0.3-0.3,0.4-0.5l0,0c1.3-1.7,2.4-3.3,3.2-4.8c3.3-6.7,4.1-9,1.6-12.2
					c-0.6-0.8-2.6-1.5-3.5-1.6c-0.5-0.1-0.9-0.1-1.3-0.1c-0.9,0-1.6,0-1.7,0c0,0,0,0,0,0l0,0c-0.8-0.2-1.5-0.7-2-1.4
					c-0.7-1-0.9-2.3-0.5-3.3c-3.2,0.6-6.6-0.9-8.1-4c-2-3.7-0.5-8.4,3.2-10.3c3-1.6,6.5-1,8.8,1.2c0.8-1.2,1.7-2.2,2.9-3.1
					c5-3.7,11.9-2.8,16.5,1.8c0.6,0.6,1.1,1.2,1.6,1.8c0.5,0.6,1,1.4,1.5,2.2l0,0l0.2,0.3l0.3,0.4l0,0l2.8,3.2l-2.8,8.2
					c-0.4,1.1-0.8,2.7-0.9,5.2c0.2,2.1,0.7,8.8,1.8,14.4c0,0,0,0,0,0c0.1,0.3,0.1,0.6,0.2,0.9c0.3,1.2,0.5,2.4,0.8,3.6
					c8.1-5,13.6-13.9,13.6-24.1C68,88.2,55.4,75.5,39.8,75.5z"/>
				<path fill="#CC3366" d="M31.8,93.2c0-0.3,0.1-0.6,0.1-0.9C31.9,92.6,31.8,92.9,31.8,93.2C31.8,93.2,31.8,93.2,31.8,93.2z"/>
				<path fill="#CC3366" d="M46.2,94.9c-0.2-0.3-0.5-0.4-0.8-0.4c0.3,0,0.6,0.2,0.8,0.5c0.1,0.1,0.1,0.2,0.1,0.3
					C46.3,95.2,46.3,95.1,46.2,94.9z"/>
				<path fill="#CC3366" d="M27.9,99.8C27.9,99.8,27.9,99.8,27.9,99.8L27.9,99.8C27.9,99.8,27.9,99.8,27.9,99.8z"/>
				<path fill="#CC3366" d="M43.5,125.3c0.4,0,0.9,0,1.4-0.1C44.4,125.3,43.9,125.3,43.5,125.3z"/>
				<path fill="#5D4037" d="M27.9,99.9L27.9,99.9C28,99.9,28,99.9,27.9,99.9L27.9,99.9L27.9,99.9z"/>
				<path fill="#5D4037" d="M26.7,100.4c0.4-0.3,0.8-0.4,1.2-0.5c0,0,0,0,0,0c0,0,0,0,0,0c2.9-2.3,3.6-5,3.9-6.6c0,0,0,0,0,0
					c0-0.3,0.1-0.6,0.1-0.8c1.8,0.9,4.7,1.4,8.8-0.1c0.3-0.3,0.7-0.6,1.2-0.9c0.6-0.3,1.3-0.5,2-0.6c1.5-0.8,3.2-1.9,5-3.2
					c-4.5-4.6-11.4-5.5-16.5-1.8c-1.2,0.9-2.2,1.9-2.9,3.1c-2.3-2.2-5.8-2.8-8.8-1.2c-3.7,2-5.2,6.6-3.2,10.3c1.6,3,4.9,4.5,8.1,4
					C25.8,101.3,26.2,100.8,26.7,100.4z"/>
				<path fill="#FFCC80" d="M42.3,92.1c-2.2,1.1-3,3.8-1.9,6c1.1,2.2,3.8,3,6,1.9c2.2-1.1,3-3.8,1.9-6C47.2,91.8,44.5,91,42.3,92.1z
					"/>
				<path fill="#FFCC80" d="M48.9,93.2l3-1.6c-0.5-0.8-1-1.5-1.5-2.2c-0.5-0.7-1-1.3-1.6-1.8c-1.8,1.3-3.5,2.4-5,3.2
					C45.8,90.6,47.8,91.5,48.9,93.2z"/>
				<path fill="#FFCC80" d="M27.9,99.8C27.9,99.8,27.9,99.8,27.9,99.8L27.9,99.8L27.9,99.8C27.9,99.8,27.9,99.8,27.9,99.8z"/>
				<path fill="#FFCC80" d="M43.6,125.9c1.7,0.1,3.5,0.1,5.6-0.3c0.4-0.1,0.7-0.2,1.1-0.2c1-0.2,2.1-0.6,3.3-1
					c-0.1-0.3-0.1-0.6-0.2-0.9c0,0,0,0,0,0c-1.2-5.6-1.7-12.3-1.8-14.4c0.1-2.4,0.4-4.1,0.9-5.2l2.8-8.2l-2.8-3.2L49.3,94
					c1.1,2.5,0,5.5-2.4,6.8c-2.6,1.4-5.8,0.4-7.2-2.2c-1.1-2.2-0.6-4.7,1-6.3c-4.2,1.5-7,1.1-8.8,0.1c0,0.2,0,0.5-0.1,0.9
					c-0.2,1.6-1,4.4-3.9,6.6c0,0.1,0,0,0,0c-0.4,0.1-0.8,0.3-1.2,0.5c-0.5,0.4-0.9,0.9-1.1,1.5c-0.4,1-0.2,2.3,0.5,3.3
					c0.5,0.7,1.3,1.2,2,1.4l0,0c0,0,0,0,0,0c0.1,0,0.8-0.1,1.7,0c0.4,0,0.8,0.1,1.3,0.1c0.8,0.1,2.8,0.8,3.5,1.6
					c2.6,3.2,1.7,5.6-1.6,12.2C33.1,120.6,36.4,125.3,43.6,125.9z"/>
				<path fill="#FFCC80" d="M28.9,126.7C28.9,126.7,28.9,126.7,28.9,126.7c0,0,0.1-0.1,0.1-0.1C29,126.6,28.9,126.7,28.9,126.7z"/>
				<path fill="#444444" d="M45.5,94.5c-0.2,0-0.4,0-0.6,0.1c-0.5,0.3-0.7,0.9-0.4,1.4s0.9,0.7,1.4,0.4c0.4-0.2,0.6-0.6,0.5-1
					c0-0.1,0-0.2-0.1-0.3C46.1,94.8,45.8,94.6,45.5,94.5z"/>
				<path fill="#FFEE58" d="M50.4,125.3c1,0.1,1.8,0.9,1.8,1.9c0,1.1-0.9,1.9-1.9,1.9c-1.1,0-1.9-0.9-1.9-1.9c0-0.7,0.4-1.3,1-1.7
					c-2.1,0.4-4,0.5-5.6,0.3c-7.2-0.6-10.5-5.2-10.5-5.2c-0.8,1.5-1.8,3.1-3.2,4.8l0,0c0.7,0.3,1.1,1,1.1,1.8c0,1.1-0.9,1.9-1.9,1.9
					c-0.6,0-1.2-0.3-1.5-0.8c-0.1,0.2-0.3,0.4-0.5,0.6c3.8,1.9,8.1,3,12.7,3c5.4,0,10.4-1.5,14.7-4.1c-0.3-1.2-0.6-2.4-0.8-3.6
					C52.5,124.7,51.4,125,50.4,125.3z M39.6,129.1c-1.1,0-1.9-0.9-1.9-1.9c0-1.1,0.9-1.9,1.9-1.9c1.1,0,1.9,0.9,1.9,1.9
					C41.6,128.3,40.7,129.1,39.6,129.1z"/>
				<path fill="#F9A825" d="M48.2,127.2c0,1.1,0.9,1.9,1.9,1.9c1.1,0,1.9-0.9,1.9-1.9c0-1-0.8-1.8-1.8-1.9c-0.4,0.1-0.8,0.2-1.1,0.2
					C48.6,125.9,48.2,126.5,48.2,127.2z"/>
				<circle fill="#F9A825" cx="39.6" cy="127.2" r="1.9"/>
				<path fill="#F9A825" d="M29.1,129.1c1.1,0,1.9-0.9,1.9-1.9c0-0.8-0.5-1.4-1.1-1.8l0,0l0,0c-0.1,0.2-0.3,0.3-0.4,0.5
					c-0.2,0.2-0.3,0.4-0.5,0.6c0,0.1-0.1,0.1-0.1,0.2c-0.2,0.3-0.5,0.6-0.8,0.9c-0.1,0.1-0.2,0.2-0.3,0.3c-0.1,0.1-0.2,0.2-0.3,0.4
					c0,0,0,0,0,0C27.9,128.8,28.5,129.1,29.1,129.1z"/>
				<path fill="#DB4437" d="M43.9,90.8c-0.7,0.1-1.4,0.3-2,0.6c-0.4,0.2-0.8,0.5-1.2,0.9c-1.7,1.6-2.2,4.2-1,6.3
					c1.4,2.6,4.6,3.6,7.2,2.2c2.5-1.3,3.5-4.3,2.4-6.8l3.2-1.6l0,0L52.1,92l-0.2-0.3l0,0l-3,1.6C47.8,91.5,45.8,90.6,43.9,90.8z
					 M46.5,100c-2.2,1.1-4.9,0.3-6-1.9c-1.1-2.2-0.3-4.9,1.9-6c2.2-1.1,4.9-0.3,6,1.9C49.5,96.2,48.6,98.9,46.5,100z"/>
			</g>
		</g>
	</g>
	<circle fill="#444444" cx="46.7" cy="34" r="1"/>
	<circle fill="#444444" cx="37.3" cy="33.3" r="1"/>
</g>
</svg>
