<?xml version="1.0" encoding="utf-8"?>
<!-- Generator: Adobe Illustrator 17.1.0, SVG Export Plug-In . SVG Version: 6.00 Build 0)  -->
<!DOCTYPE svg PUBLIC "-//W3C//DTD SVG 1.1//EN" "http://www.w3.org/Graphics/SVG/1.1/DTD/svg11.dtd">
<svg version="1.1" id="Layer_1" xmlns="http://www.w3.org/2000/svg" xmlns:xlink="http://www.w3.org/1999/xlink" x="0px" y="0px"
	 viewBox="0 0 144 144" enable-background="new 0 0 144 144" xml:space="preserve">
<g>
	<path fill="#FFFFFF" d="M2.9,56.4h8.9v2.1H5.3v3.4h5.4v2.2H5.3V68h6.5v2.1H2.9V56.4z"/>
	<path fill="#FFFFFF" d="M13.3,59.9h3c0,0.1,0,0.1,0,0.2s0,0.1-0.1,0.2c0,0.1,0,0.1-0.1,0.2s0,0.1,0,0.2l2.3,6.6l1-2.9
		c0.3-0.8,0.5-1.5,0.7-2.3c0.2-0.8,0.4-1.5,0.5-2.1H23c-0.2,0.7-0.4,1.5-0.6,2.3c-0.3,0.8-0.6,1.6-0.9,2.4l-2.3,5.6h-2L13.3,59.9z"
		/>
	<path fill="#FFFFFF" d="M29.4,59.6c0.6,0,1.2,0.1,1.7,0.3c0.5,0.2,1,0.5,1.4,1c0.4,0.4,0.7,0.9,0.9,1.6c0.2,0.6,0.3,1.4,0.3,2.2
		c0,0.2,0,0.4,0,0.5c0,0.2,0,0.3,0,0.5H27c0.1,0.5,0.2,0.9,0.3,1.3c0.2,0.4,0.4,0.6,0.6,0.9c0.2,0.2,0.5,0.4,0.8,0.5
		c0.3,0.1,0.6,0.2,0.9,0.2c0.5,0,0.9-0.1,1.4-0.3c0.4-0.2,0.8-0.5,1.2-0.9l1.4,1.4c-1,1.2-2.3,1.9-3.9,1.9c-0.7,0-1.4-0.1-2.1-0.4
		c-0.6-0.2-1.2-0.6-1.6-1.1c-0.5-0.5-0.8-1-1.1-1.7c-0.3-0.7-0.4-1.4-0.4-2.3c0-0.9,0.1-1.6,0.4-2.3c0.2-0.7,0.6-1.3,1-1.7
		c0.4-0.5,0.9-0.8,1.5-1.1C28.1,59.8,28.7,59.6,29.4,59.6z M31.3,63.9c0-0.3,0-0.6-0.1-0.9c-0.1-0.3-0.2-0.5-0.4-0.8
		c-0.2-0.2-0.4-0.4-0.6-0.5c-0.3-0.1-0.5-0.2-0.9-0.2c-0.3,0-0.6,0.1-0.8,0.2c-0.3,0.1-0.5,0.3-0.7,0.5c-0.2,0.2-0.3,0.5-0.5,0.8
		c-0.1,0.3-0.2,0.6-0.2,1H31.3z"/>
	<path fill="#FFFFFF" d="M36.7,59.9h2.5V61c0.2-0.2,0.4-0.4,0.6-0.5c0.2-0.2,0.4-0.3,0.7-0.4c0.2-0.1,0.5-0.2,0.7-0.3
		c0.3-0.1,0.5-0.1,0.8-0.1c0.6,0,1.1,0.1,1.7,0.3c0.5,0.2,1,0.5,1.4,0.9L44,63.2c-0.4-0.5-0.7-0.9-1-1.1c-0.3-0.2-0.7-0.3-1-0.3
		c-0.4,0-0.7,0.1-1.1,0.2c-0.3,0.2-0.6,0.4-0.9,0.7c-0.2,0.3-0.4,0.6-0.6,1c-0.1,0.4-0.2,0.8-0.2,1.2v5.4h-2.5V59.9z"/>
	<path fill="#FFFFFF" d="M52.1,71.3c-0.2,0.5-0.4,0.9-0.6,1.3c-0.2,0.4-0.5,0.6-0.8,0.9c-0.3,0.2-0.6,0.4-0.9,0.5
		c-0.3,0.1-0.7,0.2-1,0.2c-1,0-1.9-0.4-2.7-1.2l1.2-2.1c0.1,0,0.1,0.1,0.2,0.1c0,0.1,0.1,0.1,0.1,0.2c0,0.1,0,0.1,0.1,0.2
		c0,0.1,0.1,0.2,0.1,0.2c0.1,0.2,0.2,0.3,0.4,0.4c0.1,0.1,0.3,0.1,0.6,0.1c0.2,0,0.3,0,0.5-0.1s0.3-0.2,0.4-0.3
		c0.1-0.2,0.3-0.4,0.4-0.6c0.1-0.3,0.3-0.6,0.4-1l-3.9-10.2h3c0,0.1,0,0.1,0,0.2c0,0.1,0,0.1-0.1,0.2c0,0.1,0,0.1-0.1,0.2
		s0,0.1,0,0.2l2.3,6.4l1-2.7c0.1-0.4,0.3-0.7,0.4-1.1c0.1-0.4,0.2-0.8,0.4-1.2c0.1-0.4,0.2-0.7,0.3-1.1c0.1-0.4,0.2-0.7,0.2-1h2.4
		c-0.2,0.7-0.4,1.5-0.7,2.3c-0.3,0.8-0.6,1.6-0.9,2.4L52.1,71.3z"/>
	<path fill="#FFFFFF" d="M60.6,57.4l2.7-0.5c0,0.2,0,0.3-0.1,0.5c-0.1,0.1-0.1,0.3-0.2,0.4l-0.2,2h3.1v2h-3.2c0,0.5-0.1,1.1-0.1,1.6
		c0,0.6-0.1,1.1-0.1,1.7c0,0.6,0,1,0,1.4c0,0.4,0.1,0.7,0.2,1c0.1,0.3,0.2,0.4,0.4,0.6c0.2,0.1,0.4,0.2,0.6,0.2c0.2,0,0.6-0.1,1-0.3
		c0.4-0.2,0.9-0.5,1.4-0.9l0.8,2c-0.6,0.4-1.2,0.8-1.8,1c-0.6,0.2-1.2,0.4-1.7,0.4c-0.6,0-1.1-0.1-1.5-0.2c-0.4-0.2-0.8-0.4-1-0.8
		c-0.3-0.3-0.5-0.8-0.6-1.3c-0.1-0.5-0.2-1.2-0.2-1.9c0-0.5,0-1.1,0-1.8c0-0.7,0.1-1.6,0.2-2.6H58v-2h2.4L60.6,57.4z"/>
	<path fill="#FFFFFF" d="M69.2,70.1V55.3H72c0,0.1,0,0.2,0,0.2c0,0.1-0.1,0.1-0.1,0.1c0,0-0.1,0.1-0.1,0.1c0,0-0.1,0.1-0.1,0.2v5
		c0.4-0.4,0.8-0.7,1.2-0.9c0.5-0.2,1-0.3,1.4-0.3c0.5,0,1,0.1,1.4,0.2c0.4,0.2,0.8,0.4,1.1,0.7c0.3,0.3,0.5,0.8,0.7,1.3
		c0.2,0.5,0.2,1.2,0.2,2v6.2h-2.4v-6.2c0-0.4,0-0.7-0.1-1c-0.1-0.3-0.2-0.5-0.3-0.7c-0.1-0.2-0.3-0.3-0.5-0.4
		c-0.2-0.1-0.4-0.1-0.6-0.1c-0.3,0-0.6,0.1-0.9,0.2c-0.3,0.1-0.5,0.3-0.7,0.5c-0.2,0.2-0.4,0.5-0.5,0.8c-0.1,0.3-0.2,0.7-0.2,1v6
		H69.2z"/>
	<path fill="#FFFFFF" d="M81.1,59.9h4.8v8.4h2.3v1.9H81v-1.9h2.5v-6.5h-2.4V59.9z M84.7,55.2c0.2,0,0.4,0,0.6,0.1
		c0.2,0.1,0.4,0.2,0.5,0.3c0.1,0.1,0.3,0.3,0.3,0.4c0.1,0.2,0.1,0.4,0.1,0.5c0,0.2,0,0.4-0.1,0.5c-0.1,0.2-0.2,0.3-0.3,0.5
		c-0.1,0.1-0.3,0.2-0.5,0.3c-0.2,0.1-0.4,0.1-0.6,0.1c-0.2,0-0.4,0-0.6-0.1s-0.4-0.2-0.5-0.3c-0.1-0.1-0.3-0.3-0.3-0.5
		c-0.1-0.2-0.1-0.4-0.1-0.5c0-0.2,0-0.3,0.1-0.5c0.1-0.2,0.2-0.3,0.3-0.5c0.1-0.1,0.3-0.2,0.5-0.3C84.2,55.3,84.5,55.2,84.7,55.2z"
		/>
	<path fill="#FFFFFF" d="M91.2,70.1V59.9h2.5v1.1c0.4-0.4,0.8-0.7,1.2-0.9c0.5-0.2,1-0.3,1.4-0.3c0.5,0,1,0.1,1.4,0.2
		c0.4,0.2,0.8,0.4,1.1,0.7c0.3,0.3,0.5,0.8,0.7,1.3c0.2,0.5,0.2,1.2,0.2,2v6.2h-2.4v-6.2c0-0.4,0-0.7-0.1-1
		c-0.1-0.3-0.2-0.5-0.3-0.7c-0.1-0.2-0.3-0.3-0.5-0.4c-0.2-0.1-0.4-0.1-0.6-0.1c-0.3,0-0.6,0.1-0.9,0.2c-0.3,0.1-0.5,0.3-0.7,0.5
		c-0.2,0.2-0.4,0.5-0.5,0.8c-0.1,0.3-0.2,0.7-0.2,1v6H91.2z"/>
	<path fill="#FFFFFF" d="M106.1,59.5c0.9,0,1.7,0.2,2.3,0.7c0.3-0.2,0.7-0.4,1-0.5c0.4-0.1,0.8-0.2,1.2-0.2h0.7l0.3,2.1
		c-0.1,0-0.3,0-0.4-0.1c-0.1,0-0.3,0-0.4,0c-0.1,0-0.2,0-0.3,0s-0.1,0-0.1,0c-0.3,0-0.6,0.1-0.9,0.2c0.1,0.2,0.2,0.5,0.3,0.7
		c0.1,0.2,0.1,0.5,0.1,0.7c0,0.5-0.1,0.9-0.3,1.4c-0.2,0.4-0.5,0.8-0.8,1.1c-0.4,0.3-0.8,0.6-1.2,0.8c-0.5,0.2-1,0.3-1.5,0.3
		c-0.1,0-0.3,0-0.4,0c-0.2,0-0.3,0-0.5-0.1c-0.2,0.1-0.4,0.3-0.5,0.4c-0.1,0.1-0.2,0.3-0.2,0.4c0,0.2,0.1,0.3,0.3,0.4
		c0.2,0.1,0.5,0.1,0.8,0.1c0.3,0,0.5,0,0.8,0c0.3,0,0.5,0,0.7,0c0.7,0,1.3,0.1,1.8,0.2c0.5,0.1,0.9,0.3,1.2,0.6
		c0.3,0.2,0.5,0.5,0.7,0.9c0.1,0.3,0.2,0.7,0.2,1.1c0,0.4-0.1,0.8-0.3,1.2c-0.2,0.4-0.5,0.7-0.9,1c-0.4,0.3-0.9,0.6-1.5,0.7
		c-0.6,0.2-1.3,0.3-2.1,0.3c-0.8,0-1.5-0.1-2.1-0.2c-0.6-0.1-1.1-0.3-1.5-0.6c-0.4-0.2-0.7-0.5-0.8-0.8c-0.2-0.3-0.3-0.7-0.3-1
		c0-0.2,0-0.4,0.1-0.6c0.1-0.2,0.2-0.4,0.3-0.6c0.1-0.2,0.3-0.3,0.4-0.5c0.2-0.2,0.3-0.3,0.5-0.4c-0.3-0.2-0.4-0.4-0.5-0.6
		c-0.1-0.2-0.1-0.5-0.1-0.7c0-0.3,0.1-0.7,0.4-1c0.2-0.4,0.5-0.7,0.9-1c-0.2-0.1-0.4-0.3-0.6-0.5c-0.2-0.2-0.3-0.4-0.4-0.6
		c-0.1-0.2-0.2-0.5-0.3-0.7c-0.1-0.3-0.1-0.5-0.1-0.8c0-0.5,0.1-1,0.3-1.5c0.2-0.5,0.5-0.8,0.9-1.2c0.4-0.3,0.8-0.6,1.3-0.8
		C105.1,59.6,105.6,59.5,106.1,59.5z M107.5,69.9c-0.5,0-1,0-1.5,0c-0.5,0-0.9,0-1.4-0.1c-0.3,0.2-0.5,0.3-0.6,0.6
		c-0.1,0.2-0.2,0.4-0.2,0.6c0,0.2,0.1,0.4,0.2,0.5c0.1,0.1,0.3,0.3,0.5,0.3c0.2,0.1,0.5,0.2,0.8,0.2c0.3,0,0.6,0.1,1,0.1
		c0.4,0,0.7,0,1-0.1c0.3-0.1,0.5-0.1,0.8-0.3c0.2-0.1,0.4-0.2,0.5-0.4c0.1-0.2,0.2-0.3,0.2-0.5c0-0.3-0.1-0.5-0.3-0.7
		C108.3,70,108,69.9,107.5,69.9z M106,61.4c-0.2,0-0.4,0-0.6,0.1c-0.2,0.1-0.4,0.2-0.5,0.3c-0.1,0.1-0.3,0.3-0.3,0.5
		s-0.1,0.5-0.1,0.7c0,0.2,0,0.4,0.1,0.6c0.1,0.2,0.2,0.4,0.3,0.5c0.1,0.2,0.3,0.3,0.5,0.4c0.2,0.1,0.4,0.1,0.7,0.1
		c0.3,0,0.5,0,0.7-0.1c0.2-0.1,0.4-0.2,0.5-0.4c0.1-0.2,0.2-0.3,0.3-0.5c0.1-0.2,0.1-0.4,0.1-0.6c0-0.2,0-0.4-0.1-0.7
		s-0.2-0.4-0.3-0.5c-0.1-0.2-0.3-0.3-0.5-0.4C106.5,61.5,106.3,61.4,106,61.4z"/>
	<path fill="#FFFFFF" d="M122.5,59.9h4.8v8.4h2.3v1.9h-7.2v-1.9h2.5v-6.5h-2.4V59.9z M126.2,55.2c0.2,0,0.4,0,0.6,0.1
		c0.2,0.1,0.3,0.2,0.5,0.3c0.1,0.1,0.3,0.3,0.3,0.4c0.1,0.2,0.1,0.4,0.1,0.5c0,0.2,0,0.4-0.1,0.5c-0.1,0.2-0.2,0.3-0.3,0.5
		c-0.1,0.1-0.3,0.2-0.5,0.3c-0.2,0.1-0.4,0.1-0.6,0.1c-0.2,0-0.4,0-0.6-0.1c-0.2-0.1-0.4-0.2-0.5-0.3c-0.1-0.1-0.3-0.3-0.3-0.5
		c-0.1-0.2-0.1-0.4-0.1-0.5c0-0.2,0-0.3,0.1-0.5c0.1-0.2,0.2-0.3,0.3-0.5c0.1-0.1,0.3-0.2,0.5-0.3C125.7,55.3,125.9,55.2,126.2,55.2
		z"/>
	<path fill="#FFFFFF" d="M139.9,63.2c-0.1,0-0.1,0-0.1,0c0,0-0.1-0.1-0.1-0.1c0,0,0-0.1,0-0.2c0-0.1,0-0.1-0.1-0.1
		c-0.1-0.2-0.3-0.3-0.5-0.5c-0.2-0.1-0.4-0.3-0.6-0.4s-0.5-0.2-0.7-0.3c-0.3-0.1-0.5-0.1-0.8-0.1c-0.2,0-0.4,0-0.6,0
		c-0.2,0-0.4,0.1-0.5,0.2c-0.2,0.1-0.3,0.2-0.4,0.3c-0.1,0.1-0.1,0.3-0.1,0.4c0,0.2,0,0.3,0.1,0.5s0.2,0.2,0.4,0.3
		c0.2,0.1,0.4,0.2,0.7,0.3c0.3,0.1,0.6,0.2,1,0.3c1.2,0.3,2.1,0.8,2.7,1.3c0.6,0.5,0.9,1.2,0.9,1.9c0,0.5-0.1,0.9-0.3,1.3
		c-0.2,0.4-0.5,0.8-0.9,1.1c-0.4,0.3-0.8,0.6-1.4,0.8c-0.5,0.2-1.1,0.3-1.8,0.3c-0.9,0-1.7-0.1-2.4-0.4c-0.7-0.3-1.4-0.7-2.1-1.3
		l1.3-2.3c0.1,0,0.2,0.1,0.2,0.2c0,0.1,0.1,0.2,0.2,0.4c0.1,0.2,0.3,0.4,0.5,0.5c0.2,0.2,0.5,0.3,0.7,0.5c0.3,0.1,0.5,0.3,0.8,0.3
		c0.3,0.1,0.6,0.1,0.8,0.1c0.6,0,1-0.1,1.4-0.3c0.3-0.2,0.5-0.4,0.5-0.8c0-0.2,0-0.3-0.1-0.5s-0.2-0.2-0.3-0.4
		c-0.2-0.1-0.4-0.2-0.6-0.3c-0.3-0.1-0.6-0.2-0.9-0.3c-0.2-0.1-0.4-0.1-0.6-0.2c-0.2-0.1-0.4-0.1-0.6-0.2c-0.4-0.2-0.8-0.3-1.1-0.5
		c-0.3-0.2-0.6-0.4-0.8-0.6c-0.2-0.2-0.4-0.5-0.5-0.8c-0.1-0.3-0.2-0.6-0.2-1c0-0.4,0.1-0.7,0.3-1.1c0.2-0.4,0.5-0.7,0.8-1
		s0.8-0.5,1.3-0.7c0.5-0.2,1-0.3,1.6-0.3c0.8,0,1.5,0.1,2.2,0.4c0.7,0.3,1.3,0.7,1.8,1.4L139.9,63.2z"/>
	<path fill="#FFFFFF" d="M13,87.8c1.1-1.1,2.4-1.7,3.9-1.7c0.7,0,1.2,0.1,1.8,0.2c0.5,0.2,1,0.4,1.3,0.8c0.4,0.3,0.6,0.8,0.8,1.3
		c0.2,0.5,0.3,1.2,0.3,1.9v6.3h-2.4v-0.9c-0.4,0.4-0.8,0.7-1.4,0.9c-0.5,0.2-1.1,0.3-1.6,0.3c-0.6,0-1.1-0.1-1.6-0.2
		c-0.4-0.2-0.8-0.4-1.1-0.7c-0.3-0.3-0.5-0.6-0.6-1c-0.1-0.4-0.2-0.8-0.2-1.2c0-0.5,0.1-1,0.3-1.5c0.2-0.4,0.6-0.8,1-1.1
		c0.4-0.3,1-0.6,1.6-0.7c0.6-0.2,1.4-0.3,2.2-0.3h1.3c0-0.8-0.2-1.3-0.5-1.7C18,88.2,17.5,88,16.9,88c-0.8,0-1.7,0.5-2.6,1.4
		L13,87.8z M17.9,92.1c-0.6,0-1.2,0-1.6,0.1c-0.4,0.1-0.7,0.2-1,0.4c-0.2,0.2-0.4,0.3-0.5,0.5c-0.1,0.2-0.1,0.4-0.1,0.6
		c0,0.2,0,0.3,0.1,0.5c0.1,0.2,0.2,0.3,0.3,0.4c0.1,0.1,0.3,0.2,0.5,0.3C15.8,95,16,95,16.2,95c0.3,0,0.6-0.1,0.9-0.2
		c0.3-0.1,0.5-0.3,0.7-0.4c0.2-0.2,0.4-0.3,0.5-0.5c0.1-0.2,0.2-0.3,0.3-0.5c0.1-0.1,0.1-0.3,0.1-0.5c0-0.2,0-0.5,0-0.8L17.9,92.1z"
		/>
	<path fill="#FFFFFF" d="M23.7,96.6V86.3h2.5v1.1c0.4-0.4,0.8-0.7,1.2-0.9c0.5-0.2,1-0.3,1.4-0.3c0.5,0,1,0.1,1.4,0.2
		c0.4,0.2,0.8,0.4,1.1,0.7c0.3,0.3,0.5,0.8,0.7,1.3c0.2,0.5,0.2,1.2,0.2,2v6.2h-2.4v-6.2c0-0.4,0-0.7-0.1-1
		c-0.1-0.3-0.2-0.5-0.3-0.7c-0.1-0.2-0.3-0.3-0.5-0.4c-0.2-0.1-0.4-0.1-0.6-0.1c-0.3,0-0.6,0.1-0.9,0.2c-0.3,0.1-0.5,0.3-0.7,0.5
		c-0.2,0.2-0.4,0.5-0.5,0.8c-0.1,0.3-0.2,0.7-0.2,1v6H23.7z"/>
	<path fill="#FFFFFF" d="M50.1,86.1c0.6,0,1.2,0.1,1.7,0.3c0.5,0.2,1,0.5,1.4,1c0.4,0.4,0.7,0.9,0.9,1.6c0.2,0.6,0.3,1.4,0.3,2.2
		c0,0.2,0,0.4,0,0.5c0,0.2,0,0.3,0,0.5h-6.7c0.1,0.5,0.2,0.9,0.3,1.3c0.2,0.4,0.4,0.6,0.6,0.9c0.2,0.2,0.5,0.4,0.8,0.5
		c0.3,0.1,0.6,0.2,0.9,0.2c0.5,0,0.9-0.1,1.4-0.3c0.4-0.2,0.8-0.5,1.2-0.9l1.4,1.4c-1,1.2-2.3,1.9-3.9,1.9c-0.7,0-1.4-0.1-2.1-0.4
		s-1.2-0.6-1.6-1.1c-0.5-0.5-0.8-1-1.1-1.7c-0.3-0.7-0.4-1.4-0.4-2.3c0-0.9,0.1-1.6,0.4-2.3c0.2-0.7,0.6-1.3,1-1.7
		c0.4-0.5,0.9-0.8,1.5-1.1C48.8,86.2,49.4,86.1,50.1,86.1z M52.1,90.3c0-0.3,0-0.6-0.1-0.9c-0.1-0.3-0.2-0.5-0.4-0.8
		c-0.2-0.2-0.4-0.4-0.6-0.5c-0.3-0.1-0.5-0.2-0.9-0.2c-0.3,0-0.6,0.1-0.8,0.2c-0.3,0.1-0.5,0.3-0.7,0.5c-0.2,0.2-0.3,0.5-0.5,0.8
		c-0.1,0.3-0.2,0.6-0.2,1H52.1z"/>
	<path fill="#FFFFFF" d="M57.1,81.7h5.2v13h2.8v1.9H57v-1.9h2.8v-11h-2.7V81.7z"/>
	<path fill="#FFFFFF" d="M72.2,86.1c0.6,0,1.2,0.1,1.7,0.3c0.5,0.2,1,0.5,1.4,1s0.7,0.9,0.9,1.6c0.2,0.6,0.3,1.4,0.3,2.2
		c0,0.2,0,0.4,0,0.5c0,0.2,0,0.3,0,0.5h-6.7c0.1,0.5,0.2,0.9,0.3,1.3c0.2,0.4,0.4,0.6,0.6,0.9c0.2,0.2,0.5,0.4,0.8,0.5
		c0.3,0.1,0.6,0.2,0.9,0.2c0.5,0,0.9-0.1,1.4-0.3c0.4-0.2,0.8-0.5,1.2-0.9l1.4,1.4c-1,1.2-2.3,1.9-3.9,1.9c-0.7,0-1.4-0.1-2.1-0.4
		c-0.6-0.2-1.2-0.6-1.6-1.1c-0.5-0.5-0.8-1-1.1-1.7c-0.3-0.7-0.4-1.4-0.4-2.3c0-0.9,0.1-1.6,0.4-2.3c0.2-0.7,0.6-1.3,1-1.7
		c0.4-0.5,0.9-0.8,1.5-1.1C70.8,86.2,71.5,86.1,72.2,86.1z M74.1,90.3c0-0.3,0-0.6-0.1-0.9c-0.1-0.3-0.2-0.5-0.4-0.8
		c-0.2-0.2-0.4-0.4-0.6-0.5c-0.3-0.1-0.5-0.2-0.9-0.2c-0.3,0-0.6,0.1-0.8,0.2s-0.5,0.3-0.7,0.5c-0.2,0.2-0.3,0.5-0.5,0.8
		c-0.1,0.3-0.2,0.6-0.2,1H74.1z"/>
	<path fill="#FFFFFF" d="M78.2,96.6V86.2h2.1v0.6c0.3-0.3,0.6-0.6,1-0.7c0.3-0.2,0.6-0.2,0.9-0.2c0.1,0,0.3,0,0.4,0.1
		c0.2,0,0.3,0.1,0.5,0.2c0.1,0.1,0.3,0.2,0.4,0.4c0.1,0.2,0.3,0.4,0.4,0.6c0.3-0.4,0.6-0.7,0.9-0.9c0.4-0.2,0.8-0.3,1.1-0.3
		c0.4,0,0.7,0.1,1,0.2c0.3,0.1,0.5,0.3,0.6,0.6c0.2,0.3,0.3,0.6,0.3,1c0.1,0.4,0.1,0.8,0.1,1.4v7.6h-2.3v-7.2c0-0.6,0-1-0.1-1.2
		c-0.1-0.2-0.3-0.4-0.5-0.4c-0.6,0-0.8,0.7-0.8,2v6.8H82v-7.1c0-0.4,0-0.7-0.1-0.9c0-0.2-0.1-0.4-0.2-0.5c-0.1-0.1-0.1-0.2-0.2-0.2
		c-0.1,0-0.2-0.1-0.2-0.1c-0.1,0-0.3,0-0.4,0.1c-0.1,0.1-0.2,0.2-0.3,0.3c-0.1,0.1-0.1,0.3-0.2,0.6c0,0.3-0.1,0.6-0.1,1v6.8H78.2z"
		/>
	<path fill="#FFFFFF" d="M94.2,86.1c0.6,0,1.2,0.1,1.7,0.3c0.5,0.2,1,0.5,1.4,1c0.4,0.4,0.7,0.9,0.9,1.6c0.2,0.6,0.3,1.4,0.3,2.2
		c0,0.2,0,0.4,0,0.5c0,0.2,0,0.3,0,0.5h-6.7c0.1,0.5,0.2,0.9,0.3,1.3c0.2,0.4,0.4,0.6,0.6,0.9c0.2,0.2,0.5,0.4,0.8,0.5
		c0.3,0.1,0.6,0.2,0.9,0.2c0.5,0,0.9-0.1,1.4-0.3c0.4-0.2,0.8-0.5,1.2-0.9l1.4,1.4c-1,1.2-2.3,1.9-3.9,1.9c-0.7,0-1.4-0.1-2.1-0.4
		c-0.6-0.2-1.2-0.6-1.6-1.1c-0.5-0.5-0.8-1-1.1-1.7c-0.3-0.7-0.4-1.4-0.4-2.3c0-0.9,0.1-1.6,0.4-2.3c0.2-0.7,0.6-1.3,1-1.7
		c0.4-0.5,0.9-0.8,1.5-1.1C92.9,86.2,93.5,86.1,94.2,86.1z M96.2,90.3c0-0.3,0-0.6-0.1-0.9c-0.1-0.3-0.2-0.5-0.4-0.8
		c-0.2-0.2-0.4-0.4-0.6-0.5c-0.3-0.1-0.5-0.2-0.9-0.2c-0.3,0-0.6,0.1-0.8,0.2c-0.3,0.1-0.5,0.3-0.7,0.5c-0.2,0.2-0.3,0.5-0.5,0.8
		c-0.1,0.3-0.2,0.6-0.2,1H96.2z"/>
	<path fill="#FFFFFF" d="M100.9,96.6V86.3h2.5v1.1c0.4-0.4,0.8-0.7,1.2-0.9c0.5-0.2,1-0.3,1.4-0.3c0.5,0,1,0.1,1.4,0.2
		c0.4,0.2,0.8,0.4,1.1,0.7c0.3,0.3,0.5,0.8,0.7,1.3c0.2,0.5,0.2,1.2,0.2,2v6.2h-2.4v-6.2c0-0.4,0-0.7-0.1-1s-0.2-0.5-0.3-0.7
		c-0.1-0.2-0.3-0.3-0.5-0.4c-0.2-0.1-0.4-0.1-0.6-0.1c-0.3,0-0.6,0.1-0.9,0.2c-0.3,0.1-0.5,0.3-0.7,0.5c-0.2,0.2-0.4,0.5-0.5,0.8
		c-0.1,0.3-0.2,0.7-0.2,1v6H100.9z"/>
	<path fill="#FFFFFF" d="M114.3,83.9l2.7-0.5c0,0.2,0,0.3-0.1,0.5c-0.1,0.1-0.1,0.3-0.2,0.4l-0.2,2h3.1v2h-3.2
		c0,0.5-0.1,1.1-0.1,1.6c0,0.6-0.1,1.1-0.1,1.7c0,0.6,0,1,0,1.4c0,0.4,0.1,0.7,0.2,1s0.2,0.4,0.4,0.6c0.2,0.1,0.4,0.2,0.6,0.2
		c0.2,0,0.6-0.1,1-0.3c0.4-0.2,0.9-0.5,1.4-0.9l0.8,2c-0.6,0.4-1.2,0.8-1.8,1c-0.6,0.2-1.1,0.4-1.7,0.4c-0.6,0-1.1-0.1-1.5-0.2
		c-0.4-0.2-0.8-0.4-1-0.8c-0.3-0.3-0.5-0.8-0.6-1.3c-0.1-0.5-0.2-1.2-0.2-1.9c0-0.5,0-1.1,0-1.8c0-0.7,0.1-1.6,0.2-2.6h-2.2v-2h2.4
		L114.3,83.9z"/>
	<path fill="#FFFFFF" d="M126.9,93.9c0.2,0,0.4,0,0.6,0.1c0.2,0.1,0.4,0.2,0.5,0.4c0.2,0.1,0.3,0.3,0.4,0.5s0.1,0.4,0.1,0.5
		c0,0.2,0,0.4-0.1,0.6c-0.1,0.2-0.2,0.3-0.4,0.5c-0.2,0.1-0.3,0.2-0.5,0.3c-0.2,0.1-0.4,0.1-0.6,0.1c-0.2,0-0.4,0-0.6-0.1
		c-0.2-0.1-0.4-0.2-0.5-0.3c-0.1-0.1-0.3-0.3-0.3-0.5c-0.1-0.2-0.1-0.4-0.1-0.6c0-0.2,0-0.4,0.1-0.6c0.1-0.2,0.2-0.3,0.4-0.5
		c0.2-0.1,0.3-0.2,0.5-0.3C126.5,93.9,126.7,93.9,126.9,93.9z"/>
</g>
</svg>
