<?xml version="1.0" encoding="utf-8"?>
<!-- Generator: Adobe Illustrator 17.1.0, SVG Export Plug-In . SVG Version: 6.00 Build 0)  -->
<!DOCTYPE svg PUBLIC "-//W3C//DTD SVG 1.1//EN" "http://www.w3.org/Graphics/SVG/1.1/DTD/svg11.dtd">
<svg version="1.1" id="Layer_1" xmlns="http://www.w3.org/2000/svg" xmlns:xlink="http://www.w3.org/1999/xlink" x="0px" y="0px"
	 viewBox="0 0 144 144" enable-background="new 0 0 144 144" xml:space="preserve">
<g opacity="0.8">
	<g>
		<path fill="#FFFFFF" d="M45.3,102.5c-1.9,0-3.4-1.5-3.4-3.4s1.5-3.4,3.4-3.4c1.9,0,3.4,1.5,3.4,3.4S47.2,102.5,45.3,102.5z
			 M45.3,96.3c-1.6,0-2.9,1.3-2.9,2.9s1.3,2.9,2.9,2.9c1.6,0,2.9-1.3,2.9-2.9S46.9,96.3,45.3,96.3z"/>
	</g>
	<g>
		<path fill="#FFFFFF" d="M29,75.1c-1.4,0-2.6-1.2-2.6-2.6s1.2-2.6,2.6-2.6s2.6,1.2,2.6,2.6S30.4,75.1,29,75.1z M29,70.4
			c-1.1,0-2.1,0.9-2.1,2.1s0.9,2.1,2.1,2.1c1.1,0,2.1-0.9,2.1-2.1S30.1,70.4,29,70.4z"/>
	</g>
	<g>
		<g>
			<path fill="#FFFFFF" d="M0.7,64.8c-0.2,0-0.4-0.1-0.5-0.3l-0.2-0.3C-0.1,64,0,63.7,0.3,63.5c0.2-0.1,0.6-0.1,0.7,0.2L1.1,64
				c0.1,0.2,0.1,0.6-0.2,0.7C0.9,64.8,0.8,64.8,0.7,64.8z"/>
		</g>
		<g>
			<path fill="#FFFFFF" d="M35.3,125c-0.2,0-0.4-0.1-0.5-0.3l-0.3-0.6c-0.1-0.2-0.1-0.6,0.2-0.7c0.2-0.1,0.6-0.1,0.7,0.2l0.3,0.6
				c0.1,0.2,0.1,0.6-0.2,0.7C35.5,125,35.4,125,35.3,125z M33.7,122.3c-0.2,0-0.4-0.1-0.5-0.3l-0.3-0.6c-0.1-0.2-0.1-0.6,0.2-0.7
				c0.2-0.1,0.6-0.1,0.7,0.2l0.3,0.6c0.1,0.2,0.1,0.6-0.2,0.7C33.9,122.3,33.8,122.3,33.7,122.3z M32.1,119.5
				c-0.2,0-0.4-0.1-0.5-0.3l-0.3-0.6c-0.1-0.2-0.1-0.6,0.2-0.7c0.3-0.1,0.6-0.1,0.7,0.2l0.3,0.6c0.1,0.2,0.1,0.6-0.2,0.7
				C32.3,119.5,32.2,119.5,32.1,119.5z M30.6,116.8c-0.2,0-0.4-0.1-0.5-0.3l-0.3-0.6c-0.1-0.2-0.1-0.6,0.2-0.7
				c0.2-0.1,0.6-0.1,0.7,0.2L31,116c0.1,0.2,0.1,0.6-0.2,0.7C30.8,116.8,30.7,116.8,30.6,116.8z M29,114.1c-0.2,0-0.4-0.1-0.5-0.3
				l-0.3-0.6c-0.1-0.2-0.1-0.6,0.2-0.7c0.2-0.1,0.6-0.1,0.7,0.2l0.3,0.6c0.1,0.2,0.1,0.6-0.2,0.7C29.2,114.1,29.1,114.1,29,114.1z
				 M27.4,111.3c-0.2,0-0.4-0.1-0.5-0.3l-0.3-0.6c-0.1-0.2-0.1-0.6,0.2-0.7c0.2-0.1,0.6-0.1,0.7,0.2l0.3,0.6
				c0.1,0.2,0.1,0.6-0.2,0.7C27.6,111.3,27.5,111.3,27.4,111.3z M25.9,108.6c-0.2,0-0.4-0.1-0.5-0.3l-0.3-0.6
				c-0.1-0.2-0.1-0.6,0.2-0.7c0.3-0.1,0.6-0.1,0.7,0.2l0.3,0.6c0.1,0.2,0.1,0.6-0.2,0.7C26,108.6,25.9,108.6,25.9,108.6z
				 M24.3,105.9c-0.2,0-0.4-0.1-0.5-0.3l-0.3-0.6c-0.1-0.2-0.1-0.6,0.2-0.7c0.2-0.1,0.6-0.1,0.7,0.2l0.3,0.6
				c0.1,0.2,0.1,0.6-0.2,0.7C24.5,105.8,24.4,105.9,24.3,105.9z M22.7,103.1c-0.2,0-0.4-0.1-0.5-0.3l-0.3-0.6
				c-0.1-0.2-0.1-0.6,0.2-0.7c0.2-0.1,0.6-0.1,0.7,0.2l0.3,0.6c0.1,0.2,0.1,0.6-0.2,0.7C22.9,103.1,22.8,103.1,22.7,103.1z
				 M21.1,100.4c-0.2,0-0.4-0.1-0.5-0.3l-0.3-0.6c-0.1-0.2-0.1-0.6,0.2-0.7c0.3-0.1,0.6-0.1,0.7,0.2l0.3,0.6
				c0.1,0.2,0.1,0.6-0.2,0.7C21.3,100.4,21.2,100.4,21.1,100.4z M19.6,97.6c-0.2,0-0.4-0.1-0.5-0.3l-0.3-0.6
				c-0.1-0.2-0.1-0.6,0.2-0.7c0.2-0.1,0.6-0.1,0.7,0.2l0.3,0.6c0.1,0.2,0.1,0.6-0.2,0.7C19.7,97.6,19.7,97.6,19.6,97.6z M18,94.9
				c-0.2,0-0.4-0.1-0.5-0.3l-0.3-0.6c-0.1-0.2-0.1-0.6,0.2-0.7c0.2-0.1,0.6-0.1,0.7,0.2l0.3,0.6c0.1,0.2,0.1,0.6-0.2,0.7
				C18.2,94.9,18.1,94.9,18,94.9z M16.4,92.2c-0.2,0-0.4-0.1-0.5-0.3l-0.3-0.6c-0.1-0.2-0.1-0.6,0.2-0.7c0.2-0.1,0.6-0.1,0.7,0.2
				l0.3,0.6c0.1,0.2,0.1,0.6-0.2,0.7C16.6,92.1,16.5,92.2,16.4,92.2z M14.8,89.4c-0.2,0-0.4-0.1-0.5-0.3l-0.3-0.6
				c-0.1-0.2-0.1-0.6,0.2-0.7c0.3-0.1,0.6-0.1,0.7,0.2l0.3,0.6c0.1,0.2,0.1,0.6-0.2,0.7C15,89.4,14.9,89.4,14.8,89.4z M13.3,86.7
				c-0.2,0-0.4-0.1-0.5-0.3l-0.3-0.6c-0.1-0.2-0.1-0.6,0.2-0.7c0.2-0.1,0.6-0.1,0.7,0.2l0.3,0.6c0.1,0.2,0.1,0.6-0.2,0.7
				C13.5,86.7,13.4,86.7,13.3,86.7z M11.7,84c-0.2,0-0.4-0.1-0.5-0.3l-0.3-0.6c-0.1-0.2-0.1-0.6,0.2-0.7c0.2-0.1,0.6-0.1,0.7,0.2
				l0.3,0.6c0.1,0.2,0.1,0.6-0.2,0.7C11.9,83.9,11.8,84,11.7,84z M10.1,81.2c-0.2,0-0.4-0.1-0.5-0.3l-0.3-0.6
				c-0.1-0.2-0.1-0.6,0.2-0.7c0.3-0.1,0.6-0.1,0.7,0.2l0.3,0.6c0.1,0.2,0.1,0.6-0.2,0.7C10.3,81.2,10.2,81.2,10.1,81.2z M8.6,78.5
				c-0.2,0-0.4-0.1-0.5-0.3l-0.3-0.6c-0.1-0.2-0.1-0.6,0.2-0.7c0.2-0.1,0.6-0.1,0.7,0.2L9,77.7c0.1,0.2,0.1,0.6-0.2,0.7
				C8.7,78.5,8.6,78.5,8.6,78.5z M7,75.7c-0.2,0-0.4-0.1-0.5-0.3l-0.3-0.6c-0.1-0.2-0.1-0.6,0.2-0.7C6.6,74,7,74.1,7.1,74.4L7.4,75
				c0.1,0.2,0.1,0.6-0.2,0.7C7.2,75.7,7.1,75.7,7,75.7z M5.4,73c-0.2,0-0.4-0.1-0.5-0.3l-0.3-0.6c-0.1-0.2-0.1-0.6,0.2-0.7
				c0.2-0.1,0.6-0.1,0.7,0.2l0.3,0.6c0.1,0.2,0.1,0.6-0.2,0.7C5.6,73,5.5,73,5.4,73z M3.8,70.3c-0.2,0-0.4-0.1-0.5-0.3L3,69.4
				c-0.1-0.2-0.1-0.6,0.2-0.7c0.2-0.1,0.6-0.1,0.7,0.2l0.3,0.6c0.1,0.2,0.1,0.6-0.2,0.7C4,70.2,3.9,70.3,3.8,70.3z M2.3,67.5
				c-0.2,0-0.4-0.1-0.5-0.3l-0.3-0.6c-0.1-0.2-0.1-0.6,0.2-0.7c0.2-0.1,0.6-0.1,0.7,0.2l0.3,0.6c0.1,0.2,0.1,0.6-0.2,0.7
				C2.4,67.5,2.4,67.5,2.3,67.5z"/>
		</g>
		<g>
			<path fill="#FFFFFF" d="M36.7,127.5c-0.2,0-0.4-0.1-0.5-0.3l-0.2-0.3c-0.1-0.2-0.1-0.6,0.2-0.7c0.3-0.1,0.6-0.1,0.7,0.2l0.2,0.3
				c0.1,0.2,0.1,0.6-0.2,0.7C36.9,127.5,36.8,127.5,36.7,127.5z"/>
		</g>
	</g>
	<g>
		<g>
			<path fill="#FFFFFF" d="M15.8,45.1c-0.2,0-0.4-0.1-0.5-0.3l-0.2-0.3c-0.1-0.2-0.1-0.6,0.2-0.7c0.2-0.1,0.6-0.1,0.7,0.2l0.2,0.3
				c0.1,0.2,0.1,0.6-0.2,0.7C16,45.1,15.9,45.1,15.8,45.1z"/>
		</g>
		<g>
			<path fill="#FFFFFF" d="M61.7,125.1c-0.2,0-0.4-0.1-0.5-0.3l-0.3-0.6c-0.1-0.2-0.1-0.6,0.2-0.7c0.2-0.1,0.6-0.1,0.7,0.2l0.3,0.6
				c0.1,0.2,0.1,0.6-0.2,0.7C61.9,125,61.8,125.1,61.7,125.1z M60.2,122.3c-0.2,0-0.4-0.1-0.5-0.3l-0.3-0.6
				c-0.1-0.2-0.1-0.6,0.2-0.7c0.2-0.1,0.6-0.1,0.7,0.2l0.3,0.6c0.1,0.2,0.1,0.6-0.2,0.7C60.3,122.3,60.2,122.3,60.2,122.3z
				 M58.6,119.5c-0.2,0-0.4-0.1-0.5-0.3l-0.3-0.6c-0.1-0.2-0.1-0.6,0.2-0.7c0.3-0.1,0.6-0.1,0.7,0.2l0.3,0.6
				c0.1,0.2,0.1,0.6-0.2,0.7C58.7,119.5,58.7,119.5,58.6,119.5z M57,116.8c-0.2,0-0.4-0.1-0.5-0.3l-0.3-0.6
				c-0.1-0.2-0.1-0.6,0.2-0.7c0.2-0.1,0.6-0.1,0.7,0.2l0.3,0.6c0.1,0.2,0.1,0.6-0.2,0.7C57.2,116.8,57.1,116.8,57,116.8z M55.4,114
				c-0.2,0-0.4-0.1-0.5-0.3l-0.3-0.6c-0.1-0.2-0.1-0.6,0.2-0.7c0.3-0.1,0.6-0.1,0.7,0.2l0.3,0.6c0.1,0.2,0.1,0.6-0.2,0.7
				C55.6,114,55.5,114,55.4,114z M53.8,111.3c-0.2,0-0.4-0.1-0.5-0.3l-0.3-0.6c-0.1-0.2-0.1-0.6,0.2-0.7c0.2-0.1,0.6-0.1,0.7,0.2
				l0.3,0.6c0.1,0.2,0.1,0.6-0.2,0.7C54,111.2,53.9,111.3,53.8,111.3z M52.2,108.5c-0.2,0-0.4-0.1-0.5-0.3l-0.3-0.6
				c-0.1-0.2-0.1-0.6,0.2-0.7c0.3-0.1,0.6-0.1,0.7,0.2l0.3,0.6c0.1,0.2,0.1,0.6-0.2,0.7C52.4,108.5,52.3,108.5,52.2,108.5z
				 M50.7,105.7c-0.2,0-0.4-0.1-0.5-0.3l-0.3-0.6c-0.1-0.2-0.1-0.6,0.2-0.7c0.2-0.1,0.6-0.1,0.7,0.2l0.3,0.6
				c0.1,0.2,0.1,0.6-0.2,0.7C50.8,105.7,50.7,105.7,50.7,105.7z M49.1,103c-0.2,0-0.4-0.1-0.5-0.3l-0.3-0.6
				c-0.1-0.2-0.1-0.6,0.2-0.7c0.3-0.1,0.6-0.1,0.7,0.2l0.3,0.6c0.1,0.2,0.1,0.6-0.2,0.7C49.2,103,49.2,103,49.1,103z M47.5,100.2
				c-0.2,0-0.4-0.1-0.5-0.3l-0.3-0.6c-0.1-0.2-0.1-0.6,0.2-0.7c0.3-0.1,0.6-0.1,0.7,0.2l0.3,0.6c0.1,0.2,0.1,0.6-0.2,0.7
				C47.7,100.2,47.6,100.2,47.5,100.2z M45.9,97.5c-0.2,0-0.4-0.1-0.5-0.3l-0.3-0.6c-0.1-0.2-0.1-0.6,0.2-0.7
				c0.2-0.1,0.6-0.1,0.7,0.2l0.3,0.6c0.1,0.2,0.1,0.6-0.2,0.7C46.1,97.5,46,97.5,45.9,97.5z M44.3,94.7c-0.2,0-0.4-0.1-0.5-0.3
				l-0.3-0.6c-0.1-0.2-0.1-0.6,0.2-0.7c0.3-0.1,0.6-0.1,0.7,0.2l0.3,0.6c0.1,0.2,0.1,0.6-0.2,0.7C44.5,94.7,44.4,94.7,44.3,94.7z
				 M42.7,92c-0.2,0-0.4-0.1-0.5-0.3l-0.3-0.6c-0.1-0.2-0.1-0.6,0.2-0.7c0.2-0.1,0.6-0.1,0.7,0.2l0.3,0.6c0.1,0.2,0.1,0.6-0.2,0.7
				C42.9,91.9,42.8,92,42.7,92z M41.1,89.2c-0.2,0-0.4-0.1-0.5-0.3l-0.3-0.6c-0.1-0.2-0.1-0.6,0.2-0.7c0.3-0.1,0.6-0.1,0.7,0.2
				l0.3,0.6c0.1,0.2,0.1,0.6-0.2,0.7C41.3,89.2,41.2,89.2,41.1,89.2z M39.6,86.4c-0.2,0-0.4-0.1-0.5-0.3l-0.3-0.6
				c-0.1-0.2-0.1-0.6,0.2-0.7c0.2-0.1,0.6-0.1,0.7,0.2l0.3,0.6c0.1,0.2,0.1,0.6-0.2,0.7C39.7,86.4,39.7,86.4,39.6,86.4z M38,83.7
				c-0.2,0-0.4-0.1-0.5-0.3l-0.3-0.6c-0.1-0.2-0.1-0.6,0.2-0.7c0.2-0.1,0.6-0.1,0.7,0.2l0.3,0.6c0.1,0.2,0.1,0.6-0.2,0.7
				C38.2,83.7,38.1,83.7,38,83.7z M36.4,80.9c-0.2,0-0.4-0.1-0.5-0.3l-0.3-0.6c-0.1-0.2-0.1-0.6,0.2-0.7c0.2-0.1,0.6-0.1,0.7,0.2
				l0.3,0.6c0.1,0.2,0.1,0.6-0.2,0.7C36.6,80.9,36.5,80.9,36.4,80.9z M34.8,78.2c-0.2,0-0.4-0.1-0.5-0.3L34,77.3
				c-0.1-0.2-0.1-0.6,0.2-0.7c0.2-0.1,0.6-0.1,0.7,0.2l0.3,0.6c0.1,0.2,0.1,0.6-0.2,0.7C35,78.1,34.9,78.2,34.8,78.2z M33.2,75.4
				c-0.2,0-0.4-0.1-0.5-0.3l-0.3-0.6c-0.1-0.2-0.1-0.6,0.2-0.7c0.3-0.1,0.6-0.1,0.7,0.2l0.3,0.6c0.1,0.2,0.1,0.6-0.2,0.7
				C33.4,75.4,33.3,75.4,33.2,75.4z M31.6,72.7c-0.2,0-0.4-0.1-0.5-0.3l-0.3-0.6c-0.1-0.2-0.1-0.6,0.2-0.7c0.2-0.1,0.6-0.1,0.7,0.2
				l0.3,0.6c0.1,0.2,0.1,0.6-0.2,0.7C31.8,72.6,31.7,72.7,31.6,72.7z M30.1,69.9c-0.2,0-0.4-0.1-0.5-0.3L29.3,69
				c-0.1-0.2-0.1-0.6,0.2-0.7c0.2-0.1,0.6-0.1,0.7,0.2l0.3,0.6c0.1,0.2,0.1,0.6-0.2,0.7C30.2,69.9,30.1,69.9,30.1,69.9z M28.5,67.1
				c-0.2,0-0.4-0.1-0.5-0.3l-0.3-0.6c-0.1-0.2-0.1-0.6,0.2-0.7c0.2-0.1,0.6-0.1,0.7,0.2l0.3,0.6c0.1,0.2,0.1,0.6-0.2,0.7
				C28.7,67.1,28.6,67.1,28.5,67.1z M26.9,64.4c-0.2,0-0.4-0.1-0.5-0.3l-0.3-0.6C26,63.3,26,63,26.3,62.8c0.2-0.1,0.6-0.1,0.7,0.2
				l0.3,0.6c0.1,0.2,0.1,0.6-0.2,0.7C27.1,64.4,27,64.4,26.9,64.4z M25.3,61.6c-0.2,0-0.4-0.1-0.5-0.3l-0.3-0.6
				c-0.1-0.2-0.1-0.6,0.2-0.7c0.3-0.1,0.6-0.1,0.7,0.2l0.3,0.6c0.1,0.2,0.1,0.6-0.2,0.7C25.5,61.6,25.4,61.6,25.3,61.6z M23.7,58.9
				c-0.2,0-0.4-0.1-0.5-0.3L22.9,58c-0.1-0.2-0.1-0.6,0.2-0.7c0.2-0.1,0.6-0.1,0.7,0.2l0.3,0.6c0.1,0.2,0.1,0.6-0.2,0.7
				C23.9,58.8,23.8,58.9,23.7,58.9z M22.1,56.1c-0.2,0-0.4-0.1-0.5-0.3l-0.3-0.6c-0.1-0.2-0.1-0.6,0.2-0.7c0.2-0.1,0.6-0.1,0.7,0.2
				l0.3,0.6c0.1,0.2,0.1,0.6-0.2,0.7C22.3,56.1,22.2,56.1,22.1,56.1z M20.6,53.3c-0.2,0-0.4-0.1-0.5-0.3l-0.3-0.6
				c-0.1-0.2-0.1-0.6,0.2-0.7c0.2-0.1,0.6-0.1,0.7,0.2l0.3,0.6c0.1,0.2,0.1,0.6-0.2,0.7C20.7,53.3,20.6,53.3,20.6,53.3z M19,50.6
				c-0.2,0-0.4-0.1-0.5-0.3l-0.3-0.6c-0.1-0.2-0.1-0.6,0.2-0.7c0.3-0.1,0.6-0.1,0.7,0.2l0.3,0.6c0.1,0.2,0.1,0.6-0.2,0.7
				C19.2,50.6,19.1,50.6,19,50.6z M17.4,47.8c-0.2,0-0.4-0.1-0.5-0.3L16.6,47c-0.1-0.2-0.1-0.6,0.2-0.7c0.3-0.1,0.6-0.1,0.7,0.2
				l0.3,0.6c0.1,0.2,0.1,0.6-0.2,0.7C17.6,47.8,17.5,47.8,17.4,47.8z"/>
		</g>
		<g>
			<path fill="#FFFFFF" d="M63.2,127.5c-0.2,0-0.4-0.1-0.5-0.3l-0.2-0.3c-0.1-0.2-0.1-0.6,0.2-0.7c0.2-0.1,0.6-0.1,0.7,0.2l0.2,0.3
				c0.1,0.2,0.1,0.6-0.2,0.7C63.3,127.5,63.2,127.5,63.2,127.5z"/>
		</g>
	</g>
	<g>
		<g>
			<path fill="#FFFFFF" d="M127.4,44.9c-0.1,0-0.2,0-0.3-0.1c-0.2-0.1-0.3-0.5-0.2-0.7l0.2-0.3c0.1-0.3,0.5-0.3,0.7-0.2
				c0.2,0.1,0.3,0.5,0.2,0.7l-0.2,0.3C127.8,44.8,127.6,44.9,127.4,44.9z"/>
		</g>
		<g>
			<path fill="#FFFFFF" d="M81.5,124.9c-0.1,0-0.2,0-0.3-0.1c-0.2-0.1-0.3-0.5-0.2-0.7l0.3-0.6c0.1-0.2,0.5-0.3,0.7-0.2
				c0.2,0.1,0.3,0.5,0.2,0.7l-0.3,0.6C81.9,124.8,81.7,124.9,81.5,124.9z M83.1,122.1c-0.1,0-0.2,0-0.3-0.1
				c-0.2-0.1-0.3-0.5-0.2-0.7l0.3-0.6c0.1-0.2,0.5-0.3,0.7-0.2c0.2,0.1,0.3,0.5,0.2,0.7l-0.3,0.6C83.4,122,83.3,122.1,83.1,122.1z
				 M84.7,119.4c-0.1,0-0.2,0-0.3-0.1c-0.2-0.1-0.3-0.5-0.2-0.7l0.3-0.6c0.1-0.3,0.5-0.3,0.7-0.2c0.2,0.1,0.3,0.5,0.2,0.7l-0.3,0.6
				C85,119.3,84.9,119.4,84.7,119.4z M86.3,116.6c-0.1,0-0.2,0-0.3-0.1c-0.2-0.1-0.3-0.5-0.2-0.7l0.3-0.6c0.1-0.2,0.5-0.3,0.7-0.2
				c0.2,0.1,0.3,0.5,0.2,0.7l-0.3,0.6C86.6,116.5,86.4,116.6,86.3,116.6z M87.8,113.8c-0.1,0-0.2,0-0.3-0.1
				c-0.2-0.1-0.3-0.5-0.2-0.7l0.3-0.6c0.1-0.3,0.5-0.3,0.7-0.2c0.2,0.1,0.3,0.5,0.2,0.7l-0.3,0.6C88.2,113.8,88,113.8,87.8,113.8z
				 M89.4,111.1c-0.1,0-0.2,0-0.3-0.1c-0.2-0.1-0.3-0.5-0.2-0.7l0.3-0.6c0.1-0.2,0.5-0.3,0.7-0.2c0.2,0.1,0.3,0.5,0.2,0.7l-0.3,0.6
				C89.8,111,89.6,111.1,89.4,111.1z M91,108.3c-0.1,0-0.2,0-0.3-0.1c-0.2-0.1-0.3-0.5-0.2-0.7l0.3-0.6c0.1-0.3,0.5-0.3,0.7-0.2
				c0.2,0.1,0.3,0.5,0.2,0.7l-0.3,0.6C91.4,108.2,91.2,108.3,91,108.3z M92.6,105.6c-0.1,0-0.2,0-0.3-0.1c-0.2-0.1-0.3-0.5-0.2-0.7
				l0.3-0.6c0.1-0.3,0.5-0.3,0.7-0.2c0.2,0.1,0.3,0.5,0.2,0.7l-0.3,0.6C93,105.5,92.8,105.6,92.6,105.6z M94.2,102.8
				c-0.1,0-0.2,0-0.3-0.1c-0.2-0.1-0.3-0.5-0.2-0.7l0.3-0.6c0.1-0.2,0.5-0.3,0.7-0.2c0.2,0.1,0.3,0.5,0.2,0.7l-0.3,0.6
				C94.5,102.7,94.4,102.8,94.2,102.8z M95.8,100.1c-0.1,0-0.2,0-0.3-0.1c-0.2-0.1-0.3-0.5-0.2-0.7l0.3-0.6c0.1-0.3,0.5-0.3,0.7-0.2
				c0.2,0.1,0.3,0.5,0.2,0.7l-0.3,0.6C96.1,100,95.9,100.1,95.8,100.1z M97.3,97.3c-0.1,0-0.2,0-0.3-0.1c-0.2-0.1-0.3-0.5-0.2-0.7
				l0.3-0.6c0.1-0.2,0.5-0.3,0.7-0.2c0.2,0.1,0.3,0.5,0.2,0.7L97.8,97C97.7,97.2,97.5,97.3,97.3,97.3z M98.9,94.5
				c-0.1,0-0.2,0-0.3-0.1c-0.2-0.1-0.3-0.5-0.2-0.7l0.3-0.6c0.1-0.3,0.5-0.3,0.7-0.2c0.2,0.1,0.3,0.5,0.2,0.7l-0.3,0.6
				C99.3,94.4,99.1,94.5,98.9,94.5z M100.5,91.8c-0.1,0-0.2,0-0.3-0.1c-0.2-0.1-0.3-0.5-0.2-0.7l0.3-0.6c0.1-0.3,0.5-0.3,0.7-0.2
				c0.2,0.1,0.3,0.5,0.2,0.7l-0.3,0.6C100.9,91.7,100.7,91.8,100.5,91.8z M102.1,89c-0.1,0-0.2,0-0.3-0.1c-0.2-0.1-0.3-0.5-0.2-0.7
				l0.3-0.6c0.1-0.2,0.5-0.3,0.7-0.2c0.2,0.1,0.3,0.5,0.2,0.7l-0.3,0.6C102.5,88.9,102.3,89,102.1,89z M103.7,86.3
				c-0.1,0-0.2,0-0.3-0.1c-0.2-0.1-0.3-0.5-0.2-0.7l0.3-0.6c0.1-0.2,0.5-0.3,0.7-0.2c0.2,0.1,0.3,0.5,0.2,0.7l-0.3,0.6
				C104,86.2,103.9,86.3,103.7,86.3z M105.3,83.5c-0.1,0-0.2,0-0.3-0.1c-0.2-0.1-0.3-0.5-0.2-0.7l0.3-0.6c0.1-0.3,0.5-0.3,0.7-0.2
				c0.2,0.1,0.3,0.5,0.2,0.7l-0.3,0.6C105.6,83.4,105.4,83.5,105.3,83.5z M106.9,80.8c-0.1,0-0.2,0-0.3-0.1
				c-0.2-0.1-0.3-0.5-0.2-0.7l0.3-0.6c0.1-0.3,0.5-0.3,0.7-0.2c0.2,0.1,0.3,0.5,0.2,0.7l-0.3,0.6C107.2,80.7,107,80.8,106.9,80.8z
				 M108.4,78c-0.1,0-0.2,0-0.3-0.1c-0.2-0.1-0.3-0.5-0.2-0.7l0.3-0.6c0.1-0.3,0.5-0.3,0.7-0.2c0.2,0.1,0.3,0.5,0.2,0.7l-0.3,0.6
				C108.8,77.9,108.6,78,108.4,78z M110,75.2c-0.1,0-0.2,0-0.3-0.1c-0.2-0.1-0.3-0.5-0.2-0.7l0.3-0.6c0.1-0.3,0.5-0.3,0.7-0.2
				c0.2,0.1,0.3,0.5,0.2,0.7l-0.3,0.6C110.4,75.1,110.2,75.2,110,75.2z M111.6,72.5c-0.1,0-0.2,0-0.3-0.1c-0.2-0.1-0.3-0.5-0.2-0.7
				l0.3-0.6c0.1-0.2,0.5-0.3,0.7-0.2c0.2,0.1,0.3,0.5,0.2,0.7l-0.3,0.6C112,72.4,111.8,72.5,111.6,72.5z M113.2,69.7
				c-0.1,0-0.2,0-0.3-0.1c-0.2-0.1-0.3-0.5-0.2-0.7l0.3-0.6c0.1-0.2,0.5-0.3,0.7-0.2c0.2,0.1,0.3,0.5,0.2,0.7l-0.3,0.6
				C113.5,69.6,113.4,69.7,113.2,69.7z M114.8,67c-0.1,0-0.2,0-0.3-0.1c-0.2-0.1-0.3-0.5-0.2-0.7l0.3-0.6c0.1-0.3,0.5-0.3,0.7-0.2
				c0.2,0.1,0.3,0.5,0.2,0.7l-0.3,0.6C115.1,66.9,115,67,114.8,67z M116.4,64.2c-0.1,0-0.2,0-0.3-0.1c-0.2-0.1-0.3-0.5-0.2-0.7
				l0.3-0.6c0.1-0.3,0.5-0.3,0.7-0.2c0.2,0.1,0.3,0.5,0.2,0.7l-0.3,0.6C116.7,64.1,116.5,64.2,116.4,64.2z M117.9,61.4
				c-0.1,0-0.2,0-0.3-0.1c-0.2-0.1-0.3-0.5-0.2-0.7l0.3-0.6c0.1-0.3,0.5-0.3,0.7-0.2c0.2,0.1,0.3,0.5,0.2,0.7l-0.3,0.6
				C118.3,61.4,118.1,61.4,117.9,61.4z M119.5,58.7c-0.1,0-0.2,0-0.3-0.1c-0.2-0.1-0.3-0.5-0.2-0.7l0.3-0.6c0.1-0.2,0.5-0.3,0.7-0.2
				c0.2,0.1,0.3,0.5,0.2,0.7l-0.3,0.6C119.9,58.6,119.7,58.7,119.5,58.7z M121.1,55.9c-0.1,0-0.2,0-0.3-0.1
				c-0.2-0.1-0.3-0.5-0.2-0.7l0.3-0.6c0.1-0.2,0.5-0.3,0.7-0.2c0.2,0.1,0.3,0.5,0.2,0.7l-0.3,0.6C121.5,55.8,121.3,55.9,121.1,55.9z
				 M122.7,53.2c-0.1,0-0.2,0-0.3-0.1c-0.2-0.1-0.3-0.5-0.2-0.7l0.3-0.6c0.1-0.3,0.5-0.3,0.7-0.2c0.2,0.1,0.3,0.5,0.2,0.7l-0.3,0.6
				C123,53.1,122.9,53.2,122.7,53.2z M124.3,50.4c-0.1,0-0.2,0-0.3-0.1c-0.2-0.1-0.3-0.5-0.2-0.7l0.3-0.6c0.1-0.2,0.5-0.3,0.7-0.2
				c0.2,0.1,0.3,0.5,0.2,0.7l-0.3,0.6C124.6,50.3,124.5,50.4,124.3,50.4z M125.9,47.7c-0.1,0-0.2,0-0.3-0.1
				c-0.2-0.1-0.3-0.5-0.2-0.7l0.3-0.6c0.1-0.3,0.5-0.3,0.7-0.2c0.2,0.1,0.3,0.5,0.2,0.7l-0.3,0.6C126.2,47.6,126,47.7,125.9,47.7z"
				/>
		</g>
		<g>
			<path fill="#FFFFFF" d="M80.1,127.3c-0.1,0-0.2,0-0.3-0.1c-0.2-0.1-0.3-0.5-0.2-0.7l0.2-0.3c0.1-0.3,0.5-0.3,0.7-0.2
				c0.2,0.1,0.3,0.5,0.2,0.7l-0.2,0.3C80.4,127.2,80.3,127.3,80.1,127.3z"/>
		</g>
	</g>
	<g>
		<g>
			<path fill="#FFFFFF" d="M142.6,64.8c-0.1,0-0.2,0-0.3-0.1c-0.2-0.1-0.3-0.5-0.2-0.7l0.2-0.3c0.1-0.2,0.5-0.3,0.7-0.2
				c0.2,0.1,0.3,0.5,0.2,0.7l-0.2,0.3C142.9,64.7,142.7,64.8,142.6,64.8z"/>
		</g>
		<g>
			<path fill="#FFFFFF" d="M108,125c-0.1,0-0.2,0-0.3-0.1c-0.2-0.1-0.3-0.5-0.2-0.7l0.3-0.6c0.1-0.2,0.5-0.3,0.7-0.2
				c0.2,0.1,0.3,0.5,0.2,0.7l-0.3,0.6C108.3,124.9,108.1,125,108,125z M109.5,122.3c-0.1,0-0.2,0-0.3-0.1c-0.2-0.1-0.3-0.5-0.2-0.7
				l0.3-0.6c0.1-0.2,0.5-0.3,0.7-0.2c0.2,0.1,0.3,0.5,0.2,0.7L110,122C109.9,122.2,109.7,122.3,109.5,122.3z M111.1,119.5
				c-0.1,0-0.2,0-0.3-0.1c-0.2-0.1-0.3-0.5-0.2-0.7l0.3-0.6c0.1-0.2,0.5-0.3,0.7-0.2c0.2,0.1,0.3,0.5,0.2,0.7l-0.3,0.6
				C111.5,119.5,111.3,119.5,111.1,119.5z M112.7,116.8c-0.1,0-0.2,0-0.3-0.1c-0.2-0.1-0.3-0.5-0.2-0.7l0.3-0.6
				c0.1-0.3,0.5-0.3,0.7-0.2c0.2,0.1,0.3,0.5,0.2,0.7l-0.3,0.6C113,116.7,112.9,116.8,112.7,116.8z M114.2,114.1
				c-0.1,0-0.2,0-0.3-0.1c-0.2-0.1-0.3-0.5-0.2-0.7l0.3-0.6c0.1-0.3,0.5-0.3,0.7-0.2c0.2,0.1,0.3,0.5,0.2,0.7l-0.3,0.6
				C114.6,114,114.4,114.1,114.2,114.1z M115.8,111.3c-0.1,0-0.2,0-0.3-0.1c-0.2-0.1-0.3-0.5-0.2-0.7l0.3-0.6
				c0.1-0.3,0.5-0.3,0.7-0.2c0.2,0.1,0.3,0.5,0.2,0.7l-0.3,0.6C116.2,111.2,116,111.3,115.8,111.3z M117.4,108.6
				c-0.1,0-0.2,0-0.3-0.1c-0.2-0.1-0.3-0.5-0.2-0.7l0.3-0.6c0.1-0.2,0.5-0.3,0.7-0.2c0.2,0.1,0.3,0.5,0.2,0.7l-0.3,0.6
				C117.7,108.5,117.6,108.6,117.4,108.6z M119,105.9c-0.1,0-0.2,0-0.3-0.1c-0.2-0.1-0.3-0.5-0.2-0.7l0.3-0.6
				c0.1-0.3,0.5-0.3,0.7-0.2c0.2,0.1,0.3,0.5,0.2,0.7l-0.3,0.6C119.3,105.8,119.1,105.9,119,105.9z M120.5,103.1
				c-0.1,0-0.2,0-0.3-0.1c-0.2-0.1-0.3-0.5-0.2-0.7l0.3-0.6c0.1-0.2,0.5-0.3,0.7-0.2c0.2,0.1,0.3,0.5,0.2,0.7l-0.3,0.6
				C120.9,103,120.7,103.1,120.5,103.1z M122.1,100.4c-0.1,0-0.2,0-0.3-0.1c-0.2-0.1-0.3-0.5-0.2-0.7L122,99
				c0.1-0.2,0.5-0.3,0.7-0.2c0.2,0.1,0.3,0.5,0.2,0.7l-0.3,0.6C122.5,100.3,122.3,100.4,122.1,100.4z M123.7,97.6
				c-0.1,0-0.2,0-0.3-0.1c-0.2-0.1-0.3-0.5-0.2-0.7l0.3-0.6c0.1-0.2,0.5-0.3,0.7-0.2c0.2,0.1,0.3,0.5,0.2,0.7l-0.3,0.6
				C124,97.6,123.9,97.6,123.7,97.6z M125.3,94.9c-0.1,0-0.2,0-0.3-0.1c-0.2-0.1-0.3-0.5-0.2-0.7l0.3-0.6c0.1-0.2,0.5-0.3,0.7-0.2
				c0.2,0.1,0.3,0.5,0.2,0.7l-0.3,0.6C125.6,94.8,125.4,94.9,125.3,94.9z M126.8,92.2c-0.1,0-0.2,0-0.3-0.1
				c-0.2-0.1-0.3-0.5-0.2-0.7l0.3-0.6c0.1-0.3,0.5-0.3,0.7-0.2c0.2,0.1,0.3,0.5,0.2,0.7l-0.3,0.6C127.2,92.1,127,92.2,126.8,92.2z
				 M128.4,89.4c-0.1,0-0.2,0-0.3-0.1c-0.2-0.1-0.3-0.5-0.2-0.7l0.3-0.6c0.1-0.2,0.5-0.3,0.7-0.2c0.2,0.1,0.3,0.5,0.2,0.7l-0.3,0.6
				C128.8,89.3,128.6,89.4,128.4,89.4z M130,86.7c-0.1,0-0.2,0-0.3-0.1c-0.2-0.1-0.3-0.5-0.2-0.7l0.3-0.6c0.1-0.2,0.5-0.3,0.7-0.2
				c0.2,0.1,0.3,0.5,0.2,0.7l-0.3,0.6C130.3,86.6,130.2,86.7,130,86.7z M131.5,84c-0.1,0-0.2,0-0.3-0.1c-0.2-0.1-0.3-0.5-0.2-0.7
				l0.3-0.6c0.1-0.3,0.5-0.3,0.7-0.2c0.2,0.1,0.3,0.5,0.2,0.7l-0.3,0.6C131.9,83.9,131.7,84,131.5,84z M133.1,81.2
				c-0.1,0-0.2,0-0.3-0.1c-0.2-0.1-0.3-0.5-0.2-0.7l0.3-0.6c0.1-0.2,0.5-0.3,0.7-0.2c0.2,0.1,0.3,0.5,0.2,0.7l-0.3,0.6
				C133.5,81.1,133.3,81.2,133.1,81.2z M134.7,78.5c-0.1,0-0.2,0-0.3-0.1c-0.2-0.1-0.3-0.5-0.2-0.7l0.3-0.6c0.1-0.3,0.5-0.3,0.7-0.2
				c0.2,0.1,0.3,0.5,0.2,0.7l-0.3,0.6C135,78.4,134.9,78.5,134.7,78.5z M136.3,75.7c-0.1,0-0.2,0-0.3-0.1c-0.2-0.1-0.3-0.5-0.2-0.7
				l0.3-0.6c0.1-0.3,0.5-0.3,0.7-0.2c0.2,0.1,0.3,0.5,0.2,0.7l-0.3,0.6C136.6,75.6,136.4,75.7,136.3,75.7z M137.8,73
				c-0.1,0-0.2,0-0.3-0.1c-0.2-0.1-0.3-0.5-0.2-0.7l0.3-0.6c0.1-0.2,0.5-0.3,0.7-0.2c0.2,0.1,0.3,0.5,0.2,0.7l-0.3,0.6
				C138.2,72.9,138,73,137.8,73z M139.4,70.3c-0.1,0-0.2,0-0.3-0.1c-0.2-0.1-0.3-0.5-0.2-0.7l0.3-0.6c0.1-0.2,0.5-0.3,0.7-0.2
				c0.2,0.1,0.3,0.5,0.2,0.7l-0.3,0.6C139.8,70.2,139.6,70.3,139.4,70.3z M141,67.5c-0.1,0-0.2,0-0.3-0.1c-0.2-0.1-0.3-0.5-0.2-0.7
				l0.3-0.6c0.1-0.2,0.5-0.3,0.7-0.2c0.2,0.1,0.3,0.5,0.2,0.7l-0.3,0.6C141.3,67.4,141.2,67.5,141,67.5z"/>
		</g>
		<g>
			<path fill="#FFFFFF" d="M106.5,127.5c-0.1,0-0.2,0-0.3-0.1c-0.2-0.1-0.3-0.5-0.2-0.7l0.2-0.3c0.1-0.2,0.5-0.3,0.7-0.2
				c0.2,0.1,0.3,0.5,0.2,0.7l-0.2,0.3C106.9,127.4,106.7,127.5,106.5,127.5z"/>
		</g>
	</g>
	<g>
		<path fill="#FFFFFF" d="M143.5,83.1c-0.2,0-0.4-0.1-0.5-0.3l-0.3-0.6c-0.1-0.2-0.1-0.6,0.2-0.7c0.2-0.1,0.6-0.1,0.7,0.2l0.3,0.6
			c0.1,0.2,0.1,0.6-0.2,0.7C143.7,83,143.6,83.1,143.5,83.1z M141.9,80.3c-0.2,0-0.4-0.1-0.5-0.3l-0.3-0.6c-0.1-0.2-0.1-0.6,0.2-0.7
			c0.3-0.1,0.6-0.1,0.7,0.2l0.3,0.6c0.1,0.2,0.1,0.6-0.2,0.7C142.1,80.3,142,80.3,141.9,80.3z M140.3,77.5c-0.2,0-0.4-0.1-0.5-0.3
			l-0.3-0.6c-0.1-0.2-0.1-0.6,0.2-0.7c0.2-0.1,0.6-0.1,0.7,0.2l0.3,0.6c0.1,0.2,0.1,0.6-0.2,0.7C140.5,77.5,140.4,77.5,140.3,77.5z
			 M138.7,74.8c-0.2,0-0.4-0.1-0.5-0.3l-0.3-0.6c-0.1-0.2-0.1-0.6,0.2-0.7c0.2-0.1,0.6-0.1,0.7,0.2l0.3,0.6c0.1,0.2,0.1,0.6-0.2,0.7
			C138.9,74.8,138.8,74.8,138.7,74.8z M137.1,72c-0.2,0-0.4-0.1-0.5-0.3l-0.3-0.6c-0.1-0.2-0.1-0.6,0.2-0.7c0.3-0.1,0.6-0.1,0.7,0.2
			l0.3,0.6c0.1,0.2,0.1,0.6-0.2,0.7C137.3,72,137.2,72,137.1,72z M135.5,69.3c-0.2,0-0.4-0.1-0.5-0.3l-0.3-0.6
			c-0.1-0.2-0.1-0.6,0.2-0.7c0.2-0.1,0.6-0.1,0.7,0.2l0.3,0.6c0.1,0.2,0.1,0.6-0.2,0.7C135.7,69.2,135.6,69.3,135.5,69.3z
			 M133.9,66.5c-0.2,0-0.4-0.1-0.5-0.3l-0.3-0.6c-0.1-0.2-0.1-0.6,0.2-0.7c0.2-0.1,0.6-0.1,0.7,0.2l0.3,0.6c0.1,0.2,0.1,0.6-0.2,0.7
			C134.1,66.5,134,66.5,133.9,66.5z M132.4,63.7c-0.2,0-0.4-0.1-0.5-0.3l-0.3-0.6c-0.1-0.2-0.1-0.6,0.2-0.7c0.3-0.1,0.6-0.1,0.7,0.2
			l0.3,0.6c0.1,0.2,0.1,0.6-0.2,0.7C132.5,63.7,132.4,63.7,132.4,63.7z M130.8,61c-0.2,0-0.4-0.1-0.5-0.3l-0.3-0.6
			c-0.1-0.2-0.1-0.6,0.2-0.7c0.2-0.1,0.6-0.1,0.7,0.2l0.3,0.6c0.1,0.2,0.1,0.6-0.2,0.7C130.9,61,130.9,61,130.8,61z M129.2,58.2
			c-0.2,0-0.4-0.1-0.5-0.3l-0.3-0.6c-0.1-0.2-0.1-0.6,0.2-0.7c0.2-0.1,0.6-0.1,0.7,0.2l0.3,0.6c0.1,0.2,0.1,0.6-0.2,0.7
			C129.4,58.2,129.3,58.2,129.2,58.2z M127.6,55.5c-0.2,0-0.4-0.1-0.5-0.3l-0.3-0.6c-0.1-0.2-0.1-0.6,0.2-0.7
			c0.3-0.1,0.6-0.1,0.7,0.2l0.3,0.6c0.1,0.2,0.1,0.6-0.2,0.7C127.8,55.4,127.7,55.5,127.6,55.5z M126,52.7c-0.2,0-0.4-0.1-0.5-0.3
			l-0.3-0.6c-0.1-0.2-0.1-0.6,0.2-0.7c0.2-0.1,0.6-0.1,0.7,0.2l0.3,0.6c0.1,0.2,0.1,0.6-0.2,0.7C126.2,52.7,126.1,52.7,126,52.7z
			 M124.4,49.9c-0.2,0-0.4-0.1-0.5-0.3l-0.3-0.6c-0.1-0.2-0.1-0.6,0.2-0.7s0.6-0.1,0.7,0.2l0.3,0.6c0.1,0.2,0.1,0.6-0.2,0.7
			C124.6,49.9,124.5,49.9,124.4,49.9z M122.8,47.2c-0.2,0-0.4-0.1-0.5-0.3l-0.3-0.6c-0.1-0.2-0.1-0.6,0.2-0.7
			c0.2-0.1,0.6-0.1,0.7,0.2l0.3,0.6c0.1,0.2,0.1,0.6-0.2,0.7C123,47.2,122.9,47.2,122.8,47.2z M121.2,44.4c-0.2,0-0.4-0.1-0.5-0.3
			l-0.3-0.6c-0.1-0.2-0.1-0.6,0.2-0.7c0.2-0.1,0.6-0.1,0.7,0.2l0.3,0.6c0.1,0.2,0.1,0.6-0.2,0.7C121.4,44.4,121.3,44.4,121.2,44.4z
			 M119.6,41.7c-0.2,0-0.4-0.1-0.5-0.3l-0.3-0.6c-0.1-0.2-0.1-0.6,0.2-0.7c0.3-0.1,0.6-0.1,0.7,0.2l0.3,0.6c0.1,0.2,0.1,0.6-0.2,0.7
			C119.8,41.6,119.7,41.7,119.6,41.7z M118,38.9c-0.2,0-0.4-0.1-0.5-0.3l-0.3-0.6c-0.1-0.2-0.1-0.6,0.2-0.7c0.2-0.1,0.6-0.1,0.7,0.2
			l0.3,0.6c0.1,0.2,0.1,0.6-0.2,0.7C118.2,38.9,118.1,38.9,118,38.9z M116.5,36.1c-0.2,0-0.4-0.1-0.5-0.3l-0.3-0.6
			c-0.1-0.2-0.1-0.6,0.2-0.7s0.6-0.1,0.7,0.2l0.3,0.6c0.1,0.2,0.1,0.6-0.2,0.7C116.6,36.1,116.5,36.1,116.5,36.1z M114.9,33.4
			c-0.2,0-0.4-0.1-0.5-0.3l-0.3-0.6c-0.1-0.2-0.1-0.6,0.2-0.7c0.2-0.1,0.6-0.1,0.7,0.2l0.3,0.6c0.1,0.2,0.1,0.6-0.2,0.7
			C115,33.4,115,33.4,114.9,33.4z M113.3,30.6c-0.2,0-0.4-0.1-0.5-0.3l-0.3-0.6c-0.1-0.2-0.1-0.6,0.2-0.7c0.2-0.1,0.6-0.1,0.7,0.2
			l0.3,0.6c0.1,0.2,0.1,0.6-0.2,0.7C113.5,30.6,113.4,30.6,113.3,30.6z M111.7,27.9c-0.2,0-0.4-0.1-0.5-0.3l-0.3-0.6
			c-0.1-0.2-0.1-0.6,0.2-0.7c0.2-0.1,0.6-0.1,0.7,0.2l0.3,0.6c0.1,0.2,0.1,0.6-0.2,0.7C111.9,27.8,111.8,27.9,111.7,27.9z
			 M110.1,25.1c-0.2,0-0.4-0.1-0.5-0.3l-0.3-0.6c-0.1-0.2-0.1-0.6,0.2-0.7c0.2-0.1,0.6-0.1,0.7,0.2l0.3,0.6c0.1,0.2,0.1,0.6-0.2,0.7
			C110.3,25.1,110.2,25.1,110.1,25.1z M108.5,22.3c-0.2,0-0.4-0.1-0.5-0.3l-0.3-0.6c-0.1-0.2-0.1-0.6,0.2-0.7
			c0.2-0.1,0.6-0.1,0.7,0.2l0.3,0.6c0.1,0.2,0.1,0.6-0.2,0.7C108.7,22.3,108.6,22.3,108.5,22.3z"/>
	</g>
	<g>
		<path fill="#FFFFFF" d="M120.5,27.7c-0.3,0-0.5-0.1-0.5-0.4c0-0.3,0.2-0.4,0.5-0.4h0c0.3,0,0.5,0.1,0.5,0.4
			C121,27.6,120.8,27.7,120.5,27.7z M118.4,27h-1c-0.3,0-0.5-0.2-0.5-0.5s0.2-0.5,0.5-0.5h1c0.3,0,0.5,0.2,0.5,0.5
			S118.7,27,118.4,27z M115.3,27h-1c-0.3,0-0.5-0.2-0.5-0.5s0.2-0.5,0.5-0.5h1c0.3,0,0.5,0.2,0.5,0.5S115.6,27,115.3,27z M112.2,27
			h-1c-0.3,0-0.5-0.2-0.5-0.5s0.2-0.5,0.5-0.5h1c0.3,0,0.5,0.2,0.5,0.5S112.5,27,112.2,27z M109,27h-1c-0.3,0-0.5-0.2-0.5-0.5
			s0.2-0.5,0.5-0.5h1c0.3,0,0.5,0.2,0.5,0.5S109.3,27,109,27z M105.9,27h-1c-0.3,0-0.5-0.2-0.5-0.5s0.2-0.5,0.5-0.5h1
			c0.3,0,0.5,0.2,0.5,0.5S106.2,27,105.9,27z M102.8,27h-1c-0.3,0-0.5-0.2-0.5-0.5s0.2-0.5,0.5-0.5h1c0.3,0,0.5,0.2,0.5,0.5
			S103.1,27,102.8,27z M99.7,27h-1c-0.3,0-0.5-0.2-0.5-0.5s0.2-0.5,0.5-0.5h1c0.3,0,0.5,0.2,0.5,0.5S99.9,27,99.7,27z M96.5,27h-1
			c-0.3,0-0.5-0.2-0.5-0.5s0.2-0.5,0.5-0.5h1c0.3,0,0.5,0.2,0.5,0.5S96.8,27,96.5,27z M93.4,27h-1c-0.3,0-0.5-0.2-0.5-0.5
			s0.2-0.5,0.5-0.5h1c0.3,0,0.5,0.2,0.5,0.5S93.7,27,93.4,27z M90.3,27h-1c-0.3,0-0.5-0.2-0.5-0.5s0.2-0.5,0.5-0.5h1
			c0.3,0,0.5,0.2,0.5,0.5S90.6,27,90.3,27z M87.1,27h-1c-0.3,0-0.5-0.2-0.5-0.5s0.2-0.5,0.5-0.5h1c0.3,0,0.5,0.2,0.5,0.5
			S87.4,27,87.1,27z M84,27h-1c-0.3,0-0.5-0.2-0.5-0.5S82.7,26,83,26h1c0.3,0,0.5,0.2,0.5,0.5S84.3,27,84,27z M80.9,27h-1
			c-0.3,0-0.5-0.2-0.5-0.5s0.2-0.5,0.5-0.5h1c0.3,0,0.5,0.2,0.5,0.5S81.2,27,80.9,27z M77.8,27h-1c-0.3,0-0.5-0.2-0.5-0.5
			s0.2-0.5,0.5-0.5h1c0.3,0,0.5,0.2,0.5,0.5S78.1,27,77.8,27z M74.6,27h-1c-0.3,0-0.5-0.2-0.5-0.5s0.2-0.5,0.5-0.5h1
			c0.3,0,0.5,0.2,0.5,0.5S74.9,27,74.6,27z M71.5,27h-1c-0.3,0-0.5-0.2-0.5-0.5s0.2-0.5,0.5-0.5h1c0.3,0,0.5,0.2,0.5,0.5
			S71.8,27,71.5,27z M68.4,27h-1c-0.3,0-0.5-0.2-0.5-0.5s0.2-0.5,0.5-0.5h1c0.3,0,0.5,0.2,0.5,0.5S68.7,27,68.4,27z M65.3,27h-1
			c-0.3,0-0.5-0.2-0.5-0.5s0.2-0.5,0.5-0.5h1c0.3,0,0.5,0.2,0.5,0.5S65.5,27,65.3,27z M62.1,27h-1c-0.3,0-0.5-0.2-0.5-0.5
			s0.2-0.5,0.5-0.5h1c0.3,0,0.5,0.2,0.5,0.5S62.4,27,62.1,27z M59,27h-1c-0.3,0-0.5-0.2-0.5-0.5S57.7,26,58,26h1
			c0.3,0,0.5,0.2,0.5,0.5S59.3,27,59,27z M55.9,27h-1c-0.3,0-0.5-0.2-0.5-0.5s0.2-0.5,0.5-0.5h1c0.3,0,0.5,0.2,0.5,0.5
			S56.2,27,55.9,27z M52.7,27h-1c-0.3,0-0.5-0.2-0.5-0.5s0.2-0.5,0.5-0.5h1c0.3,0,0.5,0.2,0.5,0.5S53,27,52.7,27z M49.6,27h-1
			c-0.3,0-0.5-0.2-0.5-0.5s0.2-0.5,0.5-0.5h1c0.3,0,0.5,0.2,0.5,0.5S49.9,27,49.6,27z M46.5,27h-1c-0.3,0-0.5-0.2-0.5-0.5
			s0.2-0.5,0.5-0.5h1c0.3,0,0.5,0.2,0.5,0.5S46.8,27,46.5,27z M43.4,27h-1c-0.3,0-0.5-0.2-0.5-0.5S42,26,42.3,26h1
			c0.3,0,0.5,0.2,0.5,0.5S43.7,27,43.4,27z M40.2,27h-1c-0.3,0-0.5-0.2-0.5-0.5s0.2-0.5,0.5-0.5h1c0.3,0,0.5,0.2,0.5,0.5
			S40.5,27,40.2,27z M37.1,27h-1c-0.3,0-0.5-0.2-0.5-0.5s0.2-0.5,0.5-0.5h1c0.3,0,0.5,0.2,0.5,0.5S37.4,27,37.1,27z M34,27h-1
			c-0.3,0-0.5-0.2-0.5-0.5s0.2-0.5,0.5-0.5h1c0.3,0,0.5,0.2,0.5,0.5S34.3,27,34,27z M30.9,27h-1c-0.3,0-0.5-0.2-0.5-0.5
			s0.2-0.5,0.5-0.5h1c0.3,0,0.5,0.2,0.5,0.5S31.1,27,30.9,27z M27.7,27h-1c-0.3,0-0.5-0.2-0.5-0.5s0.2-0.5,0.5-0.5h1
			c0.3,0,0.5,0.2,0.5,0.5S28,27,27.7,27z M24.6,27h-1c-0.3,0-0.5-0.2-0.5-0.5s0.2-0.5,0.5-0.5h1c0.3,0,0.5,0.2,0.5,0.5
			S24.9,27,24.6,27z"/>
	</g>
	<g>
		<g>
			<path fill="#FFFFFF" d="M14.9,50h-1c-0.1,0-0.3-0.1-0.3-0.3c0-0.1,0.1-0.3,0.3-0.3h1c0.1,0,0.3,0.1,0.3,0.3
				C15.2,49.9,15.1,50,14.9,50z"/>
		</g>
		<g>
			<path fill="#FFFFFF" d="M130.7,50h-2.1c-0.1,0-0.3-0.1-0.3-0.3c0-0.1,0.1-0.3,0.3-0.3h2.1c0.1,0,0.3,0.1,0.3,0.3
				C130.9,49.9,130.8,50,130.7,50z M127.5,50h-2.1c-0.1,0-0.3-0.1-0.3-0.3c0-0.1,0.1-0.3,0.3-0.3h2.1c0.1,0,0.3,0.1,0.3,0.3
				C127.8,49.9,127.7,50,127.5,50z M124.4,50h-2.1c-0.1,0-0.3-0.1-0.3-0.3c0-0.1,0.1-0.3,0.3-0.3h2.1c0.1,0,0.3,0.1,0.3,0.3
				C124.7,49.9,124.5,50,124.4,50z M121.3,50h-2.1c-0.1,0-0.3-0.1-0.3-0.3c0-0.1,0.1-0.3,0.3-0.3h2.1c0.1,0,0.3,0.1,0.3,0.3
				C121.5,49.9,121.4,50,121.3,50z M118.1,50h-2.1c-0.1,0-0.3-0.1-0.3-0.3c0-0.1,0.1-0.3,0.3-0.3h2.1c0.1,0,0.3,0.1,0.3,0.3
				C118.4,49.9,118.3,50,118.1,50z M115,50h-2.1c-0.1,0-0.3-0.1-0.3-0.3c0-0.1,0.1-0.3,0.3-0.3h2.1c0.1,0,0.3,0.1,0.3,0.3
				C115.3,49.9,115.2,50,115,50z M111.9,50h-2.1c-0.1,0-0.3-0.1-0.3-0.3c0-0.1,0.1-0.3,0.3-0.3h2.1c0.1,0,0.3,0.1,0.3,0.3
				C112.1,49.9,112,50,111.9,50z M108.8,50h-2.1c-0.1,0-0.3-0.1-0.3-0.3c0-0.1,0.1-0.3,0.3-0.3h2.1c0.1,0,0.3,0.1,0.3,0.3
				C109,49.9,108.9,50,108.8,50z M105.6,50h-2.1c-0.1,0-0.3-0.1-0.3-0.3c0-0.1,0.1-0.3,0.3-0.3h2.1c0.1,0,0.3,0.1,0.3,0.3
				C105.9,49.9,105.8,50,105.6,50z M102.5,50h-2.1c-0.1,0-0.3-0.1-0.3-0.3c0-0.1,0.1-0.3,0.3-0.3h2.1c0.1,0,0.3,0.1,0.3,0.3
				C102.8,49.9,102.7,50,102.5,50z M99.4,50h-2.1c-0.1,0-0.3-0.1-0.3-0.3c0-0.1,0.1-0.3,0.3-0.3h2.1c0.1,0,0.3,0.1,0.3,0.3
				C99.6,49.9,99.5,50,99.4,50z M96.3,50h-2.1c-0.1,0-0.3-0.1-0.3-0.3c0-0.1,0.1-0.3,0.3-0.3h2.1c0.1,0,0.3,0.1,0.3,0.3
				C96.5,49.9,96.4,50,96.3,50z M93.1,50H91c-0.1,0-0.3-0.1-0.3-0.3c0-0.1,0.1-0.3,0.3-0.3h2.1c0.1,0,0.3,0.1,0.3,0.3
				C93.4,49.9,93.3,50,93.1,50z M90,50h-2.1c-0.1,0-0.3-0.1-0.3-0.3c0-0.1,0.1-0.3,0.3-0.3H90c0.1,0,0.3,0.1,0.3,0.3
				C90.3,49.9,90.1,50,90,50z M86.9,50h-2.1c-0.1,0-0.3-0.1-0.3-0.3c0-0.1,0.1-0.3,0.3-0.3h2.1c0.1,0,0.3,0.1,0.3,0.3
				C87.1,49.9,87,50,86.9,50z M83.7,50h-2.1c-0.1,0-0.3-0.1-0.3-0.3c0-0.1,0.1-0.3,0.3-0.3h2.1c0.1,0,0.3,0.1,0.3,0.3
				C84,49.9,83.9,50,83.7,50z M80.6,50h-2.1c-0.1,0-0.3-0.1-0.3-0.3c0-0.1,0.1-0.3,0.3-0.3h2.1c0.1,0,0.3,0.1,0.3,0.3
				C80.9,49.9,80.8,50,80.6,50z M77.5,50h-2.1c-0.1,0-0.3-0.1-0.3-0.3c0-0.1,0.1-0.3,0.3-0.3h2.1c0.1,0,0.3,0.1,0.3,0.3
				C77.7,49.9,77.6,50,77.5,50z M74.4,50h-2.1c-0.1,0-0.3-0.1-0.3-0.3c0-0.1,0.1-0.3,0.3-0.3h2.1c0.1,0,0.3,0.1,0.3,0.3
				C74.6,49.9,74.5,50,74.4,50z M71.2,50h-2.1c-0.1,0-0.3-0.1-0.3-0.3c0-0.1,0.1-0.3,0.3-0.3h2.1c0.1,0,0.3,0.1,0.3,0.3
				C71.5,49.9,71.4,50,71.2,50z M68.1,50H66c-0.1,0-0.3-0.1-0.3-0.3c0-0.1,0.1-0.3,0.3-0.3h2.1c0.1,0,0.3,0.1,0.3,0.3
				C68.4,49.9,68.2,50,68.1,50z M65,50h-2.1c-0.1,0-0.3-0.1-0.3-0.3c0-0.1,0.1-0.3,0.3-0.3H65c0.1,0,0.3,0.1,0.3,0.3
				C65.2,49.9,65.1,50,65,50z M61.9,50h-2.1c-0.1,0-0.3-0.1-0.3-0.3c0-0.1,0.1-0.3,0.3-0.3h2.1c0.1,0,0.3,0.1,0.3,0.3
				C62.1,49.9,62,50,61.9,50z M58.7,50h-2.1c-0.1,0-0.3-0.1-0.3-0.3c0-0.1,0.1-0.3,0.3-0.3h2.1c0.1,0,0.3,0.1,0.3,0.3
				C59,49.9,58.9,50,58.7,50z M55.6,50h-2.1c-0.1,0-0.3-0.1-0.3-0.3c0-0.1,0.1-0.3,0.3-0.3h2.1c0.1,0,0.3,0.1,0.3,0.3
				C55.9,49.9,55.7,50,55.6,50z M52.5,50h-2.1c-0.1,0-0.3-0.1-0.3-0.3c0-0.1,0.1-0.3,0.3-0.3h2.1c0.1,0,0.3,0.1,0.3,0.3
				C52.7,49.9,52.6,50,52.5,50z M49.3,50h-2.1c-0.1,0-0.3-0.1-0.3-0.3c0-0.1,0.1-0.3,0.3-0.3h2.1c0.1,0,0.3,0.1,0.3,0.3
				C49.6,49.9,49.5,50,49.3,50z M46.2,50h-2.1c-0.1,0-0.3-0.1-0.3-0.3c0-0.1,0.1-0.3,0.3-0.3h2.1c0.1,0,0.3,0.1,0.3,0.3
				C46.5,49.9,46.4,50,46.2,50z M43.1,50H41c-0.1,0-0.3-0.1-0.3-0.3c0-0.1,0.1-0.3,0.3-0.3h2.1c0.1,0,0.3,0.1,0.3,0.3
				C43.3,49.9,43.2,50,43.1,50z M40,50h-2.1c-0.1,0-0.3-0.1-0.3-0.3c0-0.1,0.1-0.3,0.3-0.3H40c0.1,0,0.3,0.1,0.3,0.3
				C40.2,49.9,40.1,50,40,50z M36.8,50h-2.1c-0.1,0-0.3-0.1-0.3-0.3c0-0.1,0.1-0.3,0.3-0.3h2.1c0.1,0,0.3,0.1,0.3,0.3
				C37.1,49.9,37,50,36.8,50z M33.7,50h-2.1c-0.1,0-0.3-0.1-0.3-0.3c0-0.1,0.1-0.3,0.3-0.3h2.1c0.1,0,0.3,0.1,0.3,0.3
				C34,49.9,33.8,50,33.7,50z M30.6,50h-2.1c-0.1,0-0.3-0.1-0.3-0.3c0-0.1,0.1-0.3,0.3-0.3h2.1c0.1,0,0.3,0.1,0.3,0.3
				C30.8,49.9,30.7,50,30.6,50z M27.4,50h-2.1c-0.1,0-0.3-0.1-0.3-0.3c0-0.1,0.1-0.3,0.3-0.3h2.1c0.1,0,0.3,0.1,0.3,0.3
				C27.7,49.9,27.6,50,27.4,50z M24.3,50h-2.1c-0.1,0-0.3-0.1-0.3-0.3c0-0.1,0.1-0.3,0.3-0.3h2.1c0.1,0,0.3,0.1,0.3,0.3
				C24.6,49.9,24.5,50,24.3,50z M21.2,50h-2.1c-0.1,0-0.3-0.1-0.3-0.3c0-0.1,0.1-0.3,0.3-0.3h2.1c0.1,0,0.3,0.1,0.3,0.3
				C21.5,49.9,21.3,50,21.2,50z M18.1,50H16c-0.1,0-0.3-0.1-0.3-0.3c0-0.1,0.1-0.3,0.3-0.3h2.1c0.1,0,0.3,0.1,0.3,0.3
				C18.3,49.9,18.2,50,18.1,50z"/>
		</g>
		<g>
			<path fill="#FFFFFF" d="M132.7,50h-1c-0.1,0-0.3-0.1-0.3-0.3c0-0.1,0.1-0.3,0.3-0.3h1c0.1,0,0.3,0.1,0.3,0.3
				C133,49.9,132.9,50,132.7,50z"/>
		</g>
	</g>
	<g>
		<path fill="#FFFFFF" d="M132.6,119h-0.3c-0.3,0-0.5-0.2-0.5-0.5c0-0.3,0.2-0.5,0.5-0.5h0.3c0.3,0,0.5,0.2,0.5,0.5
			C133.1,118.8,132.9,119,132.6,119z M129.7,119h-0.7c-0.3,0-0.5-0.2-0.5-0.5c0-0.3,0.2-0.5,0.5-0.5h0.7c0.3,0,0.5,0.2,0.5,0.5
			C130.3,118.8,130,119,129.7,119z M126.5,119h-0.7c-0.3,0-0.5-0.2-0.5-0.5c0-0.3,0.2-0.5,0.5-0.5h0.7c0.3,0,0.5,0.2,0.5,0.5
			C127.1,118.8,126.8,119,126.5,119z M123.4,119h-0.7c-0.3,0-0.5-0.2-0.5-0.5c0-0.3,0.2-0.5,0.5-0.5h0.7c0.3,0,0.5,0.2,0.5,0.5
			C123.9,118.8,123.7,119,123.4,119z M120.2,119h-0.7c-0.3,0-0.5-0.2-0.5-0.5c0-0.3,0.2-0.5,0.5-0.5h0.7c0.3,0,0.5,0.2,0.5,0.5
			C120.7,118.8,120.5,119,120.2,119z M117,119h-0.7c-0.3,0-0.5-0.2-0.5-0.5c0-0.3,0.2-0.5,0.5-0.5h0.7c0.3,0,0.5,0.2,0.5,0.5
			C117.5,118.8,117.3,119,117,119z M113.8,119h-0.7c-0.3,0-0.5-0.2-0.5-0.5c0-0.3,0.2-0.5,0.5-0.5h0.7c0.3,0,0.5,0.2,0.5,0.5
			C114.3,118.8,114.1,119,113.8,119z M110.6,119h-0.7c-0.3,0-0.5-0.2-0.5-0.5c0-0.3,0.2-0.5,0.5-0.5h0.7c0.3,0,0.5,0.2,0.5,0.5
			C111.1,118.8,110.9,119,110.6,119z M107.4,119h-0.7c-0.3,0-0.5-0.2-0.5-0.5c0-0.3,0.2-0.5,0.5-0.5h0.7c0.3,0,0.5,0.2,0.5,0.5
			C108,118.8,107.7,119,107.4,119z M104.3,119h-0.7c-0.3,0-0.5-0.2-0.5-0.5c0-0.3,0.2-0.5,0.5-0.5h0.7c0.3,0,0.5,0.2,0.5,0.5
			C104.8,118.8,104.5,119,104.3,119z M101.1,119h-0.7c-0.3,0-0.5-0.2-0.5-0.5c0-0.3,0.2-0.5,0.5-0.5h0.7c0.3,0,0.5,0.2,0.5,0.5
			C101.6,118.8,101.4,119,101.1,119z M97.9,119h-0.7c-0.3,0-0.5-0.2-0.5-0.5c0-0.3,0.2-0.5,0.5-0.5h0.7c0.3,0,0.5,0.2,0.5,0.5
			C98.4,118.8,98.2,119,97.9,119z M94.7,119H94c-0.3,0-0.5-0.2-0.5-0.5c0-0.3,0.2-0.5,0.5-0.5h0.7c0.3,0,0.5,0.2,0.5,0.5
			C95.2,118.8,95,119,94.7,119z M91.5,119h-0.7c-0.3,0-0.5-0.2-0.5-0.5c0-0.3,0.2-0.5,0.5-0.5h0.7c0.3,0,0.5,0.2,0.5,0.5
			C92,118.8,91.8,119,91.5,119z M88.3,119h-0.7c-0.3,0-0.5-0.2-0.5-0.5c0-0.3,0.2-0.5,0.5-0.5h0.7c0.3,0,0.5,0.2,0.5,0.5
			C88.9,118.8,88.6,119,88.3,119z M85.1,119h-0.7c-0.3,0-0.5-0.2-0.5-0.5c0-0.3,0.2-0.5,0.5-0.5h0.7c0.3,0,0.5,0.2,0.5,0.5
			C85.7,118.8,85.4,119,85.1,119z M82,119h-0.7c-0.3,0-0.5-0.2-0.5-0.5c0-0.3,0.2-0.5,0.5-0.5H82c0.3,0,0.5,0.2,0.5,0.5
			C82.5,118.8,82.3,119,82,119z M78.8,119h-0.7c-0.3,0-0.5-0.2-0.5-0.5c0-0.3,0.2-0.5,0.5-0.5h0.7c0.3,0,0.5,0.2,0.5,0.5
			C79.3,118.8,79.1,119,78.8,119z M75.6,119h-0.7c-0.3,0-0.5-0.2-0.5-0.5c0-0.3,0.2-0.5,0.5-0.5h0.7c0.3,0,0.5,0.2,0.5,0.5
			C76.1,118.8,75.9,119,75.6,119z M72.4,119h-0.7c-0.3,0-0.5-0.2-0.5-0.5c0-0.3,0.2-0.5,0.5-0.5h0.7c0.3,0,0.5,0.2,0.5,0.5
			C72.9,118.8,72.7,119,72.4,119z M69.2,119h-0.7c-0.3,0-0.5-0.2-0.5-0.5c0-0.3,0.2-0.5,0.5-0.5h0.7c0.3,0,0.5,0.2,0.5,0.5
			C69.7,118.8,69.5,119,69.2,119z M66,119h-0.7c-0.3,0-0.5-0.2-0.5-0.5c0-0.3,0.2-0.5,0.5-0.5H66c0.3,0,0.5,0.2,0.5,0.5
			C66.6,118.8,66.3,119,66,119z M62.9,119h-0.7c-0.3,0-0.5-0.2-0.5-0.5c0-0.3,0.2-0.5,0.5-0.5h0.7c0.3,0,0.5,0.2,0.5,0.5
			C63.4,118.8,63.1,119,62.9,119z M59.7,119H59c-0.3,0-0.5-0.2-0.5-0.5c0-0.3,0.2-0.5,0.5-0.5h0.7c0.3,0,0.5,0.2,0.5,0.5
			C60.2,118.8,60,119,59.7,119z M56.5,119h-0.7c-0.3,0-0.5-0.2-0.5-0.5c0-0.3,0.2-0.5,0.5-0.5h0.7c0.3,0,0.5,0.2,0.5,0.5
			C57,118.8,56.8,119,56.5,119z M53.3,119h-0.7c-0.3,0-0.5-0.2-0.5-0.5c0-0.3,0.2-0.5,0.5-0.5h0.7c0.3,0,0.5,0.2,0.5,0.5
			C53.8,118.8,53.6,119,53.3,119z M50.1,119h-0.7c-0.3,0-0.5-0.2-0.5-0.5c0-0.3,0.2-0.5,0.5-0.5h0.7c0.3,0,0.5,0.2,0.5,0.5
			C50.6,118.8,50.4,119,50.1,119z M46.9,119h-0.7c-0.3,0-0.5-0.2-0.5-0.5c0-0.3,0.2-0.5,0.5-0.5h0.7c0.3,0,0.5,0.2,0.5,0.5
			C47.5,118.8,47.2,119,46.9,119z M43.7,119h-0.7c-0.3,0-0.5-0.2-0.5-0.5c0-0.3,0.2-0.5,0.5-0.5h0.7c0.3,0,0.5,0.2,0.5,0.5
			C44.3,118.8,44,119,43.7,119z M40.6,119h-0.7c-0.3,0-0.5-0.2-0.5-0.5c0-0.3,0.2-0.5,0.5-0.5h0.7c0.3,0,0.5,0.2,0.5,0.5
			C41.1,118.8,40.8,119,40.6,119z M37.4,119h-0.7c-0.3,0-0.5-0.2-0.5-0.5c0-0.3,0.2-0.5,0.5-0.5h0.7c0.3,0,0.5,0.2,0.5,0.5
			C37.9,118.8,37.7,119,37.4,119z M34.2,119h-0.7c-0.3,0-0.5-0.2-0.5-0.5c0-0.3,0.2-0.5,0.5-0.5h0.7c0.3,0,0.5,0.2,0.5,0.5
			C34.7,118.8,34.5,119,34.2,119z M31,119h-0.7c-0.3,0-0.5-0.2-0.5-0.5c0-0.3,0.2-0.5,0.5-0.5H31c0.3,0,0.5,0.2,0.5,0.5
			C31.5,118.8,31.3,119,31,119z M27.8,119h-0.7c-0.3,0-0.5-0.2-0.5-0.5c0-0.3,0.2-0.5,0.5-0.5h0.7c0.3,0,0.5,0.2,0.5,0.5
			C28.3,118.8,28.1,119,27.8,119z M24.6,119H24c-0.3,0-0.5-0.2-0.5-0.5c0-0.3,0.2-0.5,0.5-0.5h0.7c0.3,0,0.5,0.2,0.5,0.5
			C25.2,118.8,24.9,119,24.6,119z M21.5,119h-0.7c-0.3,0-0.5-0.2-0.5-0.5c0-0.3,0.2-0.5,0.5-0.5h0.7c0.3,0,0.5,0.2,0.5,0.5
			C22,118.8,21.7,119,21.5,119z M18.3,119h-0.7c-0.3,0-0.5-0.2-0.5-0.5c0-0.3,0.2-0.5,0.5-0.5h0.7c0.3,0,0.5,0.2,0.5,0.5
			C18.8,118.8,18.6,119,18.3,119z M15.1,119h-0.7c-0.3,0-0.5-0.2-0.5-0.5c0-0.3,0.2-0.5,0.5-0.5h0.7c0.3,0,0.5,0.2,0.5,0.5
			C15.6,118.8,15.4,119,15.1,119z M11.9,119h-0.7c-0.3,0-0.5-0.2-0.5-0.5c0-0.3,0.2-0.5,0.5-0.5h0.7c0.3,0,0.5,0.2,0.5,0.5
			C12.4,118.8,12.2,119,11.9,119z M8.7,119H8c-0.3,0-0.5-0.2-0.5-0.5c0-0.3,0.2-0.5,0.5-0.5h0.7c0.3,0,0.5,0.2,0.5,0.5
			C9.2,118.8,9,119,8.7,119z M5.5,119H4.8c-0.3,0-0.5-0.2-0.5-0.5c0-0.3,0.2-0.5,0.5-0.5h0.7c0.3,0,0.5,0.2,0.5,0.5
			C6,118.8,5.8,119,5.5,119z"/>
	</g>
	<g>
		<g>
			<path fill="#FFFFFF" d="M5.6,94.8h-1c-0.1,0-0.3-0.1-0.3-0.3s0.1-0.3,0.3-0.3h1c0.1,0,0.3,0.1,0.3,0.3S5.7,94.8,5.6,94.8z"/>
		</g>
		<g>
			<path fill="#FFFFFF" d="M130.7,94.8h-2.1c-0.1,0-0.3-0.1-0.3-0.3s0.1-0.3,0.3-0.3h2.1c0.1,0,0.3,0.1,0.3,0.3
				S130.8,94.8,130.7,94.8z M127.5,94.8h-2.1c-0.1,0-0.3-0.1-0.3-0.3s0.1-0.3,0.3-0.3h2.1c0.1,0,0.3,0.1,0.3,0.3
				S127.7,94.8,127.5,94.8z M124.4,94.8h-2.1c-0.1,0-0.3-0.1-0.3-0.3s0.1-0.3,0.3-0.3h2.1c0.1,0,0.3,0.1,0.3,0.3
				S124.5,94.8,124.4,94.8z M121.3,94.8h-2.1c-0.1,0-0.3-0.1-0.3-0.3s0.1-0.3,0.3-0.3h2.1c0.1,0,0.3,0.1,0.3,0.3
				S121.4,94.8,121.3,94.8z M118.1,94.8h-2.1c-0.1,0-0.3-0.1-0.3-0.3s0.1-0.3,0.3-0.3h2.1c0.1,0,0.3,0.1,0.3,0.3
				S118.3,94.8,118.1,94.8z M115,94.8h-2.1c-0.1,0-0.3-0.1-0.3-0.3s0.1-0.3,0.3-0.3h2.1c0.1,0,0.3,0.1,0.3,0.3S115.2,94.8,115,94.8z
				 M111.9,94.8h-2.1c-0.1,0-0.3-0.1-0.3-0.3s0.1-0.3,0.3-0.3h2.1c0.1,0,0.3,0.1,0.3,0.3S112,94.8,111.9,94.8z M108.8,94.8h-2.1
				c-0.1,0-0.3-0.1-0.3-0.3s0.1-0.3,0.3-0.3h2.1c0.1,0,0.3,0.1,0.3,0.3S108.9,94.8,108.8,94.8z M105.6,94.8h-2.1
				c-0.1,0-0.3-0.1-0.3-0.3s0.1-0.3,0.3-0.3h2.1c0.1,0,0.3,0.1,0.3,0.3S105.8,94.8,105.6,94.8z M102.5,94.8h-2.1
				c-0.1,0-0.3-0.1-0.3-0.3s0.1-0.3,0.3-0.3h2.1c0.1,0,0.3,0.1,0.3,0.3S102.7,94.8,102.5,94.8z M99.4,94.8h-2.1
				c-0.1,0-0.3-0.1-0.3-0.3s0.1-0.3,0.3-0.3h2.1c0.1,0,0.3,0.1,0.3,0.3S99.5,94.8,99.4,94.8z M96.3,94.8h-2.1
				c-0.1,0-0.3-0.1-0.3-0.3s0.1-0.3,0.3-0.3h2.1c0.1,0,0.3,0.1,0.3,0.3S96.4,94.8,96.3,94.8z M93.1,94.8H91c-0.1,0-0.3-0.1-0.3-0.3
				s0.1-0.3,0.3-0.3h2.1c0.1,0,0.3,0.1,0.3,0.3S93.3,94.8,93.1,94.8z M90,94.8h-2.1c-0.1,0-0.3-0.1-0.3-0.3s0.1-0.3,0.3-0.3H90
				c0.1,0,0.3,0.1,0.3,0.3S90.1,94.8,90,94.8z M86.9,94.8h-2.1c-0.1,0-0.3-0.1-0.3-0.3s0.1-0.3,0.3-0.3h2.1c0.1,0,0.3,0.1,0.3,0.3
				S87,94.8,86.9,94.8z M83.7,94.8h-2.1c-0.1,0-0.3-0.1-0.3-0.3s0.1-0.3,0.3-0.3h2.1c0.1,0,0.3,0.1,0.3,0.3S83.9,94.8,83.7,94.8z
				 M80.6,94.8h-2.1c-0.1,0-0.3-0.1-0.3-0.3s0.1-0.3,0.3-0.3h2.1c0.1,0,0.3,0.1,0.3,0.3S80.8,94.8,80.6,94.8z M77.5,94.8h-2.1
				c-0.1,0-0.3-0.1-0.3-0.3s0.1-0.3,0.3-0.3h2.1c0.1,0,0.3,0.1,0.3,0.3S77.6,94.8,77.5,94.8z M74.4,94.8h-2.1
				c-0.1,0-0.3-0.1-0.3-0.3s0.1-0.3,0.3-0.3h2.1c0.1,0,0.3,0.1,0.3,0.3S74.5,94.8,74.4,94.8z M71.2,94.8h-2.1
				c-0.1,0-0.3-0.1-0.3-0.3s0.1-0.3,0.3-0.3h2.1c0.1,0,0.3,0.1,0.3,0.3S71.4,94.8,71.2,94.8z M68.1,94.8H66c-0.1,0-0.3-0.1-0.3-0.3
				s0.1-0.3,0.3-0.3h2.1c0.1,0,0.3,0.1,0.3,0.3S68.2,94.8,68.1,94.8z M65,94.8h-2.1c-0.1,0-0.3-0.1-0.3-0.3s0.1-0.3,0.3-0.3H65
				c0.1,0,0.3,0.1,0.3,0.3S65.1,94.8,65,94.8z M61.9,94.8h-2.1c-0.1,0-0.3-0.1-0.3-0.3s0.1-0.3,0.3-0.3h2.1c0.1,0,0.3,0.1,0.3,0.3
				S62,94.8,61.9,94.8z M58.7,94.8h-2.1c-0.1,0-0.3-0.1-0.3-0.3s0.1-0.3,0.3-0.3h2.1c0.1,0,0.3,0.1,0.3,0.3S58.9,94.8,58.7,94.8z
				 M55.6,94.8h-2.1c-0.1,0-0.3-0.1-0.3-0.3s0.1-0.3,0.3-0.3h2.1c0.1,0,0.3,0.1,0.3,0.3S55.7,94.8,55.6,94.8z M52.5,94.8h-2.1
				c-0.1,0-0.3-0.1-0.3-0.3s0.1-0.3,0.3-0.3h2.1c0.1,0,0.3,0.1,0.3,0.3S52.6,94.8,52.5,94.8z M49.3,94.8h-2.1
				c-0.1,0-0.3-0.1-0.3-0.3s0.1-0.3,0.3-0.3h2.1c0.1,0,0.3,0.1,0.3,0.3S49.5,94.8,49.3,94.8z M46.2,94.8h-2.1
				c-0.1,0-0.3-0.1-0.3-0.3s0.1-0.3,0.3-0.3h2.1c0.1,0,0.3,0.1,0.3,0.3S46.4,94.8,46.2,94.8z M43.1,94.8H41c-0.1,0-0.3-0.1-0.3-0.3
				s0.1-0.3,0.3-0.3h2.1c0.1,0,0.3,0.1,0.3,0.3S43.2,94.8,43.1,94.8z M40,94.8h-2.1c-0.1,0-0.3-0.1-0.3-0.3s0.1-0.3,0.3-0.3H40
				c0.1,0,0.3,0.1,0.3,0.3S40.1,94.8,40,94.8z M36.8,94.8h-2.1c-0.1,0-0.3-0.1-0.3-0.3s0.1-0.3,0.3-0.3h2.1c0.1,0,0.3,0.1,0.3,0.3
				S37,94.8,36.8,94.8z M33.7,94.8h-2.1c-0.1,0-0.3-0.1-0.3-0.3s0.1-0.3,0.3-0.3h2.1c0.1,0,0.3,0.1,0.3,0.3S33.8,94.8,33.7,94.8z
				 M30.6,94.8h-2.1c-0.1,0-0.3-0.1-0.3-0.3s0.1-0.3,0.3-0.3h2.1c0.1,0,0.3,0.1,0.3,0.3S30.7,94.8,30.6,94.8z M27.4,94.8h-2.1
				c-0.1,0-0.3-0.1-0.3-0.3s0.1-0.3,0.3-0.3h2.1c0.1,0,0.3,0.1,0.3,0.3S27.6,94.8,27.4,94.8z M24.3,94.8h-2.1
				c-0.1,0-0.3-0.1-0.3-0.3s0.1-0.3,0.3-0.3h2.1c0.1,0,0.3,0.1,0.3,0.3S24.5,94.8,24.3,94.8z M21.2,94.8h-2.1
				c-0.1,0-0.3-0.1-0.3-0.3s0.1-0.3,0.3-0.3h2.1c0.1,0,0.3,0.1,0.3,0.3S21.3,94.8,21.2,94.8z M18.1,94.8H16c-0.1,0-0.3-0.1-0.3-0.3
				s0.1-0.3,0.3-0.3h2.1c0.1,0,0.3,0.1,0.3,0.3S18.2,94.8,18.1,94.8z M14.9,94.8h-2.1c-0.1,0-0.3-0.1-0.3-0.3s0.1-0.3,0.3-0.3h2.1
				c0.1,0,0.3,0.1,0.3,0.3S15.1,94.8,14.9,94.8z M11.8,94.8H9.7c-0.1,0-0.3-0.1-0.3-0.3s0.1-0.3,0.3-0.3h2.1c0.1,0,0.3,0.1,0.3,0.3
				S12,94.8,11.8,94.8z M8.7,94.8H6.6c-0.1,0-0.3-0.1-0.3-0.3s0.1-0.3,0.3-0.3h2.1c0.1,0,0.3,0.1,0.3,0.3S8.8,94.8,8.7,94.8z"/>
		</g>
		<g>
			<path fill="#FFFFFF" d="M132.7,94.8h-1c-0.1,0-0.3-0.1-0.3-0.3s0.1-0.3,0.3-0.3h1c0.1,0,0.3,0.1,0.3,0.3S132.9,94.8,132.7,94.8z"
				/>
		</g>
	</g>
	<g>
		<path fill="#FFFFFF" d="M0.6,81c-0.1,0-0.2,0-0.3-0.1c-0.2-0.1-0.3-0.5-0.2-0.7l0.3-0.6c0.1-0.2,0.5-0.3,0.7-0.2
			c0.2,0.1,0.3,0.5,0.2,0.7L1,80.7C0.9,80.9,0.8,81,0.6,81z M2.2,78.2c-0.1,0-0.2,0-0.3-0.1c-0.2-0.1-0.3-0.5-0.2-0.7l0.3-0.6
			c0.1-0.2,0.5-0.3,0.7-0.2C3,76.8,3.1,77.1,3,77.4L2.6,78C2.5,78.1,2.4,78.2,2.2,78.2z M3.8,75.5c-0.1,0-0.2,0-0.3-0.1
			c-0.2-0.1-0.3-0.5-0.2-0.7l0.3-0.6c0.1-0.3,0.5-0.3,0.7-0.2c0.2,0.1,0.3,0.5,0.2,0.7l-0.3,0.6C4.1,75.4,4,75.5,3.8,75.5z
			 M5.4,72.7c-0.1,0-0.2,0-0.3-0.1c-0.2-0.1-0.3-0.5-0.2-0.7l0.3-0.6C5.4,71.1,5.8,71,6,71.2c0.2,0.1,0.3,0.5,0.2,0.7l-0.3,0.6
			C5.7,72.6,5.6,72.7,5.4,72.7z M7,70c-0.1,0-0.2,0-0.3-0.1c-0.2-0.1-0.3-0.5-0.2-0.7l0.3-0.6c0.1-0.2,0.5-0.3,0.7-0.2
			c0.2,0.1,0.3,0.5,0.2,0.7l-0.3,0.6C7.3,69.9,7.2,70,7,70z M8.6,67.2c-0.1,0-0.2,0-0.3-0.1C8.1,67,8,66.7,8.1,66.4l0.3-0.6
			c0.1-0.2,0.5-0.3,0.7-0.2c0.2,0.1,0.3,0.5,0.2,0.7L9,67C8.9,67.1,8.8,67.2,8.6,67.2z M10.2,64.5c-0.1,0-0.2,0-0.3-0.1
			c-0.2-0.1-0.3-0.5-0.2-0.7l0.3-0.6c0.1-0.2,0.5-0.3,0.7-0.2c0.2,0.1,0.3,0.5,0.2,0.7l-0.3,0.6C10.5,64.4,10.4,64.5,10.2,64.5z
			 M11.8,61.7c-0.1,0-0.2,0-0.3-0.1c-0.2-0.1-0.3-0.5-0.2-0.7l0.3-0.6c0.1-0.2,0.5-0.3,0.7-0.2c0.2,0.1,0.3,0.5,0.2,0.7l-0.3,0.6
			C12.1,61.6,12,61.7,11.8,61.7z M13.4,59c-0.1,0-0.2,0-0.3-0.1c-0.2-0.1-0.3-0.5-0.2-0.7l0.3-0.6c0.1-0.2,0.5-0.3,0.7-0.2
			c0.2,0.1,0.3,0.5,0.2,0.7l-0.3,0.6C13.7,58.9,13.6,59,13.4,59z M15,56.2c-0.1,0-0.2,0-0.3-0.1c-0.2-0.1-0.3-0.5-0.2-0.7l0.3-0.6
			c0.1-0.2,0.5-0.3,0.7-0.2c0.2,0.1,0.3,0.5,0.2,0.7l-0.3,0.6C15.3,56.1,15.2,56.2,15,56.2z M16.6,53.4c-0.1,0-0.2,0-0.3-0.1
			c-0.2-0.1-0.3-0.5-0.2-0.7l0.3-0.6c0.1-0.2,0.5-0.3,0.7-0.2c0.2,0.1,0.3,0.5,0.2,0.7L17,53.2C16.9,53.4,16.8,53.4,16.6,53.4z
			 M18.2,50.7c-0.1,0-0.2,0-0.3-0.1c-0.2-0.1-0.3-0.5-0.2-0.7l0.3-0.6c0.1-0.2,0.5-0.3,0.7-0.2c0.2,0.1,0.3,0.5,0.2,0.7l-0.3,0.6
			C18.5,50.6,18.4,50.7,18.2,50.7z M19.8,47.9c-0.1,0-0.2,0-0.3-0.1c-0.2-0.1-0.3-0.5-0.2-0.7l0.3-0.6c0.1-0.2,0.5-0.3,0.7-0.2
			c0.2,0.1,0.3,0.5,0.2,0.7l-0.3,0.6C20.1,47.8,20,47.9,19.8,47.9z M21.4,45.2c-0.1,0-0.2,0-0.3-0.1c-0.2-0.1-0.3-0.5-0.2-0.7
			l0.3-0.6c0.1-0.2,0.5-0.3,0.7-0.2c0.2,0.1,0.3,0.5,0.2,0.7l-0.3,0.6C21.7,45.1,21.6,45.2,21.4,45.2z M23,42.4
			c-0.1,0-0.2,0-0.3-0.1c-0.2-0.1-0.3-0.5-0.2-0.7l0.3-0.6c0.1-0.2,0.5-0.3,0.7-0.2c0.2,0.1,0.3,0.5,0.2,0.7l-0.3,0.6
			C23.3,42.3,23.2,42.4,23,42.4z M24.6,39.7c-0.1,0-0.2,0-0.3-0.1c-0.2-0.1-0.3-0.5-0.2-0.7l0.3-0.6c0.1-0.2,0.5-0.3,0.7-0.2
			c0.2,0.1,0.3,0.5,0.2,0.7L25,39.4C24.9,39.6,24.8,39.7,24.6,39.7z M26.2,36.9c-0.1,0-0.2,0-0.3-0.1c-0.2-0.1-0.3-0.5-0.2-0.7
			l0.3-0.6c0.1-0.3,0.5-0.3,0.7-0.2c0.2,0.1,0.3,0.5,0.2,0.7l-0.3,0.6C26.5,36.8,26.4,36.9,26.2,36.9z M27.8,34.2
			c-0.1,0-0.2,0-0.3-0.1c-0.2-0.1-0.3-0.5-0.2-0.7l0.3-0.6c0.1-0.2,0.5-0.3,0.7-0.2c0.2,0.1,0.3,0.5,0.2,0.7l-0.3,0.6
			C28.1,34.1,28,34.2,27.8,34.2z M29.4,31.4c-0.1,0-0.2,0-0.3-0.1c-0.2-0.1-0.3-0.5-0.2-0.7l0.3-0.6c0.1-0.2,0.5-0.3,0.7-0.2
			c0.2,0.1,0.3,0.5,0.2,0.7l-0.3,0.6C29.7,31.3,29.6,31.4,29.4,31.4z M31,28.7c-0.1,0-0.2,0-0.3-0.1c-0.2-0.1-0.3-0.5-0.2-0.7
			l0.3-0.6c0.1-0.2,0.5-0.3,0.7-0.2c0.2,0.1,0.3,0.5,0.2,0.7l-0.3,0.6C31.3,28.6,31.2,28.7,31,28.7z M32.6,25.9
			c-0.1,0-0.2,0-0.3-0.1c-0.2-0.1-0.3-0.5-0.2-0.7l0.3-0.6c0.1-0.2,0.5-0.3,0.7-0.2c0.2,0.1,0.3,0.5,0.2,0.7L33,25.7
			C32.9,25.8,32.8,25.9,32.6,25.9z M34.2,23.2c-0.1,0-0.2,0-0.3-0.1c-0.2-0.1-0.3-0.5-0.2-0.7l0.3-0.6c0.1-0.3,0.5-0.3,0.7-0.2
			c0.2,0.1,0.3,0.5,0.2,0.7l-0.3,0.6C34.5,23.1,34.4,23.2,34.2,23.2z M35.8,20.4c-0.1,0-0.2,0-0.3-0.1c-0.2-0.1-0.3-0.5-0.2-0.7
			l0.3-0.6c0.1-0.2,0.5-0.3,0.7-0.2c0.2,0.1,0.3,0.5,0.2,0.7l-0.3,0.6C36.1,20.3,36,20.4,35.8,20.4z"/>
	</g>
	<g>
		<path fill="#FFFFFF" d="M6.3,117.1c-0.1,0-0.2,0-0.3-0.1c-0.2-0.1-0.3-0.5-0.2-0.7l0.3-0.6c0.1-0.2,0.5-0.3,0.7-0.2
			c0.2,0.1,0.3,0.5,0.2,0.7l-0.3,0.6C6.6,117,6.4,117.1,6.3,117.1z M7.9,114.3c-0.1,0-0.2,0-0.3-0.1c-0.2-0.1-0.3-0.5-0.2-0.7
			l0.3-0.6c0.1-0.2,0.5-0.3,0.7-0.2c0.2,0.1,0.3,0.5,0.2,0.7L8.3,114C8.2,114.2,8,114.3,7.9,114.3z M9.5,111.5c-0.1,0-0.2,0-0.3-0.1
			C9,111.3,8.9,111,9,110.8l0.3-0.6c0.1-0.2,0.5-0.3,0.7-0.2c0.2,0.1,0.3,0.5,0.2,0.7l-0.3,0.6C9.8,111.5,9.6,111.5,9.5,111.5z
			 M11.1,108.8c-0.1,0-0.2,0-0.3-0.1c-0.2-0.1-0.3-0.5-0.2-0.7l0.3-0.6c0.1-0.2,0.5-0.3,0.7-0.2c0.2,0.1,0.3,0.5,0.2,0.7l-0.3,0.6
			C11.4,108.7,11.2,108.8,11.1,108.8z M12.7,106c-0.1,0-0.2,0-0.3-0.1c-0.2-0.1-0.3-0.5-0.2-0.7l0.3-0.6c0.1-0.2,0.5-0.3,0.7-0.2
			c0.2,0.1,0.3,0.5,0.2,0.7l-0.3,0.6C13,105.9,12.8,106,12.7,106z M14.3,103.3c-0.1,0-0.2,0-0.3-0.1c-0.2-0.1-0.3-0.5-0.2-0.7
			l0.3-0.6c0.1-0.2,0.5-0.3,0.7-0.2c0.2,0.1,0.3,0.5,0.2,0.7l-0.3,0.6C14.6,103.2,14.4,103.3,14.3,103.3z M15.9,100.5
			c-0.1,0-0.2,0-0.3-0.1c-0.2-0.1-0.3-0.5-0.2-0.7l0.3-0.6c0.1-0.2,0.5-0.3,0.7-0.2c0.2,0.1,0.3,0.5,0.2,0.7l-0.3,0.6
			C16.2,100.4,16,100.5,15.9,100.5z M17.5,97.8c-0.1,0-0.2,0-0.3-0.1C17,97.6,16.9,97.2,17,97l0.3-0.6c0.1-0.2,0.5-0.3,0.7-0.2
			c0.2,0.1,0.3,0.5,0.2,0.7l-0.3,0.6C17.8,97.7,17.6,97.8,17.5,97.8z M19.1,95c-0.1,0-0.2,0-0.3-0.1c-0.2-0.1-0.3-0.5-0.2-0.7
			l0.3-0.6c0.1-0.2,0.5-0.3,0.7-0.2c0.2,0.1,0.3,0.5,0.2,0.7l-0.3,0.6C19.4,94.9,19.2,95,19.1,95z M20.7,92.3c-0.1,0-0.2,0-0.3-0.1
			c-0.2-0.1-0.3-0.5-0.2-0.7l0.3-0.6c0.1-0.2,0.5-0.3,0.7-0.2c0.2,0.1,0.3,0.5,0.2,0.7L21.1,92C21,92.2,20.8,92.3,20.7,92.3z
			 M22.3,89.5c-0.1,0-0.2,0-0.3-0.1c-0.2-0.1-0.3-0.5-0.2-0.7l0.3-0.6c0.1-0.2,0.5-0.3,0.7-0.2c0.2,0.1,0.3,0.5,0.2,0.7l-0.3,0.6
			C22.6,89.4,22.4,89.5,22.3,89.5z M23.9,86.8c-0.1,0-0.2,0-0.3-0.1c-0.2-0.1-0.3-0.5-0.2-0.7l0.3-0.6c0.1-0.2,0.5-0.3,0.7-0.2
			c0.2,0.1,0.3,0.5,0.2,0.7l-0.3,0.6C24.2,86.7,24,86.8,23.9,86.8z M25.5,84c-0.1,0-0.2,0-0.3-0.1c-0.2-0.1-0.3-0.5-0.2-0.7l0.3-0.6
			c0.1-0.2,0.5-0.3,0.7-0.2c0.2,0.1,0.3,0.5,0.2,0.7l-0.3,0.6C25.8,83.9,25.6,84,25.5,84z M27.1,81.3c-0.1,0-0.2,0-0.3-0.1
			c-0.2-0.1-0.3-0.5-0.2-0.7l0.3-0.6c0.1-0.2,0.5-0.3,0.7-0.2c0.2,0.1,0.3,0.5,0.2,0.7L27.5,81C27.4,81.2,27.2,81.3,27.1,81.3z
			 M28.7,78.5c-0.1,0-0.2,0-0.3-0.1c-0.2-0.1-0.3-0.5-0.2-0.7l0.3-0.6c0.1-0.3,0.5-0.3,0.7-0.2c0.2,0.1,0.3,0.5,0.2,0.7l-0.3,0.6
			C29,78.4,28.8,78.5,28.7,78.5z M30.3,75.7c-0.1,0-0.2,0-0.3-0.1c-0.2-0.1-0.3-0.5-0.2-0.7l0.3-0.6c0.1-0.2,0.5-0.3,0.7-0.2
			c0.2,0.1,0.3,0.5,0.2,0.7l-0.3,0.6C30.6,75.7,30.4,75.7,30.3,75.7z M31.9,73c-0.1,0-0.2,0-0.3-0.1c-0.2-0.1-0.3-0.5-0.2-0.7
			l0.3-0.6c0.1-0.2,0.5-0.3,0.7-0.2c0.2,0.1,0.3,0.5,0.2,0.7l-0.3,0.6C32.2,72.9,32,73,31.9,73z M33.5,70.2c-0.1,0-0.2,0-0.3-0.1
			C33,70,32.9,69.7,33,69.5l0.3-0.6c0.1-0.2,0.5-0.3,0.7-0.2c0.2,0.1,0.3,0.5,0.2,0.7L33.9,70C33.8,70.1,33.6,70.2,33.5,70.2z
			 M35.1,67.5c-0.1,0-0.2,0-0.3-0.1c-0.2-0.1-0.3-0.5-0.2-0.7l0.3-0.6c0.1-0.2,0.5-0.3,0.7-0.2c0.2,0.1,0.3,0.5,0.2,0.7l-0.3,0.6
			C35.4,67.4,35.2,67.5,35.1,67.5z M36.7,64.7c-0.1,0-0.2,0-0.3-0.1c-0.2-0.1-0.3-0.5-0.2-0.7l0.3-0.6c0.1-0.3,0.5-0.3,0.7-0.2
			c0.2,0.1,0.3,0.5,0.2,0.7l-0.3,0.6C37,64.6,36.8,64.7,36.7,64.7z M38.3,62c-0.1,0-0.2,0-0.3-0.1c-0.2-0.1-0.3-0.5-0.2-0.7l0.3-0.6
			c0.1-0.2,0.5-0.3,0.7-0.2c0.2,0.1,0.3,0.5,0.2,0.7l-0.3,0.6C38.6,61.9,38.4,62,38.3,62z M39.9,59.2c-0.1,0-0.2,0-0.3-0.1
			c-0.2-0.1-0.3-0.5-0.2-0.7l0.3-0.6c0.1-0.2,0.5-0.3,0.7-0.2c0.2,0.1,0.3,0.5,0.2,0.7L40.3,59C40.2,59.1,40,59.2,39.9,59.2z
			 M41.5,56.5c-0.1,0-0.2,0-0.3-0.1c-0.2-0.1-0.3-0.5-0.2-0.7l0.3-0.6c0.1-0.2,0.5-0.3,0.7-0.2c0.2,0.1,0.3,0.5,0.2,0.7l-0.3,0.6
			C41.8,56.4,41.6,56.5,41.5,56.5z M43.1,53.7c-0.1,0-0.2,0-0.3-0.1c-0.2-0.1-0.3-0.5-0.2-0.7l0.3-0.6c0.1-0.2,0.5-0.3,0.7-0.2
			c0.2,0.1,0.3,0.5,0.2,0.7l-0.3,0.6C43.4,53.6,43.2,53.7,43.1,53.7z M44.7,51c-0.1,0-0.2,0-0.3-0.1c-0.2-0.1-0.3-0.5-0.2-0.7
			l0.3-0.6c0.1-0.2,0.5-0.3,0.7-0.2c0.2,0.1,0.3,0.5,0.2,0.7l-0.3,0.6C45,50.9,44.8,51,44.7,51z M46.3,48.2c-0.1,0-0.2,0-0.3-0.1
			c-0.2-0.1-0.3-0.5-0.2-0.7l0.3-0.6c0.1-0.2,0.5-0.3,0.7-0.2c0.2,0.1,0.3,0.5,0.2,0.7L46.7,48C46.6,48.1,46.4,48.2,46.3,48.2z
			 M47.9,45.5c-0.1,0-0.2,0-0.3-0.1c-0.2-0.1-0.3-0.5-0.2-0.7l0.3-0.6c0.1-0.2,0.5-0.3,0.7-0.2c0.2,0.1,0.3,0.5,0.2,0.7l-0.3,0.6
			C48.2,45.4,48,45.5,47.9,45.5z M49.5,42.7c-0.1,0-0.2,0-0.3-0.1c-0.2-0.1-0.3-0.5-0.2-0.7l0.3-0.6c0.1-0.2,0.5-0.3,0.7-0.2
			c0.2,0.1,0.3,0.5,0.2,0.7l-0.3,0.6C49.8,42.6,49.6,42.7,49.5,42.7z M51.1,39.9c-0.1,0-0.2,0-0.3-0.1c-0.2-0.1-0.3-0.5-0.2-0.7
			l0.3-0.6c0.1-0.2,0.5-0.3,0.7-0.2c0.2,0.1,0.3,0.5,0.2,0.7l-0.3,0.6C51.4,39.9,51.2,39.9,51.1,39.9z M52.7,37.2
			c-0.1,0-0.2,0-0.3-0.1c-0.2-0.1-0.3-0.5-0.2-0.7l0.3-0.6c0.1-0.2,0.5-0.3,0.7-0.2c0.2,0.1,0.3,0.5,0.2,0.7l-0.3,0.6
			C53,37.1,52.8,37.2,52.7,37.2z M54.3,34.4c-0.1,0-0.2,0-0.3-0.1c-0.2-0.1-0.3-0.5-0.2-0.7l0.3-0.6c0.1-0.2,0.5-0.3,0.7-0.2
			c0.2,0.1,0.3,0.5,0.2,0.7l-0.3,0.6C54.6,34.3,54.4,34.4,54.3,34.4z M55.9,31.7c-0.1,0-0.2,0-0.3-0.1c-0.2-0.1-0.3-0.5-0.2-0.7
			l0.3-0.6c0.1-0.2,0.5-0.3,0.7-0.2c0.2,0.1,0.3,0.5,0.2,0.7l-0.3,0.6C56.2,31.6,56,31.7,55.9,31.7z M57.5,28.9
			c-0.1,0-0.2,0-0.3-0.1c-0.2-0.1-0.3-0.5-0.2-0.7l0.3-0.6c0.1-0.2,0.5-0.3,0.7-0.2c0.2,0.1,0.3,0.5,0.2,0.7l-0.3,0.6
			C57.8,28.8,57.6,28.9,57.5,28.9z M59.1,26.2c-0.1,0-0.2,0-0.3-0.1c-0.2-0.1-0.3-0.5-0.2-0.7l0.3-0.6c0.1-0.3,0.5-0.3,0.7-0.2
			c0.2,0.1,0.3,0.5,0.2,0.7l-0.3,0.6C59.4,26.1,59.2,26.2,59.1,26.2z M60.7,23.4c-0.1,0-0.2,0-0.3-0.1c-0.2-0.1-0.3-0.5-0.2-0.7
			l0.3-0.6c0.1-0.2,0.5-0.3,0.7-0.2c0.2,0.1,0.3,0.5,0.2,0.7l-0.3,0.6C61,23.3,60.8,23.4,60.7,23.4z M62.3,20.7
			c-0.1,0-0.2,0-0.3-0.1c-0.2-0.1-0.3-0.5-0.2-0.7l0.3-0.6c0.1-0.2,0.5-0.3,0.7-0.2c0.2,0.1,0.3,0.5,0.2,0.7l-0.3,0.6
			C62.6,20.6,62.4,20.7,62.3,20.7z"/>
	</g>
	<g>
		<path fill="#FFFFFF" d="M109.4,119.1c-1.5,0-2.7-1.2-2.7-2.7s1.2-2.7,2.7-2.7s2.7,1.2,2.7,2.7S110.9,119.1,109.4,119.1z
			 M109.4,114.2c-1.2,0-2.2,1-2.2,2.2c0,1.2,1,2.2,2.2,2.2c1.2,0,2.2-1,2.2-2.2C111.6,115.2,110.6,114.2,109.4,114.2z"/>
	</g>
	<g>
		<path fill="#FFFFFF" d="M89.3,119.1c-1.5,0-2.7-1.2-2.7-2.7s1.2-2.7,2.7-2.7s2.7,1.2,2.7,2.7S90.8,119.1,89.3,119.1z M89.3,114.2
			c-1.2,0-2.2,1-2.2,2.2c0,1.2,1,2.2,2.2,2.2s2.2-1,2.2-2.2C91.5,115.2,90.5,114.2,89.3,114.2z"/>
	</g>
	<g>
		<path fill="#FFFFFF" d="M56,119.1c-1.5,0-2.7-1.2-2.7-2.7s1.2-2.7,2.7-2.7s2.7,1.2,2.7,2.7S57.4,119.1,56,119.1z M56,114.2
			c-1.2,0-2.2,1-2.2,2.2c0,1.2,1,2.2,2.2,2.2s2.2-1,2.2-2.2C58.1,115.2,57.2,114.2,56,114.2z"/>
	</g>
	<g>
		<path fill="#FFFFFF" d="M33,119.1c-1.5,0-2.7-1.2-2.7-2.7s1.2-2.7,2.7-2.7c1.5,0,2.7,1.2,2.7,2.7S34.5,119.1,33,119.1z M33,114.2
			c-1.2,0-2.2,1-2.2,2.2c0,1.2,1,2.2,2.2,2.2c1.2,0,2.2-1,2.2-2.2C35.2,115.2,34.2,114.2,33,114.2z"/>
	</g>
	<g>
		<path fill="#FFFFFF" d="M53.9,32.6c-1.5,0-2.7-1.2-2.7-2.7s1.2-2.7,2.7-2.7s2.7,1.2,2.7,2.7S55.4,32.6,53.9,32.6z M53.9,27.7
			c-1.2,0-2.2,1-2.2,2.2s1,2.2,2.2,2.2c1.2,0,2.2-1,2.2-2.2S55.1,27.7,53.9,27.7z"/>
	</g>
	<g>
		<path fill="#FFFFFF" d="M33,32.6c-1.5,0-2.7-1.2-2.7-2.7s1.2-2.7,2.7-2.7c1.5,0,2.7,1.2,2.7,2.7S34.5,32.6,33,32.6z M33,27.7
			c-1.2,0-2.2,1-2.2,2.2s1,2.2,2.2,2.2c1.2,0,2.2-1,2.2-2.2S34.2,27.7,33,27.7z"/>
	</g>
	<g>
		<path fill="#FFFFFF" d="M86.2,32.6c-1.5,0-2.7-1.2-2.7-2.7s1.2-2.7,2.7-2.7c1.5,0,2.7,1.2,2.7,2.7S87.7,32.6,86.2,32.6z
			 M86.2,27.7c-1.2,0-2.2,1-2.2,2.2s1,2.2,2.2,2.2c1.2,0,2.2-1,2.2-2.2S87.4,27.7,86.2,27.7z"/>
	</g>
	<g>
		<path fill="#FFFFFF" d="M134.7,75.9c-1.6,0-2.9-1.3-2.9-2.9c0-1.6,1.3-2.9,2.9-2.9c1.6,0,2.9,1.3,2.9,2.9
			C137.6,74.6,136.3,75.9,134.7,75.9z M134.7,70.7c-1.3,0-2.3,1.1-2.3,2.3c0,1.3,1.1,2.3,2.3,2.3c1.3,0,2.3-1.1,2.3-2.3
			C137.1,71.7,136,70.7,134.7,70.7z"/>
	</g>
	<g>
		<path fill="#FFFFFF" d="M114.3,75.7c-1.6,0-2.9-1.3-2.9-2.9s1.3-2.9,2.9-2.9s2.9,1.3,2.9,2.9S115.9,75.7,114.3,75.7z M114.3,70.5
			c-1.3,0-2.3,1.1-2.3,2.3c0,1.3,1.1,2.3,2.3,2.3c1.3,0,2.3-1.1,2.3-2.3C116.7,71.5,115.6,70.5,114.3,70.5z"/>
	</g>
	<g>
		<path fill="#FFFFFF" d="M98.2,49.4c-1.9,0-3.4-1.5-3.4-3.4s1.5-3.4,3.4-3.4s3.4,1.5,3.4,3.4S100.1,49.4,98.2,49.4z M98.2,43.1
			c-1.6,0-2.9,1.3-2.9,2.9s1.3,2.9,2.9,2.9s2.9-1.3,2.9-2.9S99.8,43.1,98.2,43.1z"/>
	</g>
	<g>
		<path fill="#FFFFFF" d="M109.6,32.7c-1.6,0-2.9-1.3-2.9-2.9c0-1.6,1.3-2.9,2.9-2.9s2.9,1.3,2.9,2.9
			C112.5,31.5,111.2,32.7,109.6,32.7z M109.6,27.5c-1.3,0-2.3,1.1-2.3,2.3s1.1,2.3,2.3,2.3c1.3,0,2.3-1.1,2.3-2.3
			S110.9,27.5,109.6,27.5z"/>
	</g>
	<g>
		<path fill="#FFFFFF" d="M8.5,75.2L8.5,75.2L8.5,75.2c-0.8,0-1.4-0.3-1.8-0.8C6.2,73.9,6,73.2,6,72.6c0-1.4,1.1-2.4,2.5-2.4l0.1,0
			c0.7,0,1.3,0.3,1.7,0.8c0.5,0.5,0.7,1.1,0.7,1.8C11,74.1,9.9,75.2,8.5,75.2z M8.5,70.7c-1.1,0-1.9,0.8-2,1.9c0,1.1,0.8,2,1.9,2.1
			l0.1,0c1.1,0,1.9-0.8,2-1.9c0-0.5-0.2-1-0.5-1.4C9.6,70.9,9.1,70.7,8.5,70.7L8.5,70.7z"/>
	</g>
	<g>
		<g>
			<path fill="#FFFFFF" d="M37.6,28c0,0-0.1,0-0.1,0c-0.1-0.1-0.2-0.2-0.1-0.4l0.5-0.9c0.1-0.1,0.2-0.2,0.4-0.1
				c0.1,0.1,0.2,0.2,0.1,0.4l-0.5,0.9C37.8,27.9,37.7,28,37.6,28z"/>
		</g>
		<g>
			<path fill="#FFFFFF" d="M9.7,75.9c0,0-0.1,0-0.1,0c-0.1-0.1-0.2-0.2-0.1-0.4l1-1.8c0.1-0.1,0.2-0.2,0.4-0.1
				c0.1,0.1,0.2,0.2,0.1,0.4l-1,1.8C9.9,75.9,9.8,75.9,9.7,75.9z M11.3,73.2c0,0-0.1,0-0.1,0C11,73.1,11,73,11,72.9l1-1.8
				c0.1-0.1,0.2-0.2,0.4-0.1c0.1,0.1,0.2,0.2,0.1,0.4l-1,1.8C11.4,73.2,11.4,73.2,11.3,73.2z M12.8,70.6c0,0-0.1,0-0.1,0
				c-0.1-0.1-0.2-0.2-0.1-0.4l1-1.8c0.1-0.1,0.2-0.2,0.4-0.1c0.1,0.1,0.2,0.2,0.1,0.4l-1,1.8C13,70.5,12.9,70.6,12.8,70.6z
				 M14.4,67.9c0,0-0.1,0-0.1,0c-0.1-0.1-0.2-0.2-0.1-0.4l1-1.8c0.1-0.1,0.2-0.2,0.4-0.1c0.1,0.1,0.2,0.2,0.1,0.4l-1,1.8
				C14.5,67.9,14.5,67.9,14.4,67.9z M15.9,65.3c0,0-0.1,0-0.1,0c-0.1-0.1-0.2-0.2-0.1-0.4l1-1.8c0.1-0.1,0.2-0.2,0.4-0.1
				c0.1,0.1,0.2,0.2,0.1,0.4l-1,1.8C16.1,65.2,16,65.3,15.9,65.3z M17.5,62.6c0,0-0.1,0-0.1,0c-0.1-0.1-0.2-0.2-0.1-0.4l1-1.8
				c0.1-0.1,0.2-0.2,0.4-0.1c0.1,0.1,0.2,0.2,0.1,0.4l-1,1.8C17.6,62.5,17.6,62.6,17.5,62.6z M19,59.9c0,0-0.1,0-0.1,0
				c-0.1-0.1-0.2-0.2-0.1-0.4l1-1.8c0.1-0.1,0.2-0.2,0.4-0.1c0.1,0.1,0.2,0.2,0.1,0.4l-1,1.8C19.2,59.9,19.1,59.9,19,59.9z
				 M20.6,57.3c0,0-0.1,0-0.1,0c-0.1-0.1-0.2-0.2-0.1-0.4l1-1.8c0.1-0.1,0.2-0.2,0.4-0.1c0.1,0.1,0.2,0.2,0.1,0.4l-1,1.8
				C20.7,57.2,20.7,57.3,20.6,57.3z M22.1,54.6c0,0-0.1,0-0.1,0c-0.1-0.1-0.2-0.2-0.1-0.4l1-1.8c0.1-0.1,0.2-0.2,0.4-0.1
				c0.1,0.1,0.2,0.2,0.1,0.4l-1,1.8C22.3,54.5,22.2,54.6,22.1,54.6z M23.7,51.9c0,0-0.1,0-0.1,0c-0.1-0.1-0.2-0.2-0.1-0.4l1-1.8
				c0.1-0.1,0.2-0.2,0.4-0.1c0.1,0.1,0.2,0.2,0.1,0.4l-1,1.8C23.8,51.9,23.7,51.9,23.7,51.9z M25.2,49.3c0,0-0.1,0-0.1,0
				c-0.1-0.1-0.2-0.2-0.1-0.4l1-1.8c0.1-0.1,0.2-0.2,0.4-0.1c0.1,0.1,0.2,0.2,0.1,0.4l-1,1.8C25.4,49.2,25.3,49.3,25.2,49.3z
				 M26.8,46.6c0,0-0.1,0-0.1,0c-0.1-0.1-0.2-0.2-0.1-0.4l1-1.8c0.1-0.1,0.2-0.2,0.4-0.1c0.1,0.1,0.2,0.2,0.1,0.4l-1,1.8
				C26.9,46.6,26.8,46.6,26.8,46.6z M28.3,43.9c0,0-0.1,0-0.1,0c-0.1-0.1-0.2-0.2-0.1-0.4l1-1.8c0.1-0.1,0.2-0.2,0.4-0.1
				c0.1,0.1,0.2,0.2,0.1,0.4l-1,1.8C28.5,43.9,28.4,43.9,28.3,43.9z M29.8,41.3c0,0-0.1,0-0.1,0c-0.1-0.1-0.2-0.2-0.1-0.4l1-1.8
				c0.1-0.1,0.2-0.2,0.4-0.1c0.1,0.1,0.2,0.2,0.1,0.4l-1,1.8C30,41.2,29.9,41.3,29.8,41.3z M31.4,38.6c0,0-0.1,0-0.1,0
				c-0.1-0.1-0.2-0.2-0.1-0.4l1-1.8c0.1-0.1,0.2-0.2,0.4-0.1c0.1,0.1,0.2,0.2,0.1,0.4l-1,1.8C31.6,38.6,31.5,38.6,31.4,38.6z
				 M32.9,35.9c0,0-0.1,0-0.1,0c-0.1-0.1-0.2-0.2-0.1-0.4l1-1.8c0.1-0.1,0.2-0.2,0.4-0.1c0.1,0.1,0.2,0.2,0.1,0.4l-1,1.8
				C33.1,35.9,33,35.9,32.9,35.9z M34.5,33.3c0,0-0.1,0-0.1,0c-0.1-0.1-0.2-0.2-0.1-0.4l1-1.8c0.1-0.1,0.2-0.2,0.4-0.1
				c0.1,0.1,0.2,0.2,0.1,0.4l-1,1.8C34.7,33.2,34.6,33.3,34.5,33.3z M36,30.6c0,0-0.1,0-0.1,0c-0.1-0.1-0.2-0.2-0.1-0.4l1-1.8
				c0.1-0.1,0.2-0.2,0.4-0.1c0.1,0.1,0.2,0.2,0.1,0.4l-1,1.8C36.2,30.6,36.1,30.6,36,30.6z"/>
		</g>
		<g>
			<path fill="#FFFFFF" d="M8.7,77.7c0,0-0.1,0-0.1,0c-0.1-0.1-0.2-0.2-0.1-0.4L9,76.4c0.1-0.1,0.2-0.2,0.4-0.1
				c0.1,0.1,0.2,0.2,0.1,0.4l-0.5,0.9C8.9,77.7,8.8,77.7,8.7,77.7z"/>
		</g>
	</g>
	<g>
		<g>
			<path fill="#FFFFFF" d="M52.2,28c0,0-0.1,0-0.1,0c-0.1-0.1-0.2-0.2-0.1-0.4l0.5-0.9c0.1-0.1,0.2-0.2,0.4-0.1
				c0.1,0.1,0.2,0.2,0.1,0.4l-0.5,0.9C52.4,27.9,52.3,28,52.2,28z"/>
		</g>
		<g>
			<path fill="#FFFFFF" d="M25.8,73.4c0,0-0.1,0-0.1,0c-0.1-0.1-0.2-0.2-0.1-0.4l1-1.8c0.1-0.1,0.2-0.2,0.4-0.1
				c0.1,0.1,0.2,0.2,0.1,0.4l-1,1.8C25.9,73.4,25.8,73.4,25.8,73.4z M27.3,70.8c0,0-0.1,0-0.1,0c-0.1-0.1-0.2-0.2-0.1-0.4l1-1.8
				c0.1-0.1,0.2-0.2,0.4-0.1c0.1,0.1,0.2,0.2,0.1,0.4l-1,1.8C27.5,70.7,27.4,70.8,27.3,70.8z M28.9,68.1c0,0-0.1,0-0.1,0
				c-0.1-0.1-0.2-0.2-0.1-0.4l1-1.8c0.1-0.1,0.2-0.2,0.4-0.1c0.1,0.1,0.2,0.2,0.1,0.4l-1,1.8C29,68,29,68.1,28.9,68.1z M30.4,65.4
				c0,0-0.1,0-0.1,0c-0.1-0.1-0.2-0.2-0.1-0.4l1-1.8c0.1-0.1,0.2-0.2,0.4-0.1c0.1,0.1,0.2,0.2,0.1,0.4l-1,1.8
				C30.6,65.4,30.5,65.4,30.4,65.4z M32,62.7c0,0-0.1,0-0.1,0c-0.1-0.1-0.2-0.2-0.1-0.4l1-1.8c0.1-0.1,0.2-0.2,0.4-0.1
				c0.1,0.1,0.2,0.2,0.1,0.4l-1,1.8C32.2,62.7,32.1,62.7,32,62.7z M33.5,60.1c0,0-0.1,0-0.1,0c-0.1-0.1-0.2-0.2-0.1-0.4l1-1.8
				c0.1-0.1,0.2-0.2,0.4-0.1c0.1,0.1,0.2,0.2,0.1,0.4l-1,1.8C33.7,60,33.6,60.1,33.5,60.1z M35.1,57.4c0,0-0.1,0-0.1,0
				c-0.1-0.1-0.2-0.2-0.1-0.4l1-1.8c0.1-0.1,0.2-0.2,0.4-0.1c0.1,0.1,0.2,0.2,0.1,0.4l-1,1.8C35.3,57.3,35.2,57.4,35.1,57.4z
				 M36.6,54.7c0,0-0.1,0-0.1,0c-0.1-0.1-0.2-0.2-0.1-0.4l1-1.8c0.1-0.1,0.2-0.2,0.4-0.1c0.1,0.1,0.2,0.2,0.1,0.4l-1,1.8
				C36.8,54.7,36.7,54.7,36.6,54.7z M38.2,52c0,0-0.1,0-0.1,0c-0.1-0.1-0.2-0.2-0.1-0.4l1-1.8c0.1-0.1,0.2-0.2,0.4-0.1
				c0.1,0.1,0.2,0.2,0.1,0.4l-1,1.8C38.4,52,38.3,52,38.2,52z M39.7,49.4c0,0-0.1,0-0.1,0c-0.1-0.1-0.2-0.2-0.1-0.4l1-1.8
				c0.1-0.1,0.2-0.2,0.4-0.1c0.1,0.1,0.2,0.2,0.1,0.4l-1,1.8C39.9,49.3,39.8,49.4,39.7,49.4z M41.3,46.7c0,0-0.1,0-0.1,0
				c-0.1-0.1-0.2-0.2-0.1-0.4l1-1.8c0.1-0.1,0.2-0.2,0.4-0.1c0.1,0.1,0.2,0.2,0.1,0.4l-1,1.8C41.5,46.6,41.4,46.7,41.3,46.7z
				 M42.9,44c0,0-0.1,0-0.1,0c-0.1-0.1-0.2-0.2-0.1-0.4l1-1.8c0.1-0.1,0.2-0.2,0.4-0.1s0.2,0.2,0.1,0.4l-1,1.8
				C43,44,42.9,44,42.9,44z M44.4,41.3c0,0-0.1,0-0.1,0c-0.1-0.1-0.2-0.2-0.1-0.4l1-1.8c0.1-0.1,0.2-0.2,0.4-0.1
				c0.1,0.1,0.2,0.2,0.1,0.4l-1,1.8C44.6,41.3,44.5,41.3,44.4,41.3z M46,38.7c0,0-0.1,0-0.1,0c-0.1-0.1-0.2-0.2-0.1-0.4l1-1.8
				c0.1-0.1,0.2-0.2,0.4-0.1c0.1,0.1,0.2,0.2,0.1,0.4l-1,1.8C46.1,38.6,46.1,38.7,46,38.7z M47.5,36c0,0-0.1,0-0.1,0
				c-0.1-0.1-0.2-0.2-0.1-0.4l1-1.8c0.1-0.1,0.2-0.2,0.4-0.1c0.1,0.1,0.2,0.2,0.1,0.4l-1,1.8C47.7,35.9,47.6,36,47.5,36z M49.1,33.3
				c0,0-0.1,0-0.1,0c-0.1-0.1-0.2-0.2-0.1-0.4l1-1.8C50,31,50.1,31,50.2,31c0.1,0.1,0.2,0.2,0.1,0.4l-1,1.8
				C49.3,33.3,49.2,33.3,49.1,33.3z M50.6,30.6c0,0-0.1,0-0.1,0c-0.1-0.1-0.2-0.2-0.1-0.4l1-1.8c0.1-0.1,0.2-0.2,0.4-0.1
				c0.1,0.1,0.2,0.2,0.1,0.4l-1,1.8C50.8,30.6,50.7,30.6,50.6,30.6z"/>
		</g>
		<g>
			<path fill="#FFFFFF" d="M24.7,75.2c0,0-0.1,0-0.1,0c-0.1-0.1-0.2-0.2-0.1-0.4l0.5-0.9c0.1-0.1,0.2-0.2,0.4-0.1
				c0.1,0.1,0.2,0.2,0.1,0.4l-0.5,0.9C24.9,75.2,24.8,75.2,24.7,75.2z"/>
		</g>
	</g>
	<g>
		<g>
			<path fill="#FFFFFF" d="M8.8,69c-0.1,0-0.2,0-0.2-0.1L8,67.9c-0.1-0.1,0-0.3,0.1-0.4c0.1-0.1,0.3,0,0.4,0.1L9,68.6
				c0.1,0.1,0,0.3-0.1,0.4C8.9,69,8.8,69,8.8,69z"/>
		</g>
		<g>
			<path fill="#FFFFFF" d="M36.3,116.9c-0.1,0-0.2,0-0.2-0.1l-1-1.8c-0.1-0.1,0-0.3,0.1-0.4c0.1-0.1,0.3,0,0.4,0.1l1,1.8
				c0.1,0.1,0,0.3-0.1,0.4C36.4,116.9,36.3,116.9,36.3,116.9z M34.8,114.2c-0.1,0-0.2,0-0.2-0.1l-1-1.8c-0.1-0.1,0-0.3,0.1-0.4
				c0.1-0.1,0.3,0,0.4,0.1l1,1.8c0.1,0.1,0,0.3-0.1,0.4C34.9,114.2,34.8,114.2,34.8,114.2z M33.2,111.6c-0.1,0-0.2,0-0.2-0.1l-1-1.8
				c-0.1-0.1,0-0.3,0.1-0.4c0.1-0.1,0.3,0,0.4,0.1l1,1.8c0.1,0.1,0,0.3-0.1,0.4C33.3,111.6,33.3,111.6,33.2,111.6z M31.7,108.9
				c-0.1,0-0.2,0-0.2-0.1l-1-1.8c-0.1-0.1,0-0.3,0.1-0.4c0.1-0.1,0.3,0,0.4,0.1l1,1.8c0.1,0.1,0,0.3-0.1,0.4
				C31.8,108.9,31.8,108.9,31.7,108.9z M30.2,106.3c-0.1,0-0.2,0-0.2-0.1l-1-1.8c-0.1-0.1,0-0.3,0.1-0.4c0.1-0.1,0.3,0,0.4,0.1
				l1,1.8c0.1,0.1,0,0.3-0.1,0.4C30.3,106.2,30.2,106.3,30.2,106.3z M28.7,103.6c-0.1,0-0.2,0-0.2-0.1l-1-1.8
				c-0.1-0.1,0-0.3,0.1-0.4c0.1-0.1,0.3,0,0.4,0.1l1,1.8c0.1,0.1,0,0.3-0.1,0.4C28.7,103.6,28.7,103.6,28.7,103.6z M27.1,100.9
				c-0.1,0-0.2,0-0.2-0.1l-1-1.8c-0.1-0.1,0-0.3,0.1-0.4c0.1-0.1,0.3,0,0.4,0.1l1,1.8c0.1,0.1,0,0.3-0.1,0.4
				C27.2,100.9,27.2,100.9,27.1,100.9z M25.6,98.3c-0.1,0-0.2,0-0.2-0.1l-1-1.8c-0.1-0.1,0-0.3,0.1-0.4c0.1-0.1,0.3,0,0.4,0.1l1,1.8
				c0.1,0.1,0,0.3-0.1,0.4C25.7,98.3,25.6,98.3,25.6,98.3z M24.1,95.6c-0.1,0-0.2,0-0.2-0.1l-1-1.8c-0.1-0.1,0-0.3,0.1-0.4
				c0.1-0.1,0.3,0,0.4,0.1l1,1.8c0.1,0.1,0,0.3-0.1,0.4C24.2,95.6,24.1,95.6,24.1,95.6z M22.5,92.9c-0.1,0-0.2,0-0.2-0.1l-1-1.8
				c-0.1-0.1,0-0.3,0.1-0.4c0.1-0.1,0.3,0,0.4,0.1l1,1.8c0.1,0.1,0,0.3-0.1,0.4C22.6,92.9,22.6,92.9,22.5,92.9z M21,90.3
				c-0.1,0-0.2,0-0.2-0.1l-1-1.8c-0.1-0.1,0-0.3,0.1-0.4c0.1-0.1,0.3,0,0.4,0.1l1,1.8c0.1,0.1,0,0.3-0.1,0.4
				C21.1,90.3,21,90.3,21,90.3z M19.5,87.6c-0.1,0-0.2,0-0.2-0.1l-1-1.8c-0.1-0.1,0-0.3,0.1-0.4c0.1-0.1,0.3,0,0.4,0.1l1,1.8
				c0.1,0.1,0,0.3-0.1,0.4C19.6,87.6,19.5,87.6,19.5,87.6z M17.9,85c-0.1,0-0.2,0-0.2-0.1l-1-1.8c-0.1-0.1,0-0.3,0.1-0.4
				c0.1-0.1,0.3,0,0.4,0.1l1,1.8c0.1,0.1,0,0.3-0.1,0.4C18,84.9,18,85,17.9,85z M16.4,82.3c-0.1,0-0.2,0-0.2-0.1l-1-1.8
				c-0.1-0.1,0-0.3,0.1-0.4c0.1-0.1,0.3,0,0.4,0.1l1,1.8c0.1,0.1,0,0.3-0.1,0.4C16.5,82.3,16.5,82.3,16.4,82.3z M14.9,79.6
				c-0.1,0-0.2,0-0.2-0.1l-1-1.8c-0.1-0.1,0-0.3,0.1-0.4c0.1-0.1,0.3,0,0.4,0.1l1,1.8c0.1,0.1,0,0.3-0.1,0.4
				C15,79.6,14.9,79.6,14.9,79.6z M13.4,77c-0.1,0-0.2,0-0.2-0.1l-1-1.8c-0.1-0.1,0-0.3,0.1-0.4c0.1-0.1,0.3,0,0.4,0.1l1,1.8
				c0.1,0.1,0,0.3-0.1,0.4C13.4,77,13.4,77,13.4,77z M11.8,74.3c-0.1,0-0.2,0-0.2-0.1l-1-1.8c-0.1-0.1,0-0.3,0.1-0.4
				c0.1-0.1,0.3,0,0.4,0.1l1,1.8c0.1,0.1,0,0.3-0.1,0.4C11.9,74.3,11.9,74.3,11.8,74.3z M10.3,71.6c-0.1,0-0.2,0-0.2-0.1l-1-1.8
				c-0.1-0.1,0-0.3,0.1-0.4c0.1-0.1,0.3,0,0.4,0.1l1,1.8c0.1,0.1,0,0.3-0.1,0.4C10.4,71.6,10.3,71.6,10.3,71.6z"/>
		</g>
		<g>
			<path fill="#FFFFFF" d="M37.3,118.7c-0.1,0-0.2,0-0.2-0.1l-0.5-0.9c-0.1-0.1,0-0.3,0.1-0.4c0.1-0.1,0.3,0,0.4,0.1l0.5,0.9
				c0.1,0.1,0,0.3-0.1,0.4C37.4,118.7,37.4,118.7,37.3,118.7z"/>
		</g>
	</g>
	<g>
		<g>
			<path fill="#FFFFFF" d="M55,32.8h-1c-0.1,0-0.3-0.1-0.3-0.3c0-0.1,0.1-0.3,0.3-0.3h1c0.1,0,0.3,0.1,0.3,0.3
				C55.2,32.7,55.1,32.8,55,32.8z"/>
		</g>
		<g>
			<path fill="#FFFFFF" d="M52.8,32.8h-2.2c-0.1,0-0.3-0.1-0.3-0.3c0-0.1,0.1-0.3,0.3-0.3h2.2c0.1,0,0.3,0.1,0.3,0.3
				C53.1,32.7,53,32.8,52.8,32.8z M49.5,32.8h-2.2c-0.1,0-0.3-0.1-0.3-0.3c0-0.1,0.1-0.3,0.3-0.3h2.2c0.1,0,0.3,0.1,0.3,0.3
				C49.8,32.7,49.6,32.8,49.5,32.8z M46.2,32.8H44c-0.1,0-0.3-0.1-0.3-0.3c0-0.1,0.1-0.3,0.3-0.3h2.2c0.1,0,0.3,0.1,0.3,0.3
				C46.4,32.7,46.3,32.8,46.2,32.8z M42.8,32.8h-2.2c-0.1,0-0.3-0.1-0.3-0.3c0-0.1,0.1-0.3,0.3-0.3h2.2c0.1,0,0.3,0.1,0.3,0.3
				C43.1,32.7,43,32.8,42.8,32.8z M39.5,32.8h-2.2c-0.1,0-0.3-0.1-0.3-0.3c0-0.1,0.1-0.3,0.3-0.3h2.2c0.1,0,0.3,0.1,0.3,0.3
				C39.8,32.7,39.7,32.8,39.5,32.8z M36.2,32.8H34c-0.1,0-0.3-0.1-0.3-0.3c0-0.1,0.1-0.3,0.3-0.3h2.2c0.1,0,0.3,0.1,0.3,0.3
				C36.4,32.7,36.3,32.8,36.2,32.8z M32.9,32.8h-2.2c-0.1,0-0.3-0.1-0.3-0.3c0-0.1,0.1-0.3,0.3-0.3h2.2c0.1,0,0.3,0.1,0.3,0.3
				C33.1,32.7,33,32.8,32.9,32.8z"/>
		</g>
		<g>
			<path fill="#FFFFFF" d="M29.5,32.8h-1c-0.1,0-0.3-0.1-0.3-0.3c0-0.1,0.1-0.3,0.3-0.3h1c0.1,0,0.3,0.1,0.3,0.3
				C29.8,32.7,29.7,32.8,29.5,32.8z"/>
		</g>
	</g>
	<g>
		<g>
			<path fill="#FFFFFF" d="M60.8,114.2h-1c-0.1,0-0.3-0.1-0.3-0.3s0.1-0.3,0.3-0.3h1c0.1,0,0.3,0.1,0.3,0.3S61,114.2,60.8,114.2z"/>
		</g>
		<g>
			<path fill="#FFFFFF" d="M58.7,114.2h-2.1c-0.1,0-0.3-0.1-0.3-0.3s0.1-0.3,0.3-0.3h2.1c0.1,0,0.3,0.1,0.3,0.3
				S58.9,114.2,58.7,114.2z M55.6,114.2h-2.1c-0.1,0-0.3-0.1-0.3-0.3s0.1-0.3,0.3-0.3h2.1c0.1,0,0.3,0.1,0.3,0.3
				S55.7,114.2,55.6,114.2z M52.5,114.2h-2.1c-0.1,0-0.3-0.1-0.3-0.3s0.1-0.3,0.3-0.3h2.1c0.1,0,0.3,0.1,0.3,0.3
				S52.6,114.2,52.5,114.2z M49.3,114.2h-2.1c-0.1,0-0.3-0.1-0.3-0.3s0.1-0.3,0.3-0.3h2.1c0.1,0,0.3,0.1,0.3,0.3
				S49.5,114.2,49.3,114.2z M46.2,114.2h-2.1c-0.1,0-0.3-0.1-0.3-0.3s0.1-0.3,0.3-0.3h2.1c0.1,0,0.3,0.1,0.3,0.3
				S46.4,114.2,46.2,114.2z M43.1,114.2H41c-0.1,0-0.3-0.1-0.3-0.3s0.1-0.3,0.3-0.3h2.1c0.1,0,0.3,0.1,0.3,0.3
				S43.2,114.2,43.1,114.2z M40,114.2h-2.1c-0.1,0-0.3-0.1-0.3-0.3s0.1-0.3,0.3-0.3H40c0.1,0,0.3,0.1,0.3,0.3S40.1,114.2,40,114.2z
				 M36.8,114.2h-2.1c-0.1,0-0.3-0.1-0.3-0.3s0.1-0.3,0.3-0.3h2.1c0.1,0,0.3,0.1,0.3,0.3S37,114.2,36.8,114.2z M33.7,114.2h-2.1
				c-0.1,0-0.3-0.1-0.3-0.3s0.1-0.3,0.3-0.3h2.1c0.1,0,0.3,0.1,0.3,0.3S33.8,114.2,33.7,114.2z"/>
		</g>
		<g>
			<path fill="#FFFFFF" d="M30.6,114.2h-1c-0.1,0-0.3-0.1-0.3-0.3s0.1-0.3,0.3-0.3h1c0.1,0,0.3,0.1,0.3,0.3S30.7,114.2,30.6,114.2z"
				/>
		</g>
	</g>
	<g>
		<g>
			<path fill="#FFFFFF" d="M114,114.2h-1c-0.1,0-0.3-0.1-0.3-0.3s0.1-0.3,0.3-0.3h1c0.1,0,0.3,0.1,0.3,0.3S114.1,114.2,114,114.2z"
				/>
		</g>
		<g>
			<path fill="#FFFFFF" d="M111.8,114.2h-2.2c-0.1,0-0.3-0.1-0.3-0.3s0.1-0.3,0.3-0.3h2.2c0.1,0,0.3,0.1,0.3,0.3
				S112,114.2,111.8,114.2z M108.5,114.2h-2.2c-0.1,0-0.3-0.1-0.3-0.3s0.1-0.3,0.3-0.3h2.2c0.1,0,0.3,0.1,0.3,0.3
				S108.6,114.2,108.5,114.2z M105.2,114.2H103c-0.1,0-0.3-0.1-0.3-0.3s0.1-0.3,0.3-0.3h2.2c0.1,0,0.3,0.1,0.3,0.3
				S105.3,114.2,105.2,114.2z M101.9,114.2h-2.2c-0.1,0-0.3-0.1-0.3-0.3s0.1-0.3,0.3-0.3h2.2c0.1,0,0.3,0.1,0.3,0.3
				S102,114.2,101.9,114.2z M98.5,114.2h-2.2c-0.1,0-0.3-0.1-0.3-0.3s0.1-0.3,0.3-0.3h2.2c0.1,0,0.3,0.1,0.3,0.3
				S98.7,114.2,98.5,114.2z M95.2,114.2H93c-0.1,0-0.3-0.1-0.3-0.3s0.1-0.3,0.3-0.3h2.2c0.1,0,0.3,0.1,0.3,0.3
				S95.4,114.2,95.2,114.2z M91.9,114.2h-2.2c-0.1,0-0.3-0.1-0.3-0.3s0.1-0.3,0.3-0.3h2.2c0.1,0,0.3,0.1,0.3,0.3
				S92,114.2,91.9,114.2z"/>
		</g>
		<g>
			<path fill="#FFFFFF" d="M88.6,114.2h-1c-0.1,0-0.3-0.1-0.3-0.3s0.1-0.3,0.3-0.3h1c0.1,0,0.3,0.1,0.3,0.3S88.7,114.2,88.6,114.2z"
				/>
		</g>
	</g>
	<g>
		<g>
			<path fill="#FFFFFF" d="M114.7,32.8h-1c-0.1,0-0.3-0.1-0.3-0.3c0-0.1,0.1-0.3,0.3-0.3h1c0.1,0,0.3,0.1,0.3,0.3
				C114.9,32.7,114.8,32.8,114.7,32.8z"/>
		</g>
		<g>
			<path fill="#FFFFFF" d="M112.6,32.8h-2c-0.1,0-0.3-0.1-0.3-0.3c0-0.1,0.1-0.3,0.3-0.3h2c0.1,0,0.3,0.1,0.3,0.3
				C112.9,32.7,112.8,32.8,112.6,32.8z M109.6,32.8h-2c-0.1,0-0.3-0.1-0.3-0.3c0-0.1,0.1-0.3,0.3-0.3h2c0.1,0,0.3,0.1,0.3,0.3
				C109.9,32.7,109.8,32.8,109.6,32.8z M106.6,32.8h-2c-0.1,0-0.3-0.1-0.3-0.3c0-0.1,0.1-0.3,0.3-0.3h2c0.1,0,0.3,0.1,0.3,0.3
				C106.9,32.7,106.8,32.8,106.6,32.8z M103.7,32.8h-2c-0.1,0-0.3-0.1-0.3-0.3c0-0.1,0.1-0.3,0.3-0.3h2c0.1,0,0.3,0.1,0.3,0.3
				C103.9,32.7,103.8,32.8,103.7,32.8z M100.7,32.8h-2c-0.1,0-0.3-0.1-0.3-0.3c0-0.1,0.1-0.3,0.3-0.3h2c0.1,0,0.3,0.1,0.3,0.3
				C100.9,32.7,100.8,32.8,100.7,32.8z M97.7,32.8h-2c-0.1,0-0.3-0.1-0.3-0.3c0-0.1,0.1-0.3,0.3-0.3h2c0.1,0,0.3,0.1,0.3,0.3
				C97.9,32.7,97.8,32.8,97.7,32.8z M94.7,32.8h-2c-0.1,0-0.3-0.1-0.3-0.3c0-0.1,0.1-0.3,0.3-0.3h2c0.1,0,0.3,0.1,0.3,0.3
				C94.9,32.7,94.8,32.8,94.7,32.8z M91.7,32.8h-2c-0.1,0-0.3-0.1-0.3-0.3c0-0.1,0.1-0.3,0.3-0.3h2c0.1,0,0.3,0.1,0.3,0.3
				C91.9,32.7,91.8,32.8,91.7,32.8z M88.7,32.8h-2c-0.1,0-0.3-0.1-0.3-0.3c0-0.1,0.1-0.3,0.3-0.3h2c0.1,0,0.3,0.1,0.3,0.3
				C88.9,32.7,88.8,32.8,88.7,32.8z M85.7,32.8h-2c-0.1,0-0.3-0.1-0.3-0.3c0-0.1,0.1-0.3,0.3-0.3h2c0.1,0,0.3,0.1,0.3,0.3
				C86,32.7,85.8,32.8,85.7,32.8z"/>
		</g>
		<g>
			<path fill="#FFFFFF" d="M82.7,32.8h-1c-0.1,0-0.3-0.1-0.3-0.3c0-0.1,0.1-0.3,0.3-0.3h1c0.1,0,0.3,0.1,0.3,0.3
				C83,32.7,82.8,32.8,82.7,32.8z"/>
		</g>
	</g>
	<g>
		<g>
			<path fill="#FFFFFF" d="M46.2,107.6c-0.1,0-0.2,0-0.2-0.1l-0.5-0.9c-0.1-0.1,0-0.3,0.1-0.4c0.1-0.1,0.3,0,0.4,0.1l0.5,0.9
				c0.1,0.1,0,0.3-0.1,0.4C46.3,107.5,46.3,107.6,46.2,107.6z"/>
		</g>
		<g>
			<path fill="#FFFFFF" d="M45.2,105.8c-0.1,0-0.2,0-0.2-0.1l-1-1.8c-0.1-0.1,0-0.3,0.1-0.4c0.1-0.1,0.3,0,0.4,0.1l1,1.8
				c0.1,0.1,0,0.3-0.1,0.4C45.3,105.8,45.2,105.8,45.2,105.8z M43.6,103.1c-0.1,0-0.2,0-0.2-0.1l-1-1.8c-0.1-0.1,0-0.3,0.1-0.4
				c0.1-0.1,0.3,0,0.4,0.1l1,1.8c0.1,0.1,0,0.3-0.1,0.4C43.7,103.1,43.7,103.1,43.6,103.1z M42.1,100.5c-0.1,0-0.2,0-0.2-0.1l-1-1.8
				c-0.1-0.1,0-0.3,0.1-0.4c0.1-0.1,0.3,0,0.4,0.1l1,1.8c0.1,0.1,0,0.3-0.1,0.4C42.2,100.5,42.1,100.5,42.1,100.5z M40.6,97.8
				c-0.1,0-0.2,0-0.2-0.1l-1-1.8c-0.1-0.1,0-0.3,0.1-0.4c0.1-0.1,0.3,0,0.4,0.1l1,1.8c0.1,0.1,0,0.3-0.1,0.4
				C40.6,97.8,40.6,97.8,40.6,97.8z M39,95.2c-0.1,0-0.2,0-0.2-0.1l-1-1.8c-0.1-0.1,0-0.3,0.1-0.4c0.1-0.1,0.3,0,0.4,0.1l1,1.8
				c0.1,0.1,0,0.3-0.1,0.4C39.1,95.2,39.1,95.2,39,95.2z M37.5,92.5c-0.1,0-0.2,0-0.2-0.1l-1-1.8c-0.1-0.1,0-0.3,0.1-0.4
				c0.1-0.1,0.3,0,0.4,0.1l1,1.8c0.1,0.1,0,0.3-0.1,0.4C37.6,92.5,37.5,92.5,37.5,92.5z M35.9,89.9c-0.1,0-0.2,0-0.2-0.1l-1-1.8
				c-0.1-0.1,0-0.3,0.1-0.4c0.1-0.1,0.3,0,0.4,0.1l1,1.8c0.1,0.1,0,0.3-0.1,0.4C36,89.8,36,89.9,35.9,89.9z M34.4,87.2
				c-0.1,0-0.2,0-0.2-0.1l-1-1.8c-0.1-0.1,0-0.3,0.1-0.4c0.1-0.1,0.3,0,0.4,0.1l1,1.8c0.1,0.1,0,0.3-0.1,0.4
				C34.5,87.2,34.4,87.2,34.4,87.2z M32.9,84.6c-0.1,0-0.2,0-0.2-0.1l-1-1.8c-0.1-0.1,0-0.3,0.1-0.4c0.1-0.1,0.3,0,0.4,0.1l1,1.8
				c0.1,0.1,0,0.3-0.1,0.4C32.9,84.5,32.9,84.6,32.9,84.6z M31.3,81.9c-0.1,0-0.2,0-0.2-0.1l-1-1.8c-0.1-0.1,0-0.3,0.1-0.4
				c0.1-0.1,0.3,0,0.4,0.1l1,1.8c0.1,0.1,0,0.3-0.1,0.4C31.4,81.9,31.4,81.9,31.3,81.9z M29.8,79.3c-0.1,0-0.2,0-0.2-0.1l-1-1.8
				c-0.1-0.1,0-0.3,0.1-0.4c0.1-0.1,0.3,0,0.4,0.1l1,1.8c0.1,0.1,0,0.3-0.1,0.4C29.9,79.2,29.8,79.3,29.8,79.3z M28.2,76.6
				c-0.1,0-0.2,0-0.2-0.1l-1-1.8c-0.1-0.1,0-0.3,0.1-0.4c0.1-0.1,0.3,0,0.4,0.1l1,1.8c0.1,0.1,0,0.3-0.1,0.4
				C28.3,76.6,28.3,76.6,28.2,76.6z M26.7,73.9c-0.1,0-0.2,0-0.2-0.1l-1-1.8c-0.1-0.1,0-0.3,0.1-0.4c0.1-0.1,0.3,0,0.4,0.1l1,1.8
				c0.1,0.1,0,0.3-0.1,0.4C26.8,73.9,26.7,73.9,26.7,73.9z"/>
		</g>
		<g>
			<path fill="#FFFFFF" d="M25.2,71.3c-0.1,0-0.2,0-0.2-0.1l-0.5-0.9c-0.1-0.1,0-0.3,0.1-0.4c0.1-0.1,0.3,0,0.4,0.1l0.5,0.9
				c0.1,0.1,0,0.3-0.1,0.4C25.2,71.3,25.2,71.3,25.2,71.3z"/>
		</g>
	</g>
	<g>
		<g>
			<path fill="#FFFFFF" d="M119.1,75.4c-0.1,0-0.2,0-0.2-0.1l-0.5-0.9c-0.1-0.1,0-0.3,0.1-0.4c0.1-0.1,0.3,0,0.4,0.1l0.5,0.9
				c0.1,0.1,0,0.3-0.1,0.4C119.2,75.4,119.1,75.4,119.1,75.4z"/>
		</g>
		<g>
			<path fill="#FFFFFF" d="M118,73.6c-0.1,0-0.2,0-0.2-0.1l-1.1-1.8c-0.1-0.1,0-0.3,0.1-0.4c0.1-0.1,0.3,0,0.4,0.1l1.1,1.8
				c0.1,0.1,0,0.3-0.1,0.4C118.1,73.6,118.1,73.6,118,73.6z M116.5,70.9c-0.1,0-0.2,0-0.2-0.1l-1.1-1.8c-0.1-0.1,0-0.3,0.1-0.4
				c0.1-0.1,0.3,0,0.4,0.1l1.1,1.8c0.1,0.1,0,0.3-0.1,0.4C116.6,70.8,116.5,70.9,116.5,70.9z M114.9,68.1c-0.1,0-0.2,0-0.2-0.1
				l-1.1-1.8c-0.1-0.1,0-0.3,0.1-0.4c0.1-0.1,0.3,0,0.4,0.1l1.1,1.8c0.1,0.1,0,0.3-0.1,0.4C115,68.1,114.9,68.1,114.9,68.1z
				 M113.3,65.4c-0.1,0-0.2,0-0.2-0.1l-1.1-1.8c-0.1-0.1,0-0.3,0.1-0.4c0.1-0.1,0.3,0,0.4,0.1l1.1,1.8c0.1,0.1,0,0.3-0.1,0.4
				C113.4,65.4,113.3,65.4,113.3,65.4z M111.7,62.7c-0.1,0-0.2,0-0.2-0.1l-1.1-1.8c-0.1-0.1,0-0.3,0.1-0.4c0.1-0.1,0.3,0,0.4,0.1
				l1.1,1.8c0.1,0.1,0,0.3-0.1,0.4C111.8,62.7,111.8,62.7,111.7,62.7z M110.1,59.9c-0.1,0-0.2,0-0.2-0.1l-1.1-1.8
				c-0.1-0.1,0-0.3,0.1-0.4c0.1-0.1,0.3,0,0.4,0.1l1.1,1.8c0.1,0.1,0,0.3-0.1,0.4C110.2,59.9,110.2,59.9,110.1,59.9z M108.5,57.2
				c-0.1,0-0.2,0-0.2-0.1l-1.1-1.8c-0.1-0.1,0-0.3,0.1-0.4c0.1-0.1,0.3,0,0.4,0.1l1.1,1.8c0.1,0.1,0,0.3-0.1,0.4
				C108.6,57.2,108.6,57.2,108.5,57.2z M107,54.5c-0.1,0-0.2,0-0.2-0.1l-1.1-1.8c-0.1-0.1,0-0.3,0.1-0.4c0.1-0.1,0.3,0,0.4,0.1
				l1.1,1.8c0.1,0.1,0,0.3-0.1,0.4C107,54.5,107,54.5,107,54.5z M105.4,51.8c-0.1,0-0.2,0-0.2-0.1l-1.1-1.8c-0.1-0.1,0-0.3,0.1-0.4
				c0.1-0.1,0.3,0,0.4,0.1l1.1,1.8c0.1,0.1,0,0.3-0.1,0.4C105.5,51.7,105.4,51.8,105.4,51.8z M103.8,49c-0.1,0-0.2,0-0.2-0.1
				l-1.1-1.8c-0.1-0.1,0-0.3,0.1-0.4c0.1-0.1,0.3,0,0.4,0.1l1.1,1.8c0.1,0.1,0,0.3-0.1,0.4C103.9,49,103.8,49,103.8,49z M102.2,46.3
				c-0.1,0-0.2,0-0.2-0.1l-1.1-1.8c-0.1-0.1,0-0.3,0.1-0.4c0.1-0.1,0.3,0,0.4,0.1l1.1,1.8c0.1,0.1,0,0.3-0.1,0.4
				C102.3,46.3,102.3,46.3,102.2,46.3z M100.6,43.6c-0.1,0-0.2,0-0.2-0.1l-1.1-1.8c-0.1-0.1,0-0.3,0.1-0.4c0.1-0.1,0.3,0,0.4,0.1
				l1.1,1.8c0.1,0.1,0,0.3-0.1,0.4C100.7,43.6,100.7,43.6,100.6,43.6z M99,40.8c-0.1,0-0.2,0-0.2-0.1l-1.1-1.8
				c-0.1-0.1,0-0.3,0.1-0.4c0.1-0.1,0.3,0,0.4,0.1l1.1,1.8c0.1,0.1,0,0.3-0.1,0.4C99.1,40.8,99.1,40.8,99,40.8z"/>
		</g>
		<g>
			<path fill="#FFFFFF" d="M97.5,38.1c-0.1,0-0.2,0-0.2-0.1l-0.5-0.9c-0.1-0.1,0-0.3,0.1-0.4c0.1-0.1,0.3,0,0.4,0.1l0.5,0.9
				c0.1,0.1,0,0.3-0.1,0.4C97.5,38.1,97.5,38.1,97.5,38.1z"/>
		</g>
	</g>
	<g>
		<g>
			<path fill="#FFFFFF" d="M90.6,28c0,0-0.1,0-0.1,0c-0.1-0.1-0.2-0.2-0.1-0.4l0.5-0.9c0.1-0.1,0.2-0.2,0.4-0.1
				c0.1,0.1,0.2,0.2,0.1,0.4l-0.5,0.9C90.7,27.9,90.6,28,90.6,28z"/>
		</g>
		<g>
			<path fill="#FFFFFF" d="M45.5,105.7c0,0-0.1,0-0.1,0c-0.1-0.1-0.2-0.2-0.1-0.4l1-1.8c0.1-0.1,0.2-0.2,0.4-0.1
				c0.1,0.1,0.2,0.2,0.1,0.4l-1,1.8C45.7,105.7,45.6,105.7,45.5,105.7z M47,103.1c0,0-0.1,0-0.1,0c-0.1-0.1-0.2-0.2-0.1-0.4l1-1.8
				c0.1-0.1,0.2-0.2,0.4-0.1c0.1,0.1,0.2,0.2,0.1,0.4l-1,1.8C47.2,103,47.1,103.1,47,103.1z M48.6,100.4c0,0-0.1,0-0.1,0
				c-0.1-0.1-0.2-0.2-0.1-0.4l1-1.8c0.1-0.1,0.2-0.2,0.4-0.1c0.1,0.1,0.2,0.2,0.1,0.4l-1,1.8C48.8,100.3,48.7,100.4,48.6,100.4z
				 M50.1,97.7c0,0-0.1,0-0.1,0c-0.1-0.1-0.2-0.2-0.1-0.4l1-1.8c0.1-0.1,0.2-0.2,0.4-0.1c0.1,0.1,0.2,0.2,0.1,0.4l-1,1.8
				C50.3,97.6,50.2,97.7,50.1,97.7z M51.7,95c0,0-0.1,0-0.1,0c-0.1-0.1-0.2-0.2-0.1-0.4l1-1.8c0.1-0.1,0.2-0.2,0.4-0.1
				C53,92.8,53,93,53,93.1l-1,1.8C51.9,95,51.8,95,51.7,95z M53.2,92.3c0,0-0.1,0-0.1,0c-0.1-0.1-0.2-0.2-0.1-0.4l1-1.8
				c0.1-0.1,0.2-0.2,0.4-0.1c0.1,0.1,0.2,0.2,0.1,0.4l-1,1.8C53.4,92.3,53.3,92.3,53.2,92.3z M54.8,89.6c0,0-0.1,0-0.1,0
				c-0.1-0.1-0.2-0.2-0.1-0.4l1-1.8c0.1-0.1,0.2-0.2,0.4-0.1c0.1,0.1,0.2,0.2,0.1,0.4l-1,1.8C55,89.6,54.9,89.6,54.8,89.6z M56.4,87
				c0,0-0.1,0-0.1,0c-0.1-0.1-0.2-0.2-0.1-0.4l1-1.8c0.1-0.1,0.2-0.2,0.4-0.1c0.1,0.1,0.2,0.2,0.1,0.4l-1,1.8
				C56.5,86.9,56.4,87,56.4,87z M57.9,84.3c0,0-0.1,0-0.1,0c-0.1-0.1-0.2-0.2-0.1-0.4l1-1.8c0.1-0.1,0.2-0.2,0.4-0.1
				c0.1,0.1,0.2,0.2,0.1,0.4l-1,1.8C58.1,84.2,58,84.3,57.9,84.3z M59.5,81.6c0,0-0.1,0-0.1,0c-0.1-0.1-0.2-0.2-0.1-0.4l1-1.8
				c0.1-0.1,0.2-0.2,0.4-0.1c0.1,0.1,0.2,0.2,0.1,0.4l-1,1.8C59.6,81.5,59.6,81.6,59.5,81.6z M61,78.9c0,0-0.1,0-0.1,0
				c-0.1-0.1-0.2-0.2-0.1-0.4l1-1.8c0.1-0.1,0.2-0.2,0.4-0.1c0.1,0.1,0.2,0.2,0.1,0.4l-1,1.8C61.2,78.9,61.1,78.9,61,78.9z
				 M62.6,76.2c0,0-0.1,0-0.1,0c-0.1-0.1-0.2-0.2-0.1-0.4l1-1.8c0.1-0.1,0.2-0.2,0.4-0.1c0.1,0.1,0.2,0.2,0.1,0.4l-1,1.8
				C62.7,76.2,62.7,76.2,62.6,76.2z M64.1,73.5c0,0-0.1,0-0.1,0c-0.1-0.1-0.2-0.2-0.1-0.4l1-1.8c0.1-0.1,0.2-0.2,0.4-0.1
				c0.1,0.1,0.2,0.2,0.1,0.4l-1,1.8C64.3,73.5,64.2,73.5,64.1,73.5z M65.7,70.9c0,0-0.1,0-0.1,0c-0.1-0.1-0.2-0.2-0.1-0.4l1-1.8
				c0.1-0.1,0.2-0.2,0.4-0.1c0.1,0.1,0.2,0.2,0.1,0.4l-1,1.8C65.9,70.8,65.8,70.9,65.7,70.9z M67.2,68.2c0,0-0.1,0-0.1,0
				c-0.1-0.1-0.2-0.2-0.1-0.4l1-1.8c0.1-0.1,0.2-0.2,0.4-0.1c0.1,0.1,0.2,0.2,0.1,0.4l-1,1.8C67.4,68.1,67.3,68.2,67.2,68.2z
				 M68.8,65.5c0,0-0.1,0-0.1,0c-0.1-0.1-0.2-0.2-0.1-0.4l1-1.8c0.1-0.1,0.2-0.2,0.4-0.1c0.1,0.1,0.2,0.2,0.1,0.4l-1,1.8
				C69,65.5,68.9,65.5,68.8,65.5z M70.3,62.8c0,0-0.1,0-0.1,0c-0.1-0.1-0.2-0.2-0.1-0.4l1-1.8c0.1-0.1,0.2-0.2,0.4-0.1
				c0.1,0.1,0.2,0.2,0.1,0.4l-1,1.8C70.5,62.8,70.4,62.8,70.3,62.8z M71.9,60.1c0,0-0.1,0-0.1,0c-0.1-0.1-0.2-0.2-0.1-0.4l1-1.8
				c0.1-0.1,0.2-0.2,0.4-0.1c0.1,0.1,0.2,0.2,0.1,0.4l-1,1.8C72.1,60.1,72,60.1,71.9,60.1z M73.5,57.5c0,0-0.1,0-0.1,0
				c-0.1-0.1-0.2-0.2-0.1-0.4l1-1.8c0.1-0.1,0.2-0.2,0.4-0.1c0.1,0.1,0.2,0.2,0.1,0.4l-1,1.8C73.6,57.4,73.5,57.5,73.5,57.5z
				 M75,54.8c0,0-0.1,0-0.1,0c-0.1-0.1-0.2-0.2-0.1-0.4l1-1.8c0.1-0.1,0.2-0.2,0.4-0.1c0.1,0.1,0.2,0.2,0.1,0.4l-1,1.8
				C75.2,54.7,75.1,54.8,75,54.8z M76.6,52.1c0,0-0.1,0-0.1,0c-0.1-0.1-0.2-0.2-0.1-0.4l1-1.8c0.1-0.1,0.2-0.2,0.4-0.1
				c0.1,0.1,0.2,0.2,0.1,0.4l-1,1.8C76.7,52,76.7,52.1,76.6,52.1z M78.1,49.4c0,0-0.1,0-0.1,0c-0.1-0.1-0.2-0.2-0.1-0.4l1-1.8
				c0.1-0.1,0.2-0.2,0.4-0.1c0.1,0.1,0.2,0.2,0.1,0.4l-1,1.8C78.3,49.4,78.2,49.4,78.1,49.4z M79.7,46.7c0,0-0.1,0-0.1,0
				c-0.1-0.1-0.2-0.2-0.1-0.4l1-1.8c0.1-0.1,0.2-0.2,0.4-0.1c0.1,0.1,0.2,0.2,0.1,0.4l-1,1.8C79.8,46.7,79.8,46.7,79.7,46.7z
				 M81.2,44c0,0-0.1,0-0.1,0c-0.1-0.1-0.2-0.2-0.1-0.4l1-1.8c0.1-0.1,0.2-0.2,0.4-0.1c0.1,0.1,0.2,0.2,0.1,0.4l-1,1.8
				C81.4,44,81.3,44,81.2,44z M82.8,41.4c0,0-0.1,0-0.1,0c-0.1-0.1-0.2-0.2-0.1-0.4l1-1.8c0.1-0.1,0.2-0.2,0.4-0.1
				c0.1,0.1,0.2,0.2,0.1,0.4l-1,1.8C83,41.3,82.9,41.4,82.8,41.4z M84.3,38.7c0,0-0.1,0-0.1,0c-0.1-0.1-0.2-0.2-0.1-0.4l1-1.8
				c0.1-0.1,0.2-0.2,0.4-0.1c0.1,0.1,0.2,0.2,0.1,0.4l-1,1.8C84.5,38.6,84.4,38.7,84.3,38.7z M85.9,36c0,0-0.1,0-0.1,0
				c-0.1-0.1-0.2-0.2-0.1-0.4l1-1.8c0.1-0.1,0.2-0.2,0.4-0.1c0.1,0.1,0.2,0.2,0.1,0.4l-1,1.8C86.1,36,86,36,85.9,36z M87.4,33.3
				c0,0-0.1,0-0.1,0c-0.1-0.1-0.2-0.2-0.1-0.4l1-1.8c0.1-0.1,0.2-0.2,0.4-0.1c0.1,0.1,0.2,0.2,0.1,0.4l-1,1.8
				C87.6,33.3,87.5,33.3,87.4,33.3z M89,30.6c0,0-0.1,0-0.1,0c-0.1-0.1-0.2-0.2-0.1-0.4l1-1.8c0.1-0.1,0.2-0.2,0.4-0.1
				c0.1,0.1,0.2,0.2,0.1,0.4l-1,1.8C89.2,30.6,89.1,30.6,89,30.6z"/>
		</g>
		<g>
			<path fill="#FFFFFF" d="M44.4,107.5c0,0-0.1,0-0.1,0c-0.1-0.1-0.2-0.2-0.1-0.4l0.5-0.9c0.1-0.1,0.2-0.2,0.4-0.1
				c0.1,0.1,0.2,0.2,0.1,0.4l-0.5,0.9C44.6,107.5,44.5,107.5,44.4,107.5z"/>
		</g>
	</g>
	<g>
		<g>
			<path fill="#FFFFFF" d="M98.7,38.1c0,0-0.1,0-0.1,0c-0.1-0.1-0.2-0.2-0.1-0.4l0.5-0.9c0.1-0.1,0.2-0.2,0.4-0.1
				c0.1,0.1,0.2,0.2,0.1,0.4L99,38C98.9,38,98.8,38.1,98.7,38.1z"/>
		</g>
		<g>
			<path fill="#FFFFFF" d="M53,117c0,0-0.1,0-0.1,0c-0.1-0.1-0.2-0.2-0.1-0.4l1.1-1.8c0.1-0.1,0.2-0.2,0.4-0.1
				c0.1,0.1,0.2,0.2,0.1,0.4l-1.1,1.8C53.2,117,53.1,117,53,117z M54.6,114.3c0,0-0.1,0-0.1,0c-0.1-0.1-0.2-0.2-0.1-0.4l1.1-1.8
				c0.1-0.1,0.2-0.2,0.4-0.1c0.1,0.1,0.2,0.2,0.1,0.4l-1.1,1.8C54.8,114.3,54.7,114.3,54.6,114.3z M56.2,111.6c0,0-0.1,0-0.1,0
				c-0.1-0.1-0.2-0.2-0.1-0.4l1.1-1.8c0.1-0.1,0.2-0.2,0.4-0.1c0.1,0.1,0.2,0.2,0.1,0.4l-1.1,1.8C56.3,111.5,56.2,111.6,56.2,111.6z
				 M57.7,108.9c0,0-0.1,0-0.1,0c-0.1-0.1-0.2-0.2-0.1-0.4l1.1-1.8c0.1-0.1,0.2-0.2,0.4-0.1c0.1,0.1,0.2,0.2,0.1,0.4l-1.1,1.8
				C57.9,108.8,57.8,108.9,57.7,108.9z M59.3,106.1c0,0-0.1,0-0.1,0c-0.1-0.1-0.2-0.2-0.1-0.4l1.1-1.8c0.1-0.1,0.2-0.2,0.4-0.1
				c0.1,0.1,0.2,0.2,0.1,0.4l-1.1,1.8C59.5,106.1,59.4,106.1,59.3,106.1z M60.9,103.4c0,0-0.1,0-0.1,0c-0.1-0.1-0.2-0.2-0.1-0.4
				l1.1-1.8c0.1-0.1,0.2-0.2,0.4-0.1s0.2,0.2,0.1,0.4l-1.1,1.8C61.1,103.4,61,103.4,60.9,103.4z M62.5,100.7c0,0-0.1,0-0.1,0
				c-0.1-0.1-0.2-0.2-0.1-0.4l1.1-1.8c0.1-0.1,0.2-0.2,0.4-0.1c0.1,0.1,0.2,0.2,0.1,0.4l-1.1,1.8C62.6,100.7,62.6,100.7,62.5,100.7z
				 M64,98c0,0-0.1,0-0.1,0c-0.1-0.1-0.2-0.2-0.1-0.4l1.1-1.8c0.1-0.1,0.2-0.2,0.4-0.1c0.1,0.1,0.2,0.2,0.1,0.4l-1.1,1.8
				C64.2,97.9,64.1,98,64,98z M65.6,95.3c0,0-0.1,0-0.1,0c-0.1-0.1-0.2-0.2-0.1-0.4l1.1-1.8c0.1-0.1,0.2-0.2,0.4-0.1
				c0.1,0.1,0.2,0.2,0.1,0.4l-1.1,1.8C65.8,95.2,65.7,95.3,65.6,95.3z M67.2,92.5c0,0-0.1,0-0.1,0c-0.1-0.1-0.2-0.2-0.1-0.4l1.1-1.8
				c0.1-0.1,0.2-0.2,0.4-0.1c0.1,0.1,0.2,0.2,0.1,0.4l-1.1,1.8C67.4,92.5,67.3,92.5,67.2,92.5z M68.8,89.8c0,0-0.1,0-0.1,0
				c-0.1-0.1-0.2-0.2-0.1-0.4l1.1-1.8c0.1-0.1,0.2-0.2,0.4-0.1c0.1,0.1,0.2,0.2,0.1,0.4L69,89.7C68.9,89.8,68.9,89.8,68.8,89.8z
				 M70.4,87.1c0,0-0.1,0-0.1,0c-0.1-0.1-0.2-0.2-0.1-0.4l1.1-1.8c0.1-0.1,0.2-0.2,0.4-0.1c0.1,0.1,0.2,0.2,0.1,0.4L70.6,87
				C70.5,87,70.4,87.1,70.4,87.1z M71.9,84.4c0,0-0.1,0-0.1,0c-0.1-0.1-0.2-0.2-0.1-0.4l1.1-1.8c0.1-0.1,0.2-0.2,0.4-0.1
				c0.1,0.1,0.2,0.2,0.1,0.4l-1.1,1.8C72.1,84.3,72,84.4,71.9,84.4z M73.5,81.6c0,0-0.1,0-0.1,0c-0.1-0.1-0.2-0.2-0.1-0.4l1.1-1.8
				c0.1-0.1,0.2-0.2,0.4-0.1c0.1,0.1,0.2,0.2,0.1,0.4l-1.1,1.8C73.7,81.6,73.6,81.6,73.5,81.6z M75.1,78.9c0,0-0.1,0-0.1,0
				c-0.1-0.1-0.2-0.2-0.1-0.4l1.1-1.8c0.1-0.1,0.2-0.2,0.4-0.1c0.1,0.1,0.2,0.2,0.1,0.4l-1.1,1.8C75.3,78.9,75.2,78.9,75.1,78.9z
				 M76.7,76.2c0,0-0.1,0-0.1,0c-0.1-0.1-0.2-0.2-0.1-0.4l1.1-1.8c0.1-0.1,0.2-0.2,0.4-0.1c0.1,0.1,0.2,0.2,0.1,0.4l-1.1,1.8
				C76.8,76.2,76.8,76.2,76.7,76.2z M78.2,73.5c0,0-0.1,0-0.1,0c-0.1-0.1-0.2-0.2-0.1-0.4l1.1-1.8c0.1-0.1,0.2-0.2,0.4-0.1
				s0.2,0.2,0.1,0.4l-1.1,1.8C78.4,73.4,78.3,73.5,78.2,73.5z M79.8,70.8c0,0-0.1,0-0.1,0c-0.1-0.1-0.2-0.2-0.1-0.4l1.1-1.8
				c0.1-0.1,0.2-0.2,0.4-0.1c0.1,0.1,0.2,0.2,0.1,0.4L80,70.6C80,70.7,79.9,70.8,79.8,70.8z M81.4,68c0,0-0.1,0-0.1,0
				c-0.1-0.1-0.2-0.2-0.1-0.4l1.1-1.8c0.1-0.1,0.2-0.2,0.4-0.1c0.1,0.1,0.2,0.2,0.1,0.4l-1.1,1.8C81.6,68,81.5,68,81.4,68z M83,65.3
				c0,0-0.1,0-0.1,0c-0.1-0.1-0.2-0.2-0.1-0.4l1.1-1.8c0.1-0.1,0.2-0.2,0.4-0.1c0.1,0.1,0.2,0.2,0.1,0.4l-1.1,1.8
				C83.1,65.3,83.1,65.3,83,65.3z M84.5,62.6c0,0-0.1,0-0.1,0c-0.1-0.1-0.2-0.2-0.1-0.4l1.1-1.8c0.1-0.1,0.2-0.2,0.4-0.1
				c0.1,0.1,0.2,0.2,0.1,0.4l-1.1,1.8C84.7,62.5,84.6,62.6,84.5,62.6z M86.1,59.9c0,0-0.1,0-0.1,0c-0.1-0.1-0.2-0.2-0.1-0.4l1.1-1.8
				c0.1-0.1,0.2-0.2,0.4-0.1c0.1,0.1,0.2,0.2,0.1,0.4l-1.1,1.8C86.3,59.8,86.2,59.9,86.1,59.9z M87.7,57.1c0,0-0.1,0-0.1,0
				c-0.1-0.1-0.2-0.2-0.1-0.4l1.1-1.8c0.1-0.1,0.2-0.2,0.4-0.1c0.1,0.1,0.2,0.2,0.1,0.4L87.9,57C87.9,57.1,87.8,57.1,87.7,57.1z
				 M89.3,54.4c0,0-0.1,0-0.1,0C89,54.3,89,54.2,89.1,54l1.1-1.8c0.1-0.1,0.2-0.2,0.4-0.1c0.1,0.1,0.2,0.2,0.1,0.4l-1.1,1.8
				C89.5,54.4,89.4,54.4,89.3,54.4z M90.9,51.7c0,0-0.1,0-0.1,0c-0.1-0.1-0.2-0.2-0.1-0.4l1.1-1.8c0.1-0.1,0.2-0.2,0.4-0.1
				c0.1,0.1,0.2,0.2,0.1,0.4l-1.1,1.8C91,51.7,91,51.7,90.9,51.7z M92.4,49c0,0-0.1,0-0.1,0c-0.1-0.1-0.2-0.2-0.1-0.4l1.1-1.8
				c0.1-0.1,0.2-0.2,0.4-0.1c0.1,0.1,0.2,0.2,0.1,0.4l-1.1,1.8C92.6,48.9,92.5,49,92.4,49z M94,46.3c0,0-0.1,0-0.1,0
				c-0.1-0.1-0.2-0.2-0.1-0.4l1.1-1.8c0.1-0.1,0.2-0.2,0.4-0.1c0.1,0.1,0.2,0.2,0.1,0.4l-1.1,1.8C94.2,46.2,94.1,46.3,94,46.3z
				 M95.6,43.5c0,0-0.1,0-0.1,0c-0.1-0.1-0.2-0.2-0.1-0.4l1.1-1.8c0.1-0.1,0.2-0.2,0.4-0.1c0.1,0.1,0.2,0.2,0.1,0.4l-1.1,1.8
				C95.8,43.5,95.7,43.5,95.6,43.5z M97.2,40.8c0,0-0.1,0-0.1,0c-0.1-0.1-0.2-0.2-0.1-0.4l1.1-1.8c0.1-0.1,0.2-0.2,0.4-0.1
				c0.1,0.1,0.2,0.2,0.1,0.4l-1.1,1.8C97.3,40.8,97.3,40.8,97.2,40.8z"/>
		</g>
		<g>
			<path fill="#FFFFFF" d="M51.9,118.8c0,0-0.1,0-0.1,0c-0.1-0.1-0.2-0.2-0.1-0.4l0.5-0.9c0.1-0.1,0.2-0.2,0.4-0.1
				c0.1,0.1,0.2,0.2,0.1,0.4l-0.5,0.9C52.1,118.8,52,118.8,51.9,118.8z"/>
		</g>
	</g>
	<g>
		<g>
			<path fill="#FFFFFF" d="M134.3,78c-0.1,0-0.2,0-0.2-0.1l-0.5-0.9c-0.1-0.1,0-0.3,0.1-0.4c0.1-0.1,0.3,0,0.4,0.1l0.5,0.9
				c0.1,0.1,0,0.3-0.1,0.4C134.4,78,134.3,78,134.3,78z"/>
		</g>
		<g>
			<path fill="#FFFFFF" d="M133.3,76.2c-0.1,0-0.2,0-0.2-0.1l-1-1.8c-0.1-0.1,0-0.3,0.1-0.4c0.1-0.1,0.3,0,0.4,0.1l1,1.8
				c0.1,0.1,0,0.3-0.1,0.4C133.4,76.2,133.3,76.2,133.3,76.2z M131.7,73.6c-0.1,0-0.2,0-0.2-0.1l-1-1.8c-0.1-0.1,0-0.3,0.1-0.4
				c0.1-0.1,0.3,0,0.4,0.1l1,1.8c0.1,0.1,0,0.3-0.1,0.4C131.8,73.6,131.8,73.6,131.7,73.6z M130.2,70.9c-0.1,0-0.2,0-0.2-0.1l-1-1.8
				c-0.1-0.1,0-0.3,0.1-0.4c0.1-0.1,0.3,0,0.4,0.1l1,1.8c0.1,0.1,0,0.3-0.1,0.4C130.3,70.9,130.2,70.9,130.2,70.9z M128.6,68.2
				c-0.1,0-0.2,0-0.2-0.1l-1-1.8c-0.1-0.1,0-0.3,0.1-0.4c0.1-0.1,0.3,0,0.4,0.1l1,1.8c0.1,0.1,0,0.3-0.1,0.4
				C128.7,68.2,128.7,68.2,128.6,68.2z M127.1,65.5c-0.1,0-0.2,0-0.2-0.1l-1-1.8c-0.1-0.1,0-0.3,0.1-0.4c0.1-0.1,0.3,0,0.4,0.1
				l1,1.8c0.1,0.1,0,0.3-0.1,0.4C127.2,65.5,127.1,65.5,127.1,65.5z M125.5,62.8c-0.1,0-0.2,0-0.2-0.1l-1-1.8
				c-0.1-0.1,0-0.3,0.1-0.4c0.1-0.1,0.3,0,0.4,0.1l1,1.8c0.1,0.1,0,0.3-0.1,0.4C125.6,62.8,125.6,62.8,125.5,62.8z M124,60.1
				c-0.1,0-0.2,0-0.2-0.1l-1-1.8c-0.1-0.1,0-0.3,0.1-0.4c0.1-0.1,0.3,0,0.4,0.1l1,1.8c0.1,0.1,0,0.3-0.1,0.4
				C124.1,60.1,124,60.1,124,60.1z M122.5,57.5c-0.1,0-0.2,0-0.2-0.1l-1-1.8c-0.1-0.1,0-0.3,0.1-0.4c0.1-0.1,0.3,0,0.4,0.1l1,1.8
				c0.1,0.1,0,0.3-0.1,0.4C122.5,57.5,122.5,57.5,122.5,57.5z M120.9,54.8c-0.1,0-0.2,0-0.2-0.1l-1-1.8c-0.1-0.1,0-0.3,0.1-0.4
				c0.1-0.1,0.3,0,0.4,0.1l1,1.8c0.1,0.1,0,0.3-0.1,0.4C121,54.8,120.9,54.8,120.9,54.8z M119.4,52.1c-0.1,0-0.2,0-0.2-0.1l-1-1.8
				c-0.1-0.1,0-0.3,0.1-0.4c0.1-0.1,0.3,0,0.4,0.1l1,1.8c0.1,0.1,0,0.3-0.1,0.4C119.4,52.1,119.4,52.1,119.4,52.1z M117.8,49.4
				c-0.1,0-0.2,0-0.2-0.1l-1-1.8c-0.1-0.1,0-0.3,0.1-0.4c0.1-0.1,0.3,0,0.4,0.1l1,1.8c0.1,0.1,0,0.3-0.1,0.4
				C117.9,49.4,117.9,49.4,117.8,49.4z M116.3,46.7c-0.1,0-0.2,0-0.2-0.1l-1-1.8c-0.1-0.1,0-0.3,0.1-0.4c0.1-0.1,0.3,0,0.4,0.1
				l1,1.8c0.1,0.1,0,0.3-0.1,0.4C116.4,46.7,116.3,46.7,116.3,46.7z M114.7,44c-0.1,0-0.2,0-0.2-0.1l-1-1.8c-0.1-0.1,0-0.3,0.1-0.4
				c0.1-0.1,0.3,0,0.4,0.1l1,1.8c0.1,0.1,0,0.3-0.1,0.4C114.8,44,114.8,44,114.7,44z M113.2,41.4c-0.1,0-0.2,0-0.2-0.1l-1-1.8
				c-0.1-0.1,0-0.3,0.1-0.4c0.1-0.1,0.3,0,0.4,0.1l1,1.8c0.1,0.1,0,0.3-0.1,0.4C113.3,41.4,113.2,41.4,113.2,41.4z M111.6,38.7
				c-0.1,0-0.2,0-0.2-0.1l-1-1.8c-0.1-0.1,0-0.3,0.1-0.4c0.1-0.1,0.3,0,0.4,0.1l1,1.8c0.1,0.1,0,0.3-0.1,0.4
				C111.7,38.7,111.7,38.7,111.6,38.7z M110.1,36c-0.1,0-0.2,0-0.2-0.1l-1-1.8c-0.1-0.1,0-0.3,0.1-0.4c0.1-0.1,0.3,0,0.4,0.1l1,1.8
				c0.1,0.1,0,0.3-0.1,0.4C110.2,36,110.1,36,110.1,36z M108.5,33.3c-0.1,0-0.2,0-0.2-0.1l-1-1.8c-0.1-0.1,0-0.3,0.1-0.4
				c0.1-0.1,0.3,0,0.4,0.1l1,1.8c0.1,0.1,0,0.3-0.1,0.4C108.6,33.3,108.6,33.3,108.5,33.3z M107,30.6c-0.1,0-0.2,0-0.2-0.1l-1-1.8
				c-0.1-0.1,0-0.3,0.1-0.4c0.1-0.1,0.3,0,0.4,0.1l1,1.8c0.1,0.1,0,0.3-0.1,0.4C107.1,30.6,107,30.6,107,30.6z"/>
		</g>
		<g>
			<path fill="#FFFFFF" d="M105.5,28c-0.1,0-0.2,0-0.2-0.1l-0.5-0.9c-0.1-0.1,0-0.3,0.1-0.4c0.1-0.1,0.3,0,0.4,0.1l0.5,0.9
				c0.1,0.1,0,0.3-0.1,0.4C105.5,27.9,105.5,28,105.5,28z"/>
		</g>
	</g>
	<g>
		<g>
			<path fill="#FFFFFF" d="M118.6,70.5c0,0-0.1,0-0.1,0c-0.1-0.1-0.2-0.2-0.1-0.4l0.5-0.9c0.1-0.1,0.2-0.2,0.4-0.1
				c0.1,0.1,0.2,0.2,0.1,0.4l-0.5,0.9C118.8,70.5,118.7,70.5,118.6,70.5z"/>
		</g>
		<g>
			<path fill="#FFFFFF" d="M91.9,117c0,0-0.1,0-0.1,0c-0.1-0.1-0.2-0.2-0.1-0.4l1-1.8c0.1-0.1,0.2-0.2,0.4-0.1
				c0.1,0.1,0.2,0.2,0.1,0.4l-1,1.8C92.1,116.9,92,117,91.9,117z M93.5,114.2c0,0-0.1,0-0.1,0c-0.1-0.1-0.2-0.2-0.1-0.4l1-1.8
				c0.1-0.1,0.2-0.2,0.4-0.1c0.1,0.1,0.2,0.2,0.1,0.4l-1,1.8C93.7,114.2,93.6,114.2,93.5,114.2z M95.1,111.5c0,0-0.1,0-0.1,0
				c-0.1-0.1-0.2-0.2-0.1-0.4l1-1.8c0.1-0.1,0.2-0.2,0.4-0.1c0.1,0.1,0.2,0.2,0.1,0.4l-1,1.8C95.2,111.5,95.2,111.5,95.1,111.5z
				 M96.6,108.8c0,0-0.1,0-0.1,0c-0.1-0.1-0.2-0.2-0.1-0.4l1-1.8c0.1-0.1,0.2-0.2,0.4-0.1c0.1,0.1,0.2,0.2,0.1,0.4l-1,1.8
				C96.8,108.7,96.7,108.8,96.6,108.8z M98.2,106c0,0-0.1,0-0.1,0c-0.1-0.1-0.2-0.2-0.1-0.4l1-1.8c0.1-0.1,0.2-0.2,0.4-0.1
				c0.1,0.1,0.2,0.2,0.1,0.4l-1,1.8C98.4,106,98.3,106,98.2,106z M99.8,103.3c0,0-0.1,0-0.1,0c-0.1-0.1-0.2-0.2-0.1-0.4l1-1.8
				c0.1-0.1,0.2-0.2,0.4-0.1s0.2,0.2,0.1,0.4l-1,1.8C100,103.3,99.9,103.3,99.8,103.3z M101.4,100.6c0,0-0.1,0-0.1,0
				c-0.1-0.1-0.2-0.2-0.1-0.4l1-1.8c0.1-0.1,0.2-0.2,0.4-0.1c0.1,0.1,0.2,0.2,0.1,0.4l-1,1.8C101.5,100.5,101.4,100.6,101.4,100.6z
				 M102.9,97.8c0,0-0.1,0-0.1,0c-0.1-0.1-0.2-0.2-0.1-0.4l1-1.8c0.1-0.1,0.2-0.2,0.4-0.1c0.1,0.1,0.2,0.2,0.1,0.4l-1,1.8
				C103.1,97.8,103,97.8,102.9,97.8z M104.5,95.1c0,0-0.1,0-0.1,0c-0.1-0.1-0.2-0.2-0.1-0.4l1-1.8c0.1-0.1,0.2-0.2,0.4-0.1
				c0.1,0.1,0.2,0.2,0.1,0.4l-1,1.8C104.7,95.1,104.6,95.1,104.5,95.1z M106.1,92.4c0,0-0.1,0-0.1,0c-0.1-0.1-0.2-0.2-0.1-0.4l1-1.8
				c0.1-0.1,0.2-0.2,0.4-0.1c0.1,0.1,0.2,0.2,0.1,0.4l-1,1.8C106.2,92.3,106.2,92.4,106.1,92.4z M107.6,89.6c0,0-0.1,0-0.1,0
				c-0.1-0.1-0.2-0.2-0.1-0.4l1-1.8c0.1-0.1,0.2-0.2,0.4-0.1c0.1,0.1,0.2,0.2,0.1,0.4l-1,1.8C107.8,89.6,107.7,89.6,107.6,89.6z
				 M109.2,86.9c0,0-0.1,0-0.1,0c-0.1-0.1-0.2-0.2-0.1-0.4l1-1.8c0.1-0.1,0.2-0.2,0.4-0.1c0.1,0.1,0.2,0.2,0.1,0.4l-1,1.8
				C109.4,86.9,109.3,86.9,109.2,86.9z M110.8,84.2c0,0-0.1,0-0.1,0c-0.1-0.1-0.2-0.2-0.1-0.4l1-1.8c0.1-0.1,0.2-0.2,0.4-0.1
				c0.1,0.1,0.2,0.2,0.1,0.4l-1,1.8C111,84.1,110.9,84.2,110.8,84.2z M112.4,81.4c0,0-0.1,0-0.1,0c-0.1-0.1-0.2-0.2-0.1-0.4l1-1.8
				c0.1-0.1,0.2-0.2,0.4-0.1c0.1,0.1,0.2,0.2,0.1,0.4l-1,1.8C112.5,81.4,112.4,81.4,112.4,81.4z M113.9,78.7c0,0-0.1,0-0.1,0
				c-0.1-0.1-0.2-0.2-0.1-0.4l1-1.8c0.1-0.1,0.2-0.2,0.4-0.1c0.1,0.1,0.2,0.2,0.1,0.4l-1,1.8C114.1,78.7,114,78.7,113.9,78.7z
				 M115.5,76c0,0-0.1,0-0.1,0c-0.1-0.1-0.2-0.2-0.1-0.4l1-1.8c0.1-0.1,0.2-0.2,0.4-0.1c0.1,0.1,0.2,0.2,0.1,0.4l-1,1.8
				C115.7,75.9,115.6,76,115.5,76z M117.1,73.2c0,0-0.1,0-0.1,0c-0.1-0.1-0.2-0.2-0.1-0.4l1-1.8c0.1-0.1,0.2-0.2,0.4-0.1
				c0.1,0.1,0.2,0.2,0.1,0.4l-1,1.8C117.2,73.2,117.2,73.2,117.1,73.2z"/>
		</g>
		<g>
			<path fill="#FFFFFF" d="M90.9,118.8c0,0-0.1,0-0.1,0c-0.1-0.1-0.2-0.2-0.1-0.4l0.5-0.9c0.1-0.1,0.2-0.2,0.4-0.1s0.2,0.2,0.1,0.4
				l-0.5,0.9C91.1,118.7,91,118.8,90.9,118.8z"/>
		</g>
	</g>
	<g>
		<g>
			<path fill="#FFFFFF" d="M134.2,68.7c0,0-0.1,0-0.1,0c-0.1-0.1-0.2-0.2-0.1-0.4l0.5-0.9c0.1-0.1,0.2-0.2,0.4-0.1
				c0.1,0.1,0.2,0.2,0.1,0.4l-0.5,0.9C134.4,68.7,134.3,68.7,134.2,68.7z"/>
		</g>
		<g>
			<path fill="#FFFFFF" d="M106.5,117c0,0-0.1,0-0.1,0c-0.1-0.1-0.2-0.2-0.1-0.4l1-1.8c0.1-0.1,0.2-0.2,0.4-0.1
				c0.1,0.1,0.2,0.2,0.1,0.4l-1,1.8C106.7,116.9,106.6,117,106.5,117z M108,114.3c0,0-0.1,0-0.1,0c-0.1-0.1-0.2-0.2-0.1-0.4l1-1.8
				c0.1-0.1,0.2-0.2,0.4-0.1c0.1,0.1,0.2,0.2,0.1,0.4l-1,1.8C108.2,114.3,108.1,114.3,108,114.3z M109.6,111.6c0,0-0.1,0-0.1,0
				c-0.1-0.1-0.2-0.2-0.1-0.4l1-1.8c0.1-0.1,0.2-0.2,0.4-0.1c0.1,0.1,0.2,0.2,0.1,0.4l-1,1.8C109.8,111.6,109.7,111.6,109.6,111.6z
				 M111.1,108.9c0,0-0.1,0-0.1,0c-0.1-0.1-0.2-0.2-0.1-0.4l1-1.8c0.1-0.1,0.2-0.2,0.4-0.1c0.1,0.1,0.2,0.2,0.1,0.4l-1,1.8
				C111.3,108.9,111.2,108.9,111.1,108.9z M112.7,106.3c0,0-0.1,0-0.1,0c-0.1-0.1-0.2-0.2-0.1-0.4l1-1.8c0.1-0.1,0.2-0.2,0.4-0.1
				c0.1,0.1,0.2,0.2,0.1,0.4l-1,1.8C112.8,106.2,112.8,106.3,112.7,106.3z M114.2,103.6c0,0-0.1,0-0.1,0c-0.1-0.1-0.2-0.2-0.1-0.4
				l1-1.8c0.1-0.1,0.2-0.2,0.4-0.1c0.1,0.1,0.2,0.2,0.1,0.4l-1,1.8C114.4,103.5,114.3,103.6,114.2,103.6z M115.8,100.9
				c0,0-0.1,0-0.1,0c-0.1-0.1-0.2-0.2-0.1-0.4l1-1.8c0.1-0.1,0.2-0.2,0.4-0.1c0.1,0.1,0.2,0.2,0.1,0.4l-1,1.8
				C115.9,100.9,115.8,100.9,115.8,100.9z M117.3,98.2c0,0-0.1,0-0.1,0c-0.1-0.1-0.2-0.2-0.1-0.4l1-1.8c0.1-0.1,0.2-0.2,0.4-0.1
				c0.1,0.1,0.2,0.2,0.1,0.4l-1,1.8C117.5,98.2,117.4,98.2,117.3,98.2z M118.8,95.5c0,0-0.1,0-0.1,0c-0.1-0.1-0.2-0.2-0.1-0.4l1-1.8
				c0.1-0.1,0.2-0.2,0.4-0.1c0.1,0.1,0.2,0.2,0.1,0.4l-1,1.8C119,95.5,118.9,95.5,118.8,95.5z M120.4,92.9c0,0-0.1,0-0.1,0
				c-0.1-0.1-0.2-0.2-0.1-0.4l1-1.8c0.1-0.1,0.2-0.2,0.4-0.1c0.1,0.1,0.2,0.2,0.1,0.4l-1,1.8C120.6,92.8,120.5,92.9,120.4,92.9z
				 M121.9,90.2c0,0-0.1,0-0.1,0c-0.1-0.1-0.2-0.2-0.1-0.4l1-1.8c0.1-0.1,0.2-0.2,0.4-0.1c0.1,0.1,0.2,0.2,0.1,0.4l-1,1.8
				C122.1,90.1,122,90.2,121.9,90.2z M123.5,87.5c0,0-0.1,0-0.1,0c-0.1-0.1-0.2-0.2-0.1-0.4l1-1.8c0.1-0.1,0.2-0.2,0.4-0.1
				c0.1,0.1,0.2,0.2,0.1,0.4l-1,1.8C123.6,87.5,123.5,87.5,123.5,87.5z M125,84.8c0,0-0.1,0-0.1,0c-0.1-0.1-0.2-0.2-0.1-0.4l1-1.8
				c0.1-0.1,0.2-0.2,0.4-0.1c0.1,0.1,0.2,0.2,0.1,0.4l-1,1.8C125.2,84.8,125.1,84.8,125,84.8z M126.5,82.1c0,0-0.1,0-0.1,0
				c-0.1-0.1-0.2-0.2-0.1-0.4l1-1.8c0.1-0.1,0.2-0.2,0.4-0.1c0.1,0.1,0.2,0.2,0.1,0.4l-1,1.8C126.7,82.1,126.6,82.1,126.5,82.1z
				 M128.1,79.5c0,0-0.1,0-0.1,0c-0.1-0.1-0.2-0.2-0.1-0.4l1-1.8c0.1-0.1,0.2-0.2,0.4-0.1c0.1,0.1,0.2,0.2,0.1,0.4l-1,1.8
				C128.3,79.4,128.2,79.5,128.1,79.5z M129.6,76.8c0,0-0.1,0-0.1,0c-0.1-0.1-0.2-0.2-0.1-0.4l1-1.8c0.1-0.1,0.2-0.2,0.4-0.1
				c0.1,0.1,0.2,0.2,0.1,0.4l-1,1.8C129.8,76.7,129.7,76.8,129.6,76.8z M131.2,74.1c0,0-0.1,0-0.1,0c-0.1-0.1-0.2-0.2-0.1-0.4l1-1.8
				c0.1-0.1,0.2-0.2,0.4-0.1c0.1,0.1,0.2,0.2,0.1,0.4l-1,1.8C131.3,74.1,131.3,74.1,131.2,74.1z M132.7,71.4c0,0-0.1,0-0.1,0
				c-0.1-0.1-0.2-0.2-0.1-0.4l1-1.8c0.1-0.1,0.2-0.2,0.4-0.1c0.1,0.1,0.2,0.2,0.1,0.4l-1,1.8C132.9,71.4,132.8,71.4,132.7,71.4z"/>
		</g>
		<g>
			<path fill="#FFFFFF" d="M105.5,118.8c0,0-0.1,0-0.1,0c-0.1-0.1-0.2-0.2-0.1-0.4l0.5-0.9c0.1-0.1,0.2-0.2,0.4-0.1
				c0.1,0.1,0.2,0.2,0.1,0.4l-0.5,0.9C105.7,118.7,105.6,118.8,105.5,118.8z"/>
		</g>
	</g>
	<g>
		<path fill="#FFFFFF" d="M111.3,119H84.8c-0.2,0-0.4-0.1-0.5-0.3c-0.1-0.2-0.1-0.4,0-0.5l26.3-45.8L98.1,50.4l-39.3,68.4
			c-0.1,0.2-0.3,0.3-0.5,0.3H31.9c-0.2,0-0.4-0.1-0.5-0.3L4.9,72.7c-0.1-0.2-0.1-0.4,0-0.5l26.5-45.6c0.1-0.2,0.3-0.3,0.5-0.3h26.5
			c0.2,0,0.4,0.1,0.5,0.3c0.1,0.2,0.1,0.4,0,0.5L32.5,72.5l12.6,21.8l39.3-67.8c0.1-0.2,0.3-0.3,0.5-0.3h26.5c0.2,0,0.4,0.1,0.5,0.3
			l26.4,45.9c0.1,0.2,0.1,0.4,0,0.5l-26.5,45.9C111.7,118.9,111.5,119,111.3,119z M85.7,118H111l26.2-45.3l-26.1-45.3H85.1
			L45.5,95.6c-0.2,0.3-0.7,0.3-0.9,0L31.4,72.8c-0.1-0.2-0.1-0.4,0-0.5l26-45H32.2L6,72.4L32.2,118H58l39.6-68.9
			c0.1-0.2,0.3-0.3,0.5-0.3h0c0.2,0,0.4,0.1,0.5,0.3l13.2,23.1c0.1,0.2,0.1,0.4,0,0.5L85.7,118z"/>
	</g>
</g>
<path opacity="0.8" fill="#FFFFFF" d="M71.5,76.4c-0.2,0-0.4-0.2-0.4-0.4v-6.5c0-0.2,0.2-0.4,0.4-0.4s0.4,0.2,0.4,0.4v6.5
	C72,76.2,71.8,76.4,71.5,76.4z"/>
<path opacity="0.8" fill="#FFFFFF" d="M74.8,73.1h-6.5c-0.2,0-0.4-0.2-0.4-0.4c0-0.2,0.2-0.4,0.4-0.4h6.5c0.2,0,0.4,0.2,0.4,0.4
	C75.2,72.9,75,73.1,74.8,73.1z"/>
</svg>
