<?xml version="1.0" encoding="utf-8"?>
<!-- Generator: Adobe Illustrator 17.1.0, SVG Export Plug-In . SVG Version: 6.00 Build 0)  -->
<!DOCTYPE svg PUBLIC "-//W3C//DTD SVG 1.1//EN" "http://www.w3.org/Graphics/SVG/1.1/DTD/svg11.dtd">
<svg version="1.1" id="Layer_1" xmlns="http://www.w3.org/2000/svg" xmlns:xlink="http://www.w3.org/1999/xlink" x="0px" y="0px"
	 viewBox="0 0 144 144" enable-background="new 0 0 144 144" xml:space="preserve">
<g>
	<path fill="#FFFFFF" d="M1.3,82.8h2.4l0.8,8.9L6,83.9h1.6l1.6,7.7l0.6-8.8H12l-1.6,13.5H8.5l-1.8-8.2l-1.8,8.2H3L1.3,82.8z"/>
	<path fill="#FFFFFF" d="M17.6,86c0.6,0,1.2,0.1,1.7,0.3c0.5,0.2,1,0.5,1.4,0.9c0.4,0.4,0.7,0.9,0.9,1.5c0.2,0.6,0.3,1.3,0.3,2.1
		c0,0.2,0,0.3,0,0.5c0,0.2,0,0.3,0,0.5h-6.6c0.1,0.5,0.2,0.9,0.3,1.3c0.2,0.3,0.4,0.6,0.6,0.9c0.2,0.2,0.5,0.4,0.8,0.5
		c0.3,0.1,0.6,0.2,0.9,0.2c0.5,0,0.9-0.1,1.3-0.3c0.4-0.2,0.8-0.5,1.1-0.9l1.3,1.3c-1,1.2-2.3,1.8-3.8,1.8c-0.7,0-1.4-0.1-2-0.4
		c-0.6-0.2-1.1-0.6-1.6-1c-0.4-0.5-0.8-1-1.1-1.7c-0.3-0.7-0.4-1.4-0.4-2.2c0-0.8,0.1-1.6,0.4-2.3c0.2-0.7,0.6-1.2,1-1.7
		c0.4-0.5,0.9-0.8,1.5-1.1C16.3,86.1,16.9,86,17.6,86z M19.5,90.1c0-0.3,0-0.6-0.1-0.9c-0.1-0.3-0.2-0.5-0.4-0.8
		c-0.2-0.2-0.4-0.4-0.6-0.5c-0.3-0.1-0.5-0.2-0.8-0.2c-0.3,0-0.6,0.1-0.8,0.2c-0.3,0.1-0.5,0.3-0.7,0.5c-0.2,0.2-0.3,0.5-0.5,0.7
		c-0.1,0.3-0.2,0.6-0.2,1H19.5z"/>
	<path fill="#FFFFFF" d="M23.9,81.7h2.7c0,0.1,0,0.2,0,0.2S26.5,82,26.5,82c0,0-0.1,0.1-0.1,0.1c0,0-0.1,0.1-0.1,0.2v4.7
		c0.3-0.4,0.7-0.6,1.1-0.8c0.4-0.2,0.8-0.3,1.2-0.3c0.6,0,1.1,0.1,1.6,0.3c0.5,0.2,1,0.5,1.4,1c0.4,0.4,0.7,0.9,0.9,1.6
		c0.2,0.6,0.3,1.4,0.3,2.2c0,0.9-0.1,1.7-0.4,2.4c-0.3,0.7-0.6,1.3-1,1.7c-0.4,0.5-0.9,0.8-1.4,1c-0.5,0.2-1,0.3-1.6,0.3
		c-0.5,0-1-0.1-1.5-0.3c-0.5-0.2-0.9-0.5-1.2-1l-0.3,1h-1.7V81.7z M26.3,91.1c0,0.6,0,1.2,0.1,1.6c0.1,0.4,0.2,0.8,0.4,1.1
		c0.2,0.3,0.4,0.5,0.6,0.6c0.2,0.1,0.5,0.2,0.8,0.2c0.2,0,0.5-0.1,0.8-0.2c0.3-0.1,0.5-0.3,0.7-0.5c0.2-0.3,0.4-0.6,0.5-1
		c0.1-0.4,0.2-0.9,0.2-1.5c0-0.6-0.1-1.2-0.2-1.7c-0.1-0.5-0.3-0.8-0.6-1.1c-0.2-0.2-0.4-0.4-0.6-0.5c-0.2-0.1-0.5-0.2-0.8-0.2
		c-0.4,0-0.7,0.1-1,0.3s-0.4,0.4-0.6,0.7c-0.1,0.3-0.2,0.6-0.3,1C26.3,90.3,26.3,90.7,26.3,91.1z"/>
	<path fill="#FFFFFF" d="M45.9,86.6c-0.1,0-0.1-0.1-0.1-0.1c0,0,0-0.1,0-0.2c0-0.1,0-0.1,0-0.2c0-0.1,0-0.2-0.1-0.2
		c-0.2-0.5-0.5-0.8-0.8-1.1c-0.3-0.3-0.8-0.4-1.3-0.4c-0.4,0-0.8,0.1-1.2,0.4s-0.6,0.6-0.9,1c-0.2,0.4-0.4,1-0.6,1.6
		c-0.1,0.6-0.2,1.3-0.2,2.1c0,0.7,0.1,1.4,0.2,2c0.1,0.6,0.3,1.2,0.6,1.6s0.6,0.8,0.9,1.1c0.4,0.3,0.8,0.4,1.2,0.4
		c0.5,0,1-0.2,1.4-0.5c0.4-0.3,0.8-0.8,1.1-1.3l1.8,1.2c-0.5,0.9-1.1,1.5-1.8,2c-0.7,0.4-1.5,0.7-2.4,0.7c-0.8,0-1.5-0.1-2.2-0.4
		c-0.7-0.3-1.3-0.7-1.8-1.3c-0.5-0.6-0.9-1.3-1.2-2.2c-0.3-0.9-0.4-1.9-0.4-3.1c0-0.9,0.1-1.7,0.2-2.4c0.2-0.7,0.4-1.3,0.6-1.8
		c0.3-0.5,0.6-1,0.9-1.4c0.4-0.4,0.7-0.7,1.1-0.9c0.4-0.2,0.8-0.4,1.2-0.5c0.4-0.1,0.8-0.2,1.2-0.2c0.5,0,1,0.1,1.5,0.2
		c0.5,0.1,0.9,0.4,1.3,0.6c0.4,0.3,0.7,0.6,1,1c0.3,0.4,0.6,0.8,0.8,1.3L45.9,86.6z"/>
	<path fill="#FFFFFF" d="M53.8,86c0.7,0,1.3,0.1,1.8,0.4c0.6,0.2,1.1,0.6,1.5,1c0.4,0.5,0.8,1,1,1.7c0.2,0.7,0.4,1.4,0.4,2.3
		c0,0.8-0.1,1.6-0.4,2.3c-0.2,0.7-0.6,1.2-1,1.7c-0.4,0.5-0.9,0.8-1.5,1.1c-0.6,0.2-1.2,0.4-1.9,0.4s-1.3-0.1-1.9-0.4
		c-0.6-0.3-1.1-0.6-1.5-1.1c-0.4-0.5-0.8-1-1-1.7c-0.3-0.6-0.4-1.4-0.4-2.1c0-0.8,0.1-1.5,0.4-2.1c0.3-0.7,0.6-1.2,1.1-1.7
		c0.4-0.5,1-0.9,1.5-1.1C52.5,86.1,53.1,86,53.8,86z M56.1,91.3c0-0.5-0.1-1-0.2-1.5c-0.1-0.4-0.3-0.8-0.5-1.1
		c-0.2-0.3-0.5-0.5-0.8-0.7c-0.3-0.2-0.6-0.2-0.9-0.2c-0.3,0-0.7,0.1-0.9,0.2c-0.3,0.2-0.5,0.4-0.7,0.7c-0.2,0.3-0.4,0.6-0.5,1.1
		c-0.1,0.4-0.2,0.9-0.2,1.4c0,0.5,0.1,1,0.2,1.4c0.1,0.4,0.3,0.8,0.5,1.1c0.2,0.3,0.5,0.5,0.7,0.7c0.3,0.2,0.6,0.2,1,0.2
		c0.7,0,1.3-0.3,1.7-0.9C55.9,93.2,56.1,92.4,56.1,91.3z"/>
	<path fill="#FFFFFF" d="M59.8,96.3V86.1h2.1v0.6c0.3-0.3,0.6-0.6,1-0.7c0.3-0.1,0.6-0.2,0.9-0.2c0.1,0,0.3,0,0.4,0.1
		c0.2,0,0.3,0.1,0.4,0.2c0.1,0.1,0.3,0.2,0.4,0.4c0.1,0.2,0.3,0.3,0.4,0.6c0.2-0.4,0.6-0.7,0.9-0.9c0.4-0.2,0.7-0.3,1.1-0.3
		c0.4,0,0.7,0.1,1,0.2c0.3,0.1,0.5,0.3,0.6,0.6c0.2,0.3,0.3,0.6,0.3,1c0.1,0.4,0.1,0.8,0.1,1.3v7.5h-2.3v-7.1c0-0.6,0-1-0.1-1.2
		c-0.1-0.2-0.3-0.4-0.5-0.4c-0.5,0-0.8,0.7-0.8,2v6.6h-2.2v-6.9c0-0.4,0-0.6-0.1-0.9c0-0.2-0.1-0.4-0.1-0.5s-0.1-0.2-0.2-0.2
		c-0.1,0-0.1-0.1-0.2-0.1c-0.1,0-0.3,0-0.4,0.1c-0.1,0.1-0.2,0.2-0.3,0.3c-0.1,0.1-0.1,0.3-0.2,0.6c0,0.2-0.1,0.6-0.1,0.9v6.7H59.8z
		"/>
	<path fill="#FFFFFF" d="M71.1,86.2h2.3v1c0.2-0.2,0.3-0.4,0.5-0.6c0.2-0.2,0.4-0.3,0.6-0.4c0.2-0.1,0.4-0.2,0.6-0.2
		c0.2,0,0.4-0.1,0.6-0.1c0.6,0,1.1,0.1,1.7,0.3c0.5,0.2,1,0.6,1.4,1s0.7,1,0.9,1.7c0.2,0.7,0.3,1.5,0.3,2.4c0,0.8-0.1,1.6-0.3,2.2
		c-0.2,0.6-0.5,1.2-0.9,1.6c-0.4,0.4-0.8,0.8-1.4,1c-0.5,0.2-1.1,0.3-1.6,0.3c-0.4,0-0.8-0.1-1.3-0.3c-0.4-0.2-0.8-0.4-1.1-0.7v4.3
		h-2.4L71.1,86.2z M73.6,91.2c0,0.6,0,1.2,0.1,1.6c0.1,0.4,0.2,0.8,0.4,1.1c0.2,0.3,0.4,0.5,0.6,0.6c0.2,0.1,0.5,0.2,0.8,0.2
		c0.2,0,0.5-0.1,0.8-0.2c0.3-0.1,0.5-0.3,0.7-0.5c0.2-0.3,0.4-0.6,0.5-1c0.1-0.4,0.2-0.9,0.2-1.5c0-1.1-0.2-1.9-0.6-2.5
		c-0.4-0.6-1-0.9-1.7-0.9c-0.4,0-0.7,0.1-1,0.3c-0.2,0.2-0.4,0.4-0.6,0.7c-0.1,0.3-0.2,0.6-0.3,1C73.6,90.3,73.6,90.7,73.6,91.2z"/>
	<path fill="#FFFFFF" d="M86.3,86c0.7,0,1.3,0.1,1.8,0.4c0.6,0.2,1.1,0.6,1.5,1c0.4,0.5,0.8,1,1,1.7c0.2,0.7,0.4,1.4,0.4,2.3
		c0,0.8-0.1,1.6-0.4,2.3c-0.2,0.7-0.6,1.2-1,1.7c-0.4,0.5-0.9,0.8-1.5,1.1c-0.6,0.2-1.2,0.4-1.9,0.4c-0.7,0-1.3-0.1-1.9-0.4
		c-0.6-0.3-1.1-0.6-1.5-1.1c-0.4-0.5-0.8-1-1-1.7c-0.2-0.6-0.4-1.4-0.4-2.1c0-0.8,0.1-1.5,0.4-2.1c0.3-0.7,0.6-1.2,1.1-1.7
		c0.4-0.5,1-0.9,1.5-1.1C85,86.1,85.6,86,86.3,86z M88.6,91.3c0-0.5-0.1-1-0.2-1.5c-0.1-0.4-0.3-0.8-0.5-1.1
		c-0.2-0.3-0.5-0.5-0.8-0.7c-0.3-0.2-0.6-0.2-0.9-0.2c-0.3,0-0.7,0.1-0.9,0.2c-0.3,0.2-0.5,0.4-0.7,0.7s-0.4,0.6-0.5,1.1
		c-0.1,0.4-0.2,0.9-0.2,1.4c0,0.5,0.1,1,0.2,1.4c0.1,0.4,0.3,0.8,0.5,1.1c0.2,0.3,0.5,0.5,0.7,0.7c0.3,0.2,0.6,0.2,1,0.2
		c0.7,0,1.3-0.3,1.7-0.9C88.4,93.2,88.6,92.4,88.6,91.3z"/>
	<path fill="#FFFFFF" d="M92.9,96.3V86.2h2.4v1c0.4-0.4,0.8-0.7,1.2-0.9C97,86.1,97.5,86,98,86c0.5,0,1,0.1,1.4,0.2
		c0.4,0.2,0.8,0.4,1.1,0.7c0.3,0.3,0.5,0.8,0.7,1.3c0.2,0.5,0.2,1.2,0.2,1.9v6.1H99v-6.1c0-0.4,0-0.7-0.1-1
		c-0.1-0.3-0.2-0.5-0.3-0.7c-0.1-0.2-0.3-0.3-0.5-0.4C97.9,88,97.7,88,97.5,88c-0.3,0-0.6,0.1-0.9,0.2c-0.3,0.1-0.5,0.3-0.7,0.5
		c-0.2,0.2-0.3,0.5-0.5,0.8c-0.1,0.3-0.2,0.6-0.2,1v5.8H92.9z"/>
	<path fill="#FFFFFF" d="M108,86c0.6,0,1.2,0.1,1.7,0.3c0.5,0.2,1,0.5,1.4,0.9s0.7,0.9,0.9,1.5c0.2,0.6,0.3,1.3,0.3,2.1
		c0,0.2,0,0.3,0,0.5c0,0.2,0,0.3,0,0.5h-6.6c0.1,0.5,0.2,0.9,0.3,1.3c0.2,0.3,0.4,0.6,0.6,0.9c0.2,0.2,0.5,0.4,0.8,0.5
		c0.3,0.1,0.6,0.2,0.9,0.2c0.5,0,0.9-0.1,1.3-0.3c0.4-0.2,0.8-0.5,1.1-0.9l1.3,1.3c-1,1.2-2.3,1.8-3.8,1.8c-0.7,0-1.4-0.1-2-0.4
		c-0.6-0.2-1.1-0.6-1.6-1c-0.4-0.5-0.8-1-1.1-1.7c-0.3-0.7-0.4-1.4-0.4-2.2c0-0.8,0.1-1.6,0.4-2.3c0.2-0.7,0.6-1.2,1-1.7
		c0.4-0.5,0.9-0.8,1.5-1.1C106.7,86.1,107.3,86,108,86z M109.9,90.1c0-0.3,0-0.6-0.1-0.9c-0.1-0.3-0.2-0.5-0.4-0.8
		c-0.2-0.2-0.4-0.4-0.6-0.5c-0.3-0.1-0.5-0.2-0.8-0.2c-0.3,0-0.6,0.1-0.8,0.2c-0.2,0.1-0.5,0.3-0.7,0.5c-0.2,0.2-0.3,0.5-0.5,0.7
		c-0.1,0.3-0.2,0.6-0.2,1H109.9z"/>
	<path fill="#FFFFFF" d="M114.5,96.3V86.2h2.4v1c0.4-0.4,0.8-0.7,1.2-0.9c0.5-0.2,0.9-0.3,1.4-0.3c0.5,0,1,0.1,1.4,0.2
		c0.4,0.2,0.8,0.4,1.1,0.7c0.3,0.3,0.5,0.8,0.7,1.3c0.2,0.5,0.2,1.2,0.2,1.9v6.1h-2.4v-6.1c0-0.4,0-0.7-0.1-1
		c-0.1-0.3-0.2-0.5-0.3-0.7c-0.1-0.2-0.3-0.3-0.5-0.4c-0.2-0.1-0.4-0.1-0.6-0.1c-0.3,0-0.6,0.1-0.9,0.2c-0.3,0.1-0.5,0.3-0.7,0.5
		c-0.2,0.2-0.3,0.5-0.5,0.8c-0.1,0.3-0.2,0.6-0.2,1v5.8H114.5z"/>
	<path fill="#FFFFFF" d="M126.3,83.8l2.7-0.5c0,0.2,0,0.3-0.1,0.5c-0.1,0.1-0.1,0.3-0.1,0.4l-0.2,2h3.1v2h-3.1
		c0,0.5-0.1,1.1-0.1,1.6c0,0.6-0.1,1.1-0.1,1.6c0,0.5,0,1,0,1.4c0,0.4,0.1,0.7,0.2,1c0.1,0.2,0.2,0.4,0.3,0.5
		c0.2,0.1,0.4,0.2,0.6,0.2c0.2,0,0.6-0.1,1-0.3c0.4-0.2,0.8-0.5,1.3-0.9l0.8,2c-0.6,0.4-1.2,0.7-1.7,1c-0.6,0.2-1.1,0.3-1.7,0.3
		c-0.6,0-1-0.1-1.5-0.2c-0.4-0.2-0.7-0.4-1-0.7c-0.3-0.3-0.5-0.8-0.6-1.3c-0.1-0.5-0.2-1.1-0.2-1.9c0-0.5,0-1.1,0-1.8
		c0-0.7,0.1-1.6,0.2-2.6h-2.2v-2h2.3L126.3,83.8z"/>
	<path fill="#FFFFFF" d="M141.9,89.5c-0.1,0-0.1,0-0.1,0c0,0-0.1-0.1-0.1-0.1c0,0,0-0.1,0-0.1c0-0.1,0-0.1-0.1-0.1
		c-0.1-0.2-0.3-0.3-0.5-0.4c-0.2-0.1-0.4-0.3-0.6-0.4c-0.2-0.1-0.5-0.2-0.7-0.3c-0.3-0.1-0.5-0.1-0.8-0.1c-0.2,0-0.4,0-0.6,0
		s-0.4,0.1-0.5,0.2c-0.2,0.1-0.3,0.2-0.4,0.3c-0.1,0.1-0.1,0.2-0.1,0.4c0,0.2,0,0.3,0.1,0.5c0.1,0.1,0.2,0.2,0.4,0.3
		c0.2,0.1,0.4,0.2,0.7,0.3c0.3,0.1,0.6,0.2,1,0.3c1.2,0.3,2.1,0.8,2.7,1.3c0.6,0.5,0.9,1.1,0.9,1.8c0,0.5-0.1,0.9-0.3,1.3
		c-0.2,0.4-0.5,0.8-0.9,1.1s-0.8,0.6-1.4,0.7c-0.5,0.2-1.1,0.3-1.8,0.3c-0.9,0-1.6-0.1-2.4-0.4c-0.7-0.3-1.4-0.7-2-1.3l1.3-2.3
		c0.1,0,0.1,0.1,0.2,0.2c0,0.1,0.1,0.2,0.2,0.4c0.1,0.2,0.3,0.4,0.5,0.5c0.2,0.2,0.4,0.3,0.7,0.5c0.3,0.1,0.5,0.3,0.8,0.3
		c0.3,0.1,0.6,0.1,0.8,0.1c0.6,0,1-0.1,1.3-0.2c0.3-0.2,0.5-0.4,0.5-0.7c0-0.2,0-0.3-0.1-0.4c-0.1-0.1-0.2-0.2-0.3-0.4
		c-0.2-0.1-0.4-0.2-0.6-0.3c-0.2-0.1-0.5-0.2-0.9-0.3c-0.2-0.1-0.4-0.1-0.6-0.2c-0.2-0.1-0.4-0.1-0.6-0.2c-0.4-0.1-0.7-0.3-1.1-0.5
		c-0.3-0.2-0.6-0.4-0.8-0.6c-0.2-0.2-0.4-0.5-0.5-0.8c-0.1-0.3-0.2-0.6-0.2-1c0-0.4,0.1-0.7,0.3-1.1c0.2-0.4,0.5-0.7,0.8-1
		s0.8-0.5,1.3-0.7c0.5-0.2,1-0.3,1.6-0.3c0.8,0,1.5,0.1,2.1,0.4c0.7,0.3,1.3,0.7,1.8,1.3L141.9,89.5z"/>
</g>
<g>
	<path fill="#FFFFFF" d="M18.6,70.3l4.5-13.7h1.4l4.9,13.7h-2.5l-1.2-3.5h-3.5l-1.1,3.5H18.6z M25.2,65.2l-1.4-4.5l-1.3,4.5H25.2z"
		/>
	<path fill="#FFFFFF" d="M37.9,63.8c-0.1,0-0.1,0-0.1-0.1c0,0,0-0.1-0.1-0.1c0,0,0-0.1,0-0.2c0-0.1,0-0.1,0-0.2
		c-0.2-0.3-0.5-0.6-0.9-0.8c-0.4-0.2-0.8-0.3-1.4-0.3c-0.4,0-0.7,0.1-1,0.2c-0.3,0.2-0.6,0.4-0.8,0.7c-0.2,0.3-0.4,0.6-0.6,1
		c-0.1,0.4-0.2,0.8-0.2,1.3c0,0.5,0.1,0.9,0.2,1.3c0.1,0.4,0.3,0.8,0.5,1.1c0.2,0.3,0.5,0.5,0.8,0.7c0.3,0.2,0.7,0.3,1.1,0.3
		c0.2,0,0.4,0,0.6-0.1c0.2,0,0.4-0.1,0.6-0.2c0.2-0.1,0.4-0.2,0.6-0.4c0.2-0.2,0.4-0.4,0.6-0.6l1.4,1.6c-0.6,0.6-1.2,1.1-1.9,1.4
		c-0.7,0.3-1.4,0.4-2.2,0.4c-0.7,0-1.4-0.1-2-0.4c-0.6-0.3-1.1-0.6-1.6-1.1s-0.8-1-1-1.7c-0.3-0.6-0.4-1.4-0.4-2.1
		c0-0.8,0.1-1.5,0.4-2.1s0.6-1.2,1-1.7c0.5-0.5,1-0.9,1.6-1.1c0.6-0.3,1.3-0.4,2.1-0.4c0.4,0,0.8,0,1.2,0.1c0.4,0.1,0.8,0.2,1.1,0.4
		c0.3,0.2,0.7,0.4,1,0.6c0.3,0.2,0.5,0.5,0.8,0.8L37.9,63.8z"/>
	<path fill="#FFFFFF" d="M48.7,63.8c-0.1,0-0.1,0-0.1-0.1c0,0,0-0.1-0.1-0.1s0-0.1,0-0.2c0-0.1,0-0.1,0-0.2
		c-0.2-0.3-0.5-0.6-0.9-0.8c-0.4-0.2-0.8-0.3-1.4-0.3c-0.4,0-0.7,0.1-1,0.2c-0.3,0.2-0.6,0.4-0.8,0.7c-0.2,0.3-0.4,0.6-0.6,1
		c-0.1,0.4-0.2,0.8-0.2,1.3c0,0.5,0.1,0.9,0.2,1.3c0.1,0.4,0.3,0.8,0.5,1.1c0.2,0.3,0.5,0.5,0.8,0.7c0.3,0.2,0.7,0.3,1.1,0.3
		c0.2,0,0.4,0,0.6-0.1c0.2,0,0.4-0.1,0.6-0.2c0.2-0.1,0.4-0.2,0.6-0.4s0.4-0.4,0.6-0.6l1.4,1.6c-0.6,0.6-1.2,1.1-1.9,1.4
		c-0.7,0.3-1.4,0.4-2.2,0.4c-0.7,0-1.4-0.1-2-0.4c-0.6-0.3-1.1-0.6-1.6-1.1c-0.4-0.5-0.8-1-1-1.7c-0.3-0.6-0.4-1.4-0.4-2.1
		c0-0.8,0.1-1.5,0.4-2.1c0.2-0.7,0.6-1.2,1-1.7c0.5-0.5,1-0.9,1.6-1.1c0.6-0.3,1.3-0.4,2.1-0.4c0.4,0,0.8,0,1.2,0.1
		c0.4,0.1,0.8,0.2,1.1,0.4c0.3,0.2,0.7,0.4,1,0.6c0.3,0.2,0.5,0.5,0.8,0.8L48.7,63.8z"/>
	<path fill="#FFFFFF" d="M56.6,60c0.6,0,1.2,0.1,1.7,0.3c0.5,0.2,1,0.5,1.4,0.9c0.4,0.4,0.7,0.9,0.9,1.5c0.2,0.6,0.3,1.3,0.3,2.1
		c0,0.2,0,0.3,0,0.5c0,0.2,0,0.3,0,0.5h-6.6c0.1,0.5,0.2,0.9,0.3,1.3c0.2,0.3,0.4,0.6,0.6,0.9c0.2,0.2,0.5,0.4,0.8,0.5
		c0.3,0.1,0.6,0.2,0.9,0.2c0.5,0,0.9-0.1,1.3-0.3c0.4-0.2,0.8-0.5,1.1-0.9l1.3,1.3c-1,1.2-2.3,1.8-3.8,1.8c-0.7,0-1.4-0.1-2-0.4
		c-0.6-0.2-1.1-0.6-1.6-1c-0.4-0.5-0.8-1-1.1-1.7c-0.3-0.7-0.4-1.4-0.4-2.2c0-0.8,0.1-1.6,0.4-2.3c0.2-0.7,0.6-1.2,1-1.7
		c0.4-0.5,0.9-0.8,1.5-1.1C55.3,60.1,55.9,60,56.6,60z M58.5,64.2c0-0.3,0-0.6-0.1-0.9c-0.1-0.3-0.2-0.5-0.4-0.8
		c-0.2-0.2-0.4-0.4-0.6-0.5c-0.3-0.1-0.5-0.2-0.8-0.2c-0.3,0-0.6,0.1-0.8,0.2c-0.2,0.1-0.5,0.3-0.7,0.5s-0.3,0.5-0.5,0.7
		c-0.1,0.3-0.2,0.6-0.2,1H58.5z"/>
	<path fill="#FFFFFF" d="M70.3,63.5c-0.1,0-0.1,0-0.1,0c0,0-0.1-0.1-0.1-0.1c0,0,0-0.1,0-0.1c0-0.1,0-0.1-0.1-0.1
		c-0.1-0.2-0.3-0.3-0.5-0.4c-0.2-0.1-0.4-0.3-0.6-0.4c-0.2-0.1-0.5-0.2-0.7-0.3c-0.3-0.1-0.5-0.1-0.8-0.1c-0.2,0-0.4,0-0.6,0
		c-0.2,0-0.4,0.1-0.5,0.2c-0.2,0.1-0.3,0.2-0.4,0.3c-0.1,0.1-0.1,0.3-0.1,0.4c0,0.2,0,0.3,0.1,0.5c0.1,0.1,0.2,0.2,0.4,0.3
		c0.2,0.1,0.4,0.2,0.7,0.3c0.3,0.1,0.6,0.2,1,0.3c1.2,0.3,2.1,0.8,2.7,1.3c0.6,0.5,0.9,1.1,0.9,1.8c0,0.5-0.1,0.9-0.3,1.3
		c-0.2,0.4-0.5,0.8-0.9,1.1c-0.4,0.3-0.8,0.6-1.4,0.7c-0.5,0.2-1.1,0.3-1.8,0.3c-0.9,0-1.6-0.1-2.4-0.4c-0.7-0.3-1.4-0.7-2-1.3
		l1.3-2.3c0.1,0,0.1,0.1,0.2,0.2c0,0.1,0.1,0.2,0.2,0.4c0.1,0.2,0.3,0.4,0.5,0.5c0.2,0.2,0.4,0.3,0.7,0.5c0.3,0.1,0.5,0.3,0.8,0.3
		s0.6,0.1,0.8,0.1c0.6,0,1-0.1,1.3-0.2c0.3-0.2,0.5-0.4,0.5-0.7c0-0.2,0-0.3-0.1-0.4c-0.1-0.1-0.2-0.2-0.3-0.4
		c-0.2-0.1-0.4-0.2-0.6-0.3c-0.2-0.1-0.5-0.2-0.9-0.3c-0.2-0.1-0.4-0.1-0.6-0.2c-0.2-0.1-0.4-0.1-0.6-0.2c-0.4-0.1-0.7-0.3-1.1-0.5
		c-0.3-0.2-0.6-0.4-0.8-0.6c-0.2-0.2-0.4-0.5-0.5-0.8c-0.1-0.3-0.2-0.6-0.2-1c0-0.4,0.1-0.7,0.3-1.1c0.2-0.4,0.5-0.7,0.8-1
		c0.4-0.3,0.8-0.5,1.3-0.7c0.5-0.2,1-0.3,1.6-0.3c0.8,0,1.5,0.1,2.1,0.4c0.7,0.3,1.3,0.7,1.8,1.3L70.3,63.5z"/>
	<path fill="#FFFFFF" d="M81.1,63.5c-0.1,0-0.1,0-0.1,0c0,0-0.1-0.1-0.1-0.1c0,0,0-0.1,0-0.1c0-0.1,0-0.1-0.1-0.1
		c-0.1-0.2-0.3-0.3-0.5-0.4c-0.2-0.1-0.4-0.3-0.6-0.4C79.5,62.1,79.3,62,79,62c-0.3-0.1-0.5-0.1-0.8-0.1c-0.2,0-0.4,0-0.6,0
		c-0.2,0-0.4,0.1-0.5,0.2c-0.2,0.1-0.3,0.2-0.4,0.3c-0.1,0.1-0.1,0.3-0.1,0.4c0,0.2,0,0.3,0.1,0.5c0.1,0.1,0.2,0.2,0.4,0.3
		c0.2,0.1,0.4,0.2,0.7,0.3c0.3,0.1,0.6,0.2,1,0.3c1.2,0.3,2.1,0.8,2.7,1.3c0.6,0.5,0.9,1.1,0.9,1.8c0,0.5-0.1,0.9-0.3,1.3
		c-0.2,0.4-0.5,0.8-0.9,1.1c-0.4,0.3-0.8,0.6-1.4,0.7c-0.5,0.2-1.1,0.3-1.8,0.3c-0.9,0-1.6-0.1-2.4-0.4c-0.7-0.3-1.4-0.7-2-1.3
		l1.3-2.3c0.1,0,0.1,0.1,0.2,0.2c0,0.1,0.1,0.2,0.2,0.4c0.1,0.2,0.3,0.4,0.5,0.5c0.2,0.2,0.4,0.3,0.7,0.5c0.3,0.1,0.5,0.3,0.8,0.3
		s0.6,0.1,0.8,0.1c0.6,0,1-0.1,1.3-0.2c0.3-0.2,0.5-0.4,0.5-0.7c0-0.2,0-0.3-0.1-0.4s-0.2-0.2-0.3-0.4c-0.2-0.1-0.4-0.2-0.6-0.3
		c-0.2-0.1-0.5-0.2-0.9-0.3c-0.2-0.1-0.4-0.1-0.6-0.2c-0.2-0.1-0.4-0.1-0.6-0.2c-0.4-0.1-0.7-0.3-1.1-0.5c-0.3-0.2-0.6-0.4-0.8-0.6
		c-0.2-0.2-0.4-0.5-0.5-0.8c-0.1-0.3-0.2-0.6-0.2-1c0-0.4,0.1-0.7,0.3-1.1c0.2-0.4,0.5-0.7,0.8-1s0.8-0.5,1.3-0.7
		c0.5-0.2,1-0.3,1.6-0.3c0.8,0,1.5,0.1,2.1,0.4c0.7,0.3,1.3,0.7,1.8,1.3L81.1,63.5z"/>
	<path fill="#FFFFFF" d="M85.7,60.2h4.7v8.2h2.2v1.9h-7.1v-1.9H88v-6.3h-2.3V60.2z M89.3,55.7c0.2,0,0.4,0,0.6,0.1
		c0.2,0.1,0.3,0.2,0.5,0.3c0.1,0.1,0.2,0.3,0.3,0.4c0.1,0.2,0.1,0.3,0.1,0.5c0,0.2,0,0.4-0.1,0.5c-0.1,0.2-0.2,0.3-0.3,0.4
		c-0.1,0.1-0.3,0.2-0.5,0.3c-0.2,0.1-0.4,0.1-0.6,0.1s-0.4,0-0.6-0.1c-0.2-0.1-0.3-0.2-0.5-0.3c-0.1-0.1-0.2-0.3-0.3-0.4
		s-0.1-0.3-0.1-0.5c0-0.2,0-0.3,0.1-0.5c0.1-0.2,0.2-0.3,0.3-0.4c0.1-0.1,0.3-0.2,0.5-0.3C88.8,55.7,89,55.7,89.3,55.7z"/>
	<path fill="#FFFFFF" d="M95.4,55.7h2.7c0,0.1,0,0.2,0,0.2c0,0-0.1,0.1-0.1,0.1c0,0-0.1,0.1-0.1,0.1c0,0-0.1,0.1-0.1,0.2v4.7
		c0.3-0.4,0.7-0.6,1.1-0.8c0.4-0.2,0.8-0.3,1.2-0.3c0.6,0,1.1,0.1,1.6,0.3c0.5,0.2,1,0.5,1.4,1c0.4,0.4,0.7,0.9,0.9,1.6
		c0.2,0.6,0.3,1.4,0.3,2.2c0,0.9-0.1,1.7-0.4,2.4c-0.2,0.7-0.6,1.3-1,1.7c-0.4,0.5-0.9,0.8-1.4,1c-0.5,0.2-1.1,0.3-1.6,0.3
		c-0.5,0-1-0.1-1.5-0.3c-0.5-0.2-0.9-0.5-1.2-1l-0.3,1h-1.7V55.7z M97.8,65.2c0,0.6,0,1.2,0.1,1.6s0.2,0.8,0.4,1.1s0.4,0.5,0.6,0.6
		c0.2,0.1,0.5,0.2,0.8,0.2c0.2,0,0.5-0.1,0.8-0.2c0.3-0.1,0.5-0.3,0.7-0.5c0.2-0.3,0.4-0.6,0.5-1c0.1-0.4,0.2-0.9,0.2-1.5
		c0-0.6-0.1-1.2-0.2-1.7c-0.1-0.5-0.3-0.8-0.6-1.1c-0.2-0.2-0.4-0.4-0.6-0.5c-0.2-0.1-0.5-0.2-0.8-0.2c-0.4,0-0.7,0.1-1,0.3
		c-0.2,0.2-0.4,0.4-0.6,0.7c-0.1,0.3-0.2,0.6-0.3,1C97.9,64.3,97.8,64.7,97.8,65.2z"/>
	<path fill="#FFFFFF" d="M106.7,55.7h5.1v12.7h2.8v1.9h-8v-1.9h2.8V57.6h-2.6V55.7z"/>
	<path fill="#FFFFFF" d="M121.6,60c0.6,0,1.2,0.1,1.7,0.3c0.5,0.2,1,0.5,1.4,0.9s0.7,0.9,0.9,1.5c0.2,0.6,0.3,1.3,0.3,2.1
		c0,0.2,0,0.3,0,0.5c0,0.2,0,0.3,0,0.5h-6.6c0.1,0.5,0.2,0.9,0.3,1.3c0.2,0.3,0.4,0.6,0.6,0.9c0.2,0.2,0.5,0.4,0.8,0.5
		c0.3,0.1,0.6,0.2,0.9,0.2c0.5,0,0.9-0.1,1.3-0.3c0.4-0.2,0.8-0.5,1.1-0.9l1.3,1.3c-1,1.2-2.3,1.8-3.8,1.8c-0.7,0-1.4-0.1-2-0.4
		c-0.6-0.2-1.1-0.6-1.6-1c-0.4-0.5-0.8-1-1.1-1.7c-0.3-0.7-0.4-1.4-0.4-2.2c0-0.8,0.1-1.6,0.4-2.3c0.2-0.7,0.6-1.2,1-1.7
		c0.4-0.5,0.9-0.8,1.5-1.1C120.2,60.1,120.9,60,121.6,60z M123.4,64.2c0-0.3,0-0.6-0.1-0.9c-0.1-0.3-0.2-0.5-0.4-0.8
		c-0.2-0.2-0.4-0.4-0.6-0.5c-0.3-0.1-0.5-0.2-0.8-0.2c-0.3,0-0.6,0.1-0.8,0.2c-0.2,0.1-0.5,0.3-0.7,0.5s-0.3,0.5-0.5,0.7
		c-0.1,0.3-0.2,0.6-0.2,1H123.4z"/>
</g>
</svg>
