<?xml version="1.0" encoding="utf-8"?>
<!-- Generator: Adobe Illustrator 17.1.0, SVG Export Plug-In . SVG Version: 6.00 Build 0)  -->
<!DOCTYPE svg PUBLIC "-//W3C//DTD SVG 1.1//EN" "http://www.w3.org/Graphics/SVG/1.1/DTD/svg11.dtd">
<svg version="1.1" id="Layer_1" xmlns="http://www.w3.org/2000/svg" xmlns:xlink="http://www.w3.org/1999/xlink" x="0px" y="0px"
	 viewBox="0 0 144 144" enable-background="new 0 0 144 144" xml:space="preserve">
<g>
	
		<polygon fill="none" stroke="#FAFAFA" stroke-width="2" stroke-linecap="round" stroke-linejoin="round" stroke-miterlimit="10" points="
		85.9,30 99.8,54.1 113.7,30 	"/>
	
		<polygon fill="none" stroke="#FAFAFA" stroke-width="2" stroke-linecap="round" stroke-linejoin="round" stroke-miterlimit="10" points="
		72,55 85.9,30.9 99.8,55 	"/>
	
		<polygon fill="none" stroke="#FAFAFA" stroke-width="2" stroke-linecap="round" stroke-linejoin="round" stroke-miterlimit="10" points="
		72,55 85.9,79.1 99.8,55 	"/>
	
		<polygon fill="none" stroke="#FAFAFA" stroke-width="2" stroke-linecap="round" stroke-linejoin="round" stroke-miterlimit="10" points="
		58.1,79 72,54.9 85.9,79 	"/>
	
		<polygon fill="none" stroke="#FAFAFA" stroke-width="2" stroke-linecap="round" stroke-linejoin="round" stroke-miterlimit="10" points="
		58.1,79 72,103.1 85.9,79 	"/>
	
		<polygon fill="none" stroke="#FAFAFA" stroke-width="2" stroke-linecap="round" stroke-linejoin="round" stroke-miterlimit="10" points="
		44.2,103 58.1,78.9 72,103 	"/>
	
		<polygon fill="none" stroke="#FAFAFA" stroke-width="2" stroke-linecap="round" stroke-linejoin="round" stroke-miterlimit="10" points="
		44.2,103 58.1,127.1 72,103 	"/>
	
		<polygon fill="none" stroke="#FAFAFA" stroke-width="2" stroke-linecap="round" stroke-linejoin="round" stroke-miterlimit="10" points="
		30.3,126 44.2,101.9 58.1,126 	"/>
	
		<polygon fill="none" stroke="#FAFAFA" stroke-width="2" stroke-linecap="round" stroke-linejoin="round" stroke-miterlimit="10" points="
		30.3,30 44.2,54.1 58.1,30 	"/>
	
		<polygon fill="none" stroke="#FAFAFA" stroke-width="2" stroke-linecap="round" stroke-linejoin="round" stroke-miterlimit="10" points="
		16.4,55 30.3,30.9 44.2,55 	"/>
	
		<polygon fill="none" stroke="#FAFAFA" stroke-width="2" stroke-linecap="round" stroke-linejoin="round" stroke-miterlimit="10" points="
		16.4,55 30.3,79.1 44.2,55 	"/>
	
		<polygon fill="none" stroke="#FAFAFA" stroke-width="2" stroke-linecap="round" stroke-linejoin="round" stroke-miterlimit="10" points="
		2.5,79 16.4,54.9 30.3,79 	"/>
	
		<polygon fill="none" stroke="#FAFAFA" stroke-width="2" stroke-linecap="round" stroke-linejoin="round" stroke-miterlimit="10" points="
		2.5,79 16.4,103.1 30.3,79 	"/>
	
		<polygon fill="none" stroke="#FAFAFA" stroke-width="2" stroke-linecap="round" stroke-linejoin="round" stroke-miterlimit="10" points="
		44.2,103 30.3,78.9 16.4,103 	"/>
	
		<polygon fill="none" stroke="#FAFAFA" stroke-width="2" stroke-linecap="round" stroke-linejoin="round" stroke-miterlimit="10" points="
		44.2,103 30.3,127.1 16.4,103 	"/>
	
		<polygon fill="none" stroke="#FAFAFA" stroke-width="2" stroke-linecap="round" stroke-linejoin="round" stroke-miterlimit="10" points="
		127.6,55 113.7,30.9 99.8,55 	"/>
	
		<polygon fill="none" stroke="#FAFAFA" stroke-width="2" stroke-linecap="round" stroke-linejoin="round" stroke-miterlimit="10" points="
		127.6,55 113.7,79.1 99.8,55 	"/>
	<g>
		
			<polygon fill="none" stroke="#FAFAFA" stroke-width="2" stroke-linecap="round" stroke-linejoin="round" stroke-miterlimit="10" points="
			113.7,79 127.6,54.9 141.5,79 		"/>
		
			<polygon fill="none" stroke="#FAFAFA" stroke-width="2" stroke-linecap="round" stroke-linejoin="round" stroke-miterlimit="10" points="
			113.7,79 127.6,103.1 141.5,79 		"/>
		
			<polygon fill="none" stroke="#FAFAFA" stroke-width="2" stroke-linecap="round" stroke-linejoin="round" stroke-miterlimit="10" points="
			99.8,103 113.7,78.9 127.6,103 		"/>
		
			<polygon fill="none" stroke="#FAFAFA" stroke-width="2" stroke-linecap="round" stroke-linejoin="round" stroke-miterlimit="10" points="
			99.8,103 113.7,127.1 127.6,103 		"/>
		
			<polygon fill="none" stroke="#FAFAFA" stroke-width="2" stroke-linecap="round" stroke-linejoin="round" stroke-miterlimit="10" points="
			85.9,126 99.8,101.9 113.7,126 		"/>
	</g>
</g>
<rect x="2" y="2" fill="none" width="140" height="140"/>
</svg>
